<svg width="42" height="42" viewBox="0 0 42 42" fill="none" xmlns="http://www.w3.org/2000/svg">
<path d="M21 41.5C32.3218 41.5 41.5 32.3218 41.5 21C41.5 9.67816 32.3218 0.5 21 0.5C9.67816 0.5 0.5 9.67816 0.5 21C0.5 32.3218 9.67816 41.5 21 41.5Z" fill="#F3F5F8" stroke="#4F5C65"/>
<path d="M14.9324 28.7838V24.7362C14.9324 23.7884 14.1641 23.02 13.2162 23.02C12.2684 23.02 11.5 23.7884 11.5 24.7362V28.7838C11.5 29.7316 12.2684 30.5 13.2162 30.5C14.1641 30.5 14.9324 29.7316 14.9324 28.7838Z" fill="white" stroke="#4F5C65"/>
<path d="M18.8245 28.7836V21.8561C18.8245 20.9083 18.0561 20.1399 17.1083 20.1399C16.1605 20.1399 15.3921 20.9083 15.3921 21.8561V28.7836C15.3921 29.7315 16.1605 30.4998 17.1083 30.4998C18.0561 30.4998 18.8245 29.7315 18.8245 28.7836Z" fill="white" stroke="#4F5C65"/>
<path d="M22.7161 28.7836V16.0961C22.7161 15.1483 21.9477 14.3799 20.9999 14.3799C20.0521 14.3799 19.2837 15.1483 19.2837 16.0961V28.7836C19.2837 29.7314 20.0521 30.4998 20.9999 30.4998C21.9477 30.4998 22.7161 29.7314 22.7161 28.7836Z" fill="white" stroke="#4F5C65"/>
<path d="M26.6082 28.7838V18.2563C26.6082 17.3084 25.8398 16.54 24.892 16.54C23.9442 16.54 23.1758 17.3084 23.1758 18.2563V28.7838C23.1758 29.7316 23.9442 30.5 24.892 30.5C25.8398 30.5 26.6082 29.7316 26.6082 28.7838Z" fill="white" stroke="#4F5C65"/>
<path d="M30.4998 28.7837V13.2162C30.4998 12.2684 29.7314 11.5 28.7836 11.5C27.8358 11.5 27.0674 12.2684 27.0674 13.2162V28.7837C27.0674 29.7315 27.8358 30.4999 28.7836 30.4999C29.7314 30.4999 30.4998 29.7315 30.4998 28.7837Z" fill="white" stroke="#4F5C65"/>
</svg>
