<svg width="30" height="30" viewBox="0 0 30 30" fill="none" xmlns="http://www.w3.org/2000/svg">
<rect width="30" height="30" rx="8" fill="#1476FF"/>
<path d="M21.604 8.39799C21.3832 8.17821 21.1212 8.00434 20.8329 7.88643C20.5446 7.76851 20.2358 7.70888 19.9243 7.71099C19.6128 7.7131 19.3048 7.7769 19.0182 7.89871C18.7315 8.02052 18.4718 8.19792 18.2541 8.42067L8.85879 17.816L7.71191 22.29L12.186 21.1425L21.5813 11.7472C21.8041 11.5296 21.9816 11.27 22.1034 10.9834C22.2253 10.6967 22.2891 10.3888 22.2912 10.0773C22.2933 9.7659 22.2336 9.45713 22.1157 9.16888C21.9977 8.88062 21.8238 8.61861 21.604 8.39799V8.39799Z" stroke="white" stroke-width="1.4" stroke-linecap="round" stroke-linejoin="round"/>
</svg>
