<svg width="72" height="72" viewBox="0 0 72 72" fill="none" xmlns="http://www.w3.org/2000/svg">
<rect width="72" height="72" rx="16" fill="#FFF7E8"/>
<path fill-rule="evenodd" clip-rule="evenodd" d="M20.0969 27.5627C20.0969 20.6289 26.5203 13.1914 35.9999 13.1914C45.4795 13.1914 51.9028 20.6289 51.9028 27.5627C51.9028 29.2381 52.1159 30.3922 52.3976 31.2654C52.6806 32.1425 53.0576 32.8193 53.5122 33.5802C53.5585 33.6577 53.6064 33.7373 53.6556 33.8189C54.0728 34.5119 54.579 35.3525 54.9646 36.3614C55.4126 37.5339 55.6877 38.8856 55.6877 40.6214C55.6877 40.6791 55.6852 40.7367 55.6802 40.7942C55.5233 42.6032 54.9827 44.2184 53.9353 45.5731C52.8935 46.9207 51.4647 47.8625 49.7771 48.5234C46.4983 49.8075 41.8602 50.1691 35.9999 50.1691C30.1426 50.1691 25.5046 49.8134 22.2258 48.5326C20.5375 47.8731 19.1078 46.9318 18.0652 45.5822C17.0173 44.2258 16.4769 42.6076 16.3195 40.7943C16.3145 40.7368 16.312 40.6791 16.312 40.6214C16.312 38.8856 16.5871 37.5339 17.0352 36.3614C17.4207 35.3525 17.9269 34.5119 18.3442 33.8189C18.3933 33.7373 18.4412 33.6577 18.4875 33.5802C18.9421 32.8193 19.3192 32.1425 19.6021 31.2654C19.8839 30.3922 20.0969 29.2381 20.0969 27.5627ZM35.9999 17.1914C28.6438 17.1914 24.0969 22.9226 24.0969 27.5627C24.0969 29.5917 23.8368 31.1674 23.4089 32.4937C22.9822 33.8162 22.413 34.8089 21.9214 35.6317C21.8736 35.7117 21.8271 35.7892 21.7818 35.8647C21.3469 36.5903 21.024 37.1289 20.7716 37.7894C20.5161 38.4581 20.3212 39.2983 20.3123 40.5334C20.4261 41.7069 20.7572 42.524 21.2306 43.1368C21.7206 43.771 22.48 44.3375 23.6813 44.8068C26.1817 45.7836 30.1244 46.1691 35.9999 46.1691C41.8743 46.1691 45.818 45.7781 48.3184 44.7989C49.5203 44.3282 50.2805 43.7606 50.7707 43.1266C51.244 42.5143 51.5742 41.7 51.6874 40.5333C51.6786 39.2983 51.4837 38.4581 51.2281 37.7894C50.9757 37.1289 50.6528 36.5903 50.2179 35.8648C50.1726 35.7892 50.1261 35.7117 50.0784 35.6317C49.5867 34.8089 49.0175 33.8162 48.5908 32.4937C48.1629 31.1674 47.9028 29.5917 47.9028 27.5627C47.9028 22.9226 43.3559 17.1914 35.9999 17.1914Z" fill="#FFB016"/>
<path fill-rule="evenodd" clip-rule="evenodd" d="M29.5015 52.9459C30.3231 52.2077 31.5876 52.2753 32.3259 53.0969C34.3893 55.3933 37.4328 55.3737 39.4848 53.0952C40.224 52.2744 41.4886 52.2083 42.3093 52.9475C43.1301 53.6866 43.1963 54.9512 42.4571 55.772C38.8318 59.7975 33.0187 59.8527 29.3506 55.7703C28.6123 54.9487 28.6799 53.6842 29.5015 52.9459Z" fill="#FFB016"/>
</svg>
