<svg width="30" height="30" viewBox="0 0 30 30" fill="none" xmlns="http://www.w3.org/2000/svg">
<rect width="30" height="30" rx="8" fill="#1476FF"/>
<path fill-rule="evenodd" clip-rule="evenodd" d="M22.4122 11.3386L21.8779 10.4114C21.4259 9.62693 20.4242 9.35629 19.6386 9.80643V9.80643C19.2647 10.0267 18.8185 10.0892 18.3984 9.98014C17.9783 9.87107 17.6189 9.59938 17.3993 9.225C17.2581 8.98703 17.1822 8.71599 17.1793 8.43929V8.43929C17.1921 7.99565 17.0247 7.56575 16.7154 7.24752C16.406 6.92928 15.981 6.74982 15.5372 6.75H14.4608C14.026 6.75 13.6091 6.92326 13.3024 7.23145C12.9957 7.53964 12.8244 7.95734 12.8265 8.39214V8.39214C12.8136 9.28986 12.0821 10.0108 11.1843 10.0107C10.9076 10.0078 10.6366 9.93195 10.3986 9.79071V9.79071C9.61305 9.34058 8.61135 9.61121 8.15934 10.3957L7.58577 11.3386C7.13431 12.1221 7.40126 13.1232 8.18292 13.5779V13.5779C8.691 13.8712 9.004 14.4133 9.004 15C9.004 15.5867 8.691 16.1288 8.18292 16.4221V16.4221C7.40226 16.8738 7.13501 17.8724 7.58577 18.6536V18.6536L8.12792 19.5886C8.3397 19.9707 8.69504 20.2527 9.1153 20.3721C9.53556 20.4916 9.98609 20.4386 10.3672 20.225V20.225C10.7419 20.0064 11.1883 19.9465 11.6073 20.0586C12.0264 20.1708 12.3832 20.4456 12.5986 20.8221C12.7399 21.0601 12.8158 21.3312 12.8186 21.6079V21.6079C12.8186 22.5148 13.5538 23.25 14.4608 23.25H15.5372C16.4411 23.25 17.175 22.5196 17.1793 21.6157V21.6157C17.1772 21.1796 17.3496 20.7606 17.658 20.4522C17.9664 20.1438 18.3853 19.9715 18.8215 19.9736C19.0975 19.981 19.3675 20.0565 19.6072 20.1936V20.1936C20.3907 20.645 21.3918 20.3781 21.8465 19.5964V19.5964L22.4122 18.6536C22.6312 18.2777 22.6913 17.8301 22.5792 17.4098C22.4671 16.9895 22.1921 16.6312 21.8151 16.4143V16.4143C21.438 16.1974 21.163 15.8391 21.0509 15.4188C20.9388 14.9985 20.9989 14.5509 21.2179 14.175C21.3603 13.9264 21.5664 13.7203 21.8151 13.5779V13.5779C22.592 13.1234 22.8584 12.1282 22.4122 11.3464V11.3464V11.3386Z" stroke="white" stroke-width="1.2" stroke-linecap="round" stroke-linejoin="round"/>
<circle cx="15.0031" cy="15.0002" r="2.26286" stroke="white" stroke-width="1.2" stroke-linecap="round" stroke-linejoin="round"/>
</svg>
