<svg width="48" height="48" viewBox="0 0 48 48" fill="none" xmlns="http://www.w3.org/2000/svg">
<g clip-path="url(#clip0_2485_57794)">
<path d="M47.2795 29.8057C44.074 42.663 31.0518 50.4877 18.193 47.2815C5.33952 44.076 -2.48523 31.053 0.721775 18.1965C3.92578 5.33771 16.948 -2.48779 29.803 0.717709C42.661 3.92321 50.485 16.9477 47.2795 29.8057Z" fill="#F7931A"/>
<path d="M34.5812 20.581C35.0589 17.3875 32.6274 15.6708 29.3027 14.5255L30.3812 10.1995L27.7479 9.54329L26.6979 13.7553C26.0057 13.5828 25.2947 13.42 24.5882 13.2588L25.6457 9.01904L23.0139 8.36279L21.9347 12.6873C21.3617 12.5568 20.7992 12.4278 20.2532 12.292L20.2562 12.2785L16.6247 11.3718L15.9242 14.1843C15.9242 14.1843 17.8779 14.632 17.8367 14.6598C18.9032 14.926 19.0959 15.6318 19.0637 16.1913L17.8352 21.1195C17.9087 21.1383 18.0039 21.1653 18.1089 21.2073C18.0212 21.1855 17.9274 21.1615 17.8307 21.1383L16.1087 28.042C15.9782 28.366 15.6474 28.852 14.9019 28.6675C14.9282 28.7058 12.9879 28.1898 12.9879 28.1898L11.6807 31.204L15.1074 32.0583C15.7449 32.218 16.3697 32.3853 16.9847 32.5428L15.8949 36.9183L18.5252 37.5745L19.6044 33.2455C20.3229 33.4405 21.0204 33.6205 21.7029 33.79L20.6274 38.0988L23.2607 38.755L24.3504 34.3878C28.8407 35.2375 32.2172 34.8948 33.6384 30.8335C34.7837 27.5635 33.5814 25.6773 31.2189 24.4473C32.9394 24.0505 34.2354 22.9188 34.5812 20.581V20.581ZM28.5647 29.0178C27.7509 32.2878 22.2452 30.52 20.4602 30.0768L21.9062 24.28C23.6912 24.7255 29.4152 25.6075 28.5647 29.0178ZM29.3792 20.5338C28.6367 23.5083 24.0542 21.997 22.5677 21.6265L23.8787 16.369C25.3652 16.7395 30.1524 17.431 29.3792 20.5338V20.5338Z" fill="white"/>
</g>
<defs>
<clipPath id="clip0_2485_57794">
<rect width="48" height="48" fill="white"/>
</clipPath>
</defs>
</svg>
