<svg width="48" height="48" viewBox="0 0 48 48" fill="none" xmlns="http://www.w3.org/2000/svg">
<g clip-path="url(#clip0_2485_57839)">
<path d="M47.2812 29.8066C44.0753 42.6651 31.0518 50.4906 18.1918 47.2841C5.33711 44.0783 -2.48839 31.054 0.718915 18.1963C3.92322 5.33627 16.9467 -2.48998 29.803 0.715825C42.6622 3.92163 50.487 16.9474 47.2812 29.8066Z" fill="#F3BA2F"/>
<path fill-rule="evenodd" clip-rule="evenodd" d="M18.4663 21.7929L24.0022 16.2594L29.5404 21.7974L32.7597 18.5759L24.0022 9.81641L15.2447 18.5737L18.4663 21.7929ZM9.74805 24.0685L12.9685 20.8482L16.1889 24.0685L12.9685 27.2888L9.74805 24.0685ZM24.0031 31.878L18.4671 26.3422L15.241 29.5592L15.2455 29.5637L24.0031 38.3187L32.7606 29.5592L32.7628 29.557L29.5412 26.34L24.0031 31.878ZM31.81 24.0692L35.0304 20.8489L38.2508 24.0692L35.0304 27.2896L31.81 24.0692ZM24.0022 20.7979L27.2688 24.0667H27.2711L27.2688 24.069L24.0022 27.3377L20.7355 24.0735L20.731 24.0667L20.7355 24.0622L21.3074 23.4904L21.5865 23.2135L24.0022 20.7979Z" fill="white"/>
</g>
<defs>
<clipPath id="clip0_2485_57839">
<rect width="48" height="48" fill="white"/>
</clipPath>
</defs>
</svg>
