<svg width="48" height="48" viewBox="0 0 48 48" fill="none" xmlns="http://www.w3.org/2000/svg">
<g clip-path="url(#clip0_2485_57851)">
<path d="M47.2821 29.8067C44.0762 42.6655 31.0525 50.4912 18.1922 47.2845C5.33722 44.0787 -2.48845 31.0541 0.718929 18.1961C3.9233 5.33589 16.9471 -2.49052 29.8036 0.715351C42.6631 3.92123 50.488 16.9472 47.2821 29.8067Z" fill="#F7F9FC"/>
<path d="M16.1173 23.6313C16.0832 24.2531 16.2969 24.8631 16.7115 25.3277C17.1261 25.7924 17.7079 26.0739 18.3296 26.1106C18.3752 26.1106 18.4226 26.1106 18.4654 26.1106C18.9246 26.1103 19.3737 25.9754 19.7571 25.7227C20.1404 25.4699 20.4414 25.1104 20.6227 24.6885C20.804 24.2667 20.8578 23.8009 20.7773 23.3488C20.6968 22.8967 20.4857 22.4781 20.1699 22.1447C19.8542 21.8113 19.4476 21.5777 19.0006 21.4728C18.5535 21.3679 18.0855 21.3963 17.6544 21.5544C17.2233 21.7125 16.848 21.9935 16.5748 22.3626C16.3016 22.7317 16.1426 23.1728 16.1173 23.6313V23.6313Z" fill="#0033AD"/>
<path d="M7.35828 23.0266C7.2084 23.0182 7.05939 23.0544 6.93009 23.1307C6.80078 23.2069 6.697 23.3198 6.63185 23.4551C6.5667 23.5903 6.54312 23.7419 6.56407 23.8905C6.58503 24.0392 6.64959 24.1783 6.74959 24.2902C6.84959 24.4022 6.98054 24.482 7.12589 24.5195C7.27124 24.5571 7.42445 24.5507 7.56617 24.5012C7.70789 24.4517 7.83175 24.3612 7.92208 24.2413C8.01242 24.1215 8.06518 23.9775 8.07369 23.8276C8.07947 23.728 8.06554 23.6282 8.03269 23.534C7.99984 23.4398 7.94872 23.353 7.88225 23.2786C7.81579 23.2042 7.7353 23.1436 7.64538 23.1004C7.55547 23.0571 7.4579 23.032 7.35828 23.0266Z" fill="#0033AD"/>
<path d="M15.9674 9.99519C16.101 9.92717 16.2114 9.82111 16.2848 9.69039C16.3582 9.55967 16.3913 9.41015 16.3798 9.26067C16.3684 9.11119 16.3129 8.96846 16.2204 8.85046C16.128 8.73246 16.0026 8.64448 15.8602 8.59761C15.7178 8.55075 15.5647 8.5471 15.4202 8.58712C15.2758 8.62715 15.1464 8.70905 15.0484 8.82251C14.9504 8.93597 14.8882 9.0759 14.8696 9.22466C14.851 9.37342 14.8769 9.52435 14.944 9.65842C14.989 9.7478 15.0512 9.82743 15.127 9.89274C15.2028 9.95806 15.2908 10.0078 15.3858 10.0391C15.4809 10.0703 15.5812 10.0826 15.681 10.075C15.7808 10.0675 15.8781 10.0404 15.9674 9.99519Z" fill="#0033AD"/>
<path d="M18.3497 14.1513C18.5568 14.0469 18.7284 13.8834 18.8426 13.6815C18.9568 13.4795 19.0087 13.2483 18.9915 13.0169C18.9743 12.7856 18.8889 12.5645 18.7461 12.3817C18.6033 12.1988 18.4095 12.0625 18.1892 11.9898C17.9689 11.9171 17.732 11.9113 17.5084 11.9732C17.2848 12.0352 17.0846 12.162 16.9331 12.3377C16.7816 12.5134 16.6856 12.7301 16.6572 12.9603C16.6289 13.1906 16.6694 13.4241 16.7737 13.6313C16.9139 13.9091 17.1586 14.12 17.4541 14.2175C17.7496 14.315 18.0717 14.2912 18.3497 14.1513V14.1513Z" fill="#0033AD"/>
<path d="M10.3309 17.0095C10.4909 17.1143 10.6783 17.1693 10.8695 17.1675C11.0606 17.1658 11.247 17.1074 11.405 16.9997C11.563 16.892 11.6855 16.7399 11.757 16.5626C11.8286 16.3853 11.8459 16.1907 11.8069 16.0036C11.7678 15.8164 11.6741 15.645 11.5377 15.5111C11.4012 15.3772 11.2281 15.2867 11.0402 15.2512C10.8524 15.2157 10.6582 15.2367 10.4822 15.3115C10.3063 15.3864 10.1565 15.5117 10.0518 15.6717C9.91151 15.8861 9.86208 16.1475 9.91442 16.3984C9.96675 16.6492 10.1166 16.8691 10.3309 17.0095V17.0095Z" fill="#0033AD"/>
<path d="M11.7606 22.6074C11.5287 22.5941 11.2981 22.6499 11.098 22.7678C10.8978 22.8856 10.7371 23.0601 10.6362 23.2693C10.5353 23.4784 10.4986 23.7128 10.5309 23.9428C10.5632 24.1728 10.663 24.3881 10.8177 24.5613C10.9723 24.7346 11.1749 24.8581 11.3998 24.9162C11.6246 24.9743 11.8616 24.9645 12.0809 24.8879C12.3001 24.8112 12.4917 24.6713 12.6314 24.4858C12.7712 24.3003 12.8527 24.0775 12.8658 23.8456C12.8833 23.5349 12.7767 23.2299 12.5695 22.9977C12.3622 22.7655 12.0713 22.6251 11.7606 22.6074V22.6074Z" fill="#0033AD"/>
<path d="M10.4639 30.4892C10.2932 30.5752 10.1518 30.7099 10.0576 30.8763C9.96337 31.0427 9.92064 31.2333 9.93478 31.424C9.94891 31.6146 10.0193 31.7968 10.137 31.9475C10.2547 32.0982 10.4144 32.2106 10.596 32.2705C10.7776 32.3303 10.9729 32.335 11.1571 32.2839C11.3414 32.2328 11.5063 32.1282 11.6311 31.9833C11.7559 31.8385 11.8349 31.6598 11.8581 31.4701C11.8814 31.2803 11.8479 31.0879 11.7617 30.9171C11.7048 30.8037 11.626 30.7026 11.5299 30.6196C11.4338 30.5367 11.3222 30.4735 11.2017 30.4338C11.0811 30.394 10.9539 30.3785 10.8273 30.388C10.7007 30.3975 10.5772 30.4319 10.4639 30.4892V30.4892Z" fill="#0033AD"/>
<path d="M15.0213 20.1786C15.2496 20.3284 15.5172 20.407 15.7903 20.4047C16.0633 20.4023 16.3295 20.3191 16.5552 20.1654C16.7809 20.0118 16.956 19.7947 17.0584 19.5416C17.1607 19.2884 17.1857 19.0106 17.1301 18.7433C17.0746 18.4759 16.941 18.2311 16.7463 18.0397C16.5516 17.8482 16.3045 17.7188 16.0363 17.6678C15.768 17.6169 15.4907 17.6465 15.2393 17.7532C14.988 17.8598 14.7738 18.0385 14.6241 18.2668C14.5245 18.4184 14.4558 18.5881 14.4218 18.7663C14.3879 18.9444 14.3894 19.1275 14.4263 19.3051C14.4632 19.4827 14.5348 19.6512 14.6368 19.8011C14.7389 19.951 14.8696 20.0793 15.0213 20.1786Z" fill="#0033AD"/>
<path d="M29.4868 14.058C29.6809 14.1854 29.9085 14.2524 30.1408 14.2504C30.373 14.2485 30.5994 14.1777 30.7914 14.0471C30.9834 13.9164 31.1324 13.7318 31.2194 13.5165C31.3065 13.3012 31.3277 13.0649 31.2805 12.8376C31.2332 12.6102 31.1196 12.4019 30.954 12.2391C30.7884 12.0763 30.5782 11.9663 30.35 11.923C30.1219 11.8796 29.886 11.9049 29.6722 11.9957C29.4585 12.0864 29.2764 12.2385 29.1491 12.4327C29.0645 12.5616 29.0061 12.7058 28.9772 12.8573C28.9484 13.0087 28.9497 13.1644 28.9811 13.3153C29.0124 13.4663 29.0732 13.6096 29.16 13.737C29.2468 13.8644 29.3578 13.9735 29.4868 14.058Z" fill="#0033AD"/>
<path d="M31.8937 9.91581C32.0193 9.99799 32.1664 10.0411 32.3165 10.0397C32.4665 10.0383 32.6128 9.99249 32.7369 9.90799C32.8609 9.82349 32.9571 9.70412 33.0133 9.56497C33.0695 9.42582 33.0832 9.27313 33.0527 9.12619C33.0222 8.97925 32.9488 8.84465 32.8418 8.73941C32.7348 8.63417 32.599 8.56301 32.4516 8.53491C32.3041 8.50681 32.1517 8.52304 32.0135 8.58155C31.8753 8.64005 31.7575 8.73821 31.6751 8.86362C31.6202 8.94703 31.5824 9.04044 31.5637 9.13849C31.545 9.23655 31.5459 9.33733 31.5662 9.43506C31.5865 9.53279 31.6259 9.62556 31.6821 9.70805C31.7383 9.79054 31.8102 9.86114 31.8937 9.91581V9.91581Z" fill="#0033AD"/>
<path d="M29.6711 21.3895C29.3631 21.372 29.0547 21.4153 28.7634 21.517C28.4722 21.6186 28.2038 21.7767 27.9736 21.9821C27.7434 22.1875 27.5559 22.4362 27.4219 22.714C27.2878 22.9918 27.2098 23.2934 27.1923 23.6014C27.1747 23.9094 27.218 24.2178 27.3197 24.509C27.4214 24.8003 27.5794 25.0687 27.7848 25.2989C27.9902 25.529 28.2389 25.7165 28.5167 25.8506C28.7946 25.9846 29.0961 26.0627 29.4041 26.0802C29.4497 26.0802 29.4971 26.0802 29.539 26.0802C30.1505 26.0802 30.738 25.8417 31.1764 25.4153C31.6149 24.989 31.8698 24.4085 31.887 23.7972C31.9042 23.1859 31.6824 22.592 31.2686 22.1417C30.8548 21.6914 30.2817 21.4202 29.6711 21.3858V21.3895Z" fill="#0033AD"/>
<path d="M19.1244 20.0158C19.3195 20.4048 19.6193 20.7316 19.9901 20.9595C20.361 21.1873 20.788 21.307 21.2232 21.3052C21.6243 21.3051 22.0186 21.2023 22.3687 21.0067C22.7188 20.811 23.013 20.529 23.2232 20.1875C23.4334 19.8459 23.5527 19.4562 23.5697 19.0555C23.5866 18.6548 23.5007 18.2565 23.3201 17.8984C23.0397 17.342 22.5498 16.9198 21.9581 16.7246C21.3664 16.5295 20.7214 16.5774 20.165 16.8578C19.6086 17.1382 19.1864 17.6282 18.9912 18.2199C18.7961 18.8116 18.844 19.4566 19.1244 20.013V20.0158Z" fill="#0033AD"/>
<path d="M37.5369 17.0067C37.7071 16.9201 37.8478 16.785 37.9413 16.6186C38.0347 16.4521 38.0768 16.2616 38.0622 16.0712C38.0476 15.8809 37.9769 15.6991 37.8591 15.5488C37.7412 15.3986 37.5816 15.2866 37.4002 15.227C37.2188 15.1674 37.0238 15.1629 36.8398 15.214C36.6558 15.265 36.4911 15.3695 36.3664 15.5141C36.2417 15.6587 36.1627 15.837 36.1392 16.0264C36.1157 16.2159 36.1489 16.4081 36.2345 16.5788C36.2917 16.6926 36.3708 16.7939 36.4674 16.8771C36.5639 16.9602 36.6758 17.0235 36.7968 17.0632C36.9178 17.103 37.0455 17.1185 37.1725 17.1088C37.2995 17.0991 37.4234 17.0644 37.5369 17.0067V17.0067Z" fill="#0033AD"/>
<path d="M31.5821 17.7547C31.3383 17.8777 31.1365 18.0701 31.0021 18.3077C30.8677 18.5454 30.8068 18.8175 30.827 19.0897C30.8473 19.362 30.9478 19.6221 31.1158 19.8373C31.2839 20.0524 31.512 20.2129 31.7712 20.2984C32.0304 20.384 32.3092 20.3907 32.5723 20.3179C32.8354 20.245 33.071 20.0958 33.2493 19.8891C33.4276 19.6823 33.5406 19.4274 33.574 19.1564C33.6075 18.8855 33.5598 18.6107 33.4371 18.3669C33.2721 18.0399 32.984 17.7918 32.6362 17.6771C32.2884 17.5623 31.9093 17.5902 31.5821 17.7547V17.7547Z" fill="#0033AD"/>
<path d="M23.9116 9.56108C24.1023 9.57176 24.2919 9.52571 24.4564 9.42873C24.621 9.33176 24.7531 9.18821 24.8362 9.01621C24.9192 8.8442 24.9494 8.65146 24.923 8.4623C24.8966 8.27314 24.8147 8.09604 24.6877 7.95337C24.5607 7.8107 24.3943 7.70884 24.2095 7.66066C24.0247 7.61248 23.8298 7.62013 23.6493 7.68264C23.4688 7.74516 23.3109 7.85975 23.1955 8.01193C23.0801 8.16412 23.0123 8.34708 23.0008 8.53773C22.993 8.66481 23.0105 8.79219 23.0521 8.91252C23.0937 9.03285 23.1587 9.14376 23.2433 9.23887C23.328 9.33398 23.4306 9.41141 23.5453 9.46671C23.66 9.52201 23.7845 9.55408 23.9116 9.56108V9.56108Z" fill="#0033AD"/>
<path d="M23.8994 15.6429C24.1719 15.6579 24.4428 15.5918 24.6778 15.4529C24.9128 15.314 25.1013 15.1086 25.2196 14.8626C25.3378 14.6166 25.3805 14.3411 25.3423 14.0708C25.304 13.8006 25.1865 13.5477 25.0046 13.3442C24.8226 13.1407 24.5845 12.9957 24.3202 12.9276C24.0559 12.8594 23.7773 12.8711 23.5197 12.9611C23.262 13.0512 23.0368 13.2157 22.8726 13.4337C22.7084 13.6517 22.6124 13.9135 22.597 14.186C22.5866 14.3672 22.6122 14.5487 22.6721 14.72C22.732 14.8914 22.8251 15.0492 22.9461 15.1845C23.067 15.3198 23.2135 15.43 23.3771 15.5086C23.5407 15.5873 23.7182 15.6329 23.8994 15.6429V15.6429Z" fill="#0033AD"/>
<path d="M16.4186 29.7411C16.6625 29.6182 16.8644 29.4259 16.999 29.1883C17.1335 28.9506 17.1946 28.6785 17.1744 28.4062C17.1543 28.1339 17.0538 27.8737 16.8858 27.6584C16.7178 27.4432 16.4897 27.2826 16.2304 27.197C15.9711 27.1114 15.6923 27.1046 15.4291 27.1775C15.166 27.2504 14.9304 27.3996 14.7521 27.6064C14.5737 27.8132 14.4607 28.0682 14.4274 28.3392C14.394 28.6102 14.4417 28.885 14.5645 29.1289C14.7293 29.4558 15.0172 29.7039 15.3649 29.8186C15.7125 29.9334 16.0915 29.9055 16.4186 29.7411V29.7411Z" fill="#0033AD"/>
<path d="M24.7917 17.6577C24.5059 18.0944 24.3739 18.614 24.4165 19.1342C24.4592 19.6544 24.6741 20.1456 25.0273 20.5299C25.3804 20.9143 25.8517 21.1699 26.3664 21.2563C26.8811 21.3427 27.41 21.2551 27.8693 21.0072C28.3287 20.7592 28.6922 20.3652 28.9025 19.8875C29.1127 19.4098 29.1576 18.8756 29.0302 18.3694C28.9027 17.8633 28.6101 17.4141 28.1986 17.0929C27.7872 16.7718 27.2804 16.597 26.7584 16.5962C26.3683 16.5961 25.9842 16.6931 25.6409 16.8784C25.2976 17.0637 25.0058 17.3315 24.7917 17.6577Z" fill="#0033AD"/>
<path d="M28.8771 27.4797C28.6681 27.0645 28.3406 26.7206 27.936 26.4916C27.5315 26.2625 27.0681 26.1586 26.6045 26.193C26.1409 26.2273 25.6979 26.3984 25.3315 26.6846C24.9652 26.9708 24.692 27.3592 24.5464 27.8007C24.4008 28.2422 24.3895 28.7169 24.5138 29.1649C24.6381 29.6128 24.8925 30.0139 25.2448 30.3172C25.597 30.6206 26.0313 30.8126 26.4928 30.8691C26.9542 30.9255 27.422 30.8439 27.8371 30.6344C28.1137 30.4969 28.3603 30.3058 28.5626 30.0723C28.7648 29.8388 28.9188 29.5675 29.0155 29.2741C29.1123 28.9807 29.1498 28.6711 29.1261 28.3631C29.1023 28.055 29.0177 27.7548 28.8771 27.4797V27.4797Z" fill="#0033AD"/>
<path d="M32.9761 27.3169C32.7477 27.1672 32.4801 27.0885 32.2071 27.0909C31.9341 27.0932 31.6679 27.1765 31.4421 27.3301C31.2164 27.4837 31.0413 27.7009 30.939 27.954C30.8367 28.2071 30.8117 28.4849 30.8673 28.7523C30.9228 29.0196 31.0564 29.2645 31.2511 29.4559C31.4458 29.6473 31.6929 29.7767 31.9611 29.8277C32.2293 29.8787 32.5067 29.849 32.7581 29.7424C33.0094 29.6358 33.2235 29.457 33.3733 29.2287C33.4728 29.0771 33.5414 28.9074 33.5753 28.7293C33.6091 28.5511 33.6076 28.3681 33.5707 28.1905C33.5338 28.013 33.4623 27.8445 33.3603 27.6946C33.2582 27.5447 33.1277 27.4164 32.9761 27.3169V27.3169Z" fill="#0033AD"/>
<path d="M37.478 23.7874C37.4913 23.5556 37.4355 23.325 37.3177 23.1248C37.1998 22.9247 37.0253 22.764 36.8161 22.6631C36.607 22.5621 36.3726 22.5255 36.1426 22.5578C35.9126 22.5901 35.6974 22.6899 35.5241 22.8445C35.3508 22.9992 35.2273 23.2018 35.1692 23.4266C35.1111 23.6515 35.1209 23.8885 35.1976 24.1077C35.2742 24.327 35.4141 24.5186 35.5996 24.6583C35.7851 24.798 36.0079 24.8796 36.2398 24.8926C36.5505 24.9102 36.8555 24.8036 37.0877 24.5963C37.3199 24.3891 37.4603 24.0981 37.478 23.7874V23.7874Z" fill="#0033AD"/>
<path d="M40.7274 22.9533C40.5775 22.9449 40.4285 22.9812 40.2992 23.0574C40.1699 23.1337 40.0661 23.2466 40.001 23.3818C39.9358 23.5171 39.9123 23.6686 39.9332 23.8173C39.9542 23.9659 40.0187 24.105 40.1187 24.217C40.2187 24.3289 40.3497 24.4087 40.495 24.4463C40.6404 24.4838 40.7936 24.4775 40.9353 24.4279C41.077 24.3784 41.2009 24.288 41.2912 24.1681C41.3816 24.0482 41.4343 23.9042 41.4428 23.7543C41.454 23.5533 41.385 23.356 41.2508 23.2059C41.1167 23.0557 40.9284 22.9649 40.7274 22.9533Z" fill="#0033AD"/>
<path d="M37.6678 30.4859C37.5078 30.3813 37.3204 30.3264 37.1293 30.3282C36.9382 30.33 36.7519 30.3884 36.5939 30.4961C36.436 30.6038 36.3136 30.7559 36.2421 30.9331C36.1706 31.1104 36.1532 31.3049 36.1922 31.492C36.2312 31.6791 36.3248 31.8505 36.4612 31.9844C36.5976 32.1183 36.7706 32.2088 36.9584 32.2444C37.1462 32.28 37.3404 32.2591 37.5163 32.1844C37.6922 32.1097 37.8421 31.9845 37.9469 31.8246C38.0165 31.7184 38.0645 31.5995 38.0882 31.4748C38.1118 31.35 38.1106 31.2218 38.0847 31.0974C38.0588 30.9731 38.0086 30.8551 37.9371 30.7502C37.8656 30.6453 37.774 30.5555 37.6678 30.4859V30.4859Z" fill="#0033AD"/>
<path d="M16.1051 37.5802C15.9797 37.4978 15.8325 37.4544 15.6824 37.4556C15.5323 37.4568 15.3858 37.5024 15.2617 37.5868C15.1375 37.6712 15.0411 37.7905 14.9847 37.9297C14.9284 38.0689 14.9145 38.2216 14.945 38.3686C14.9754 38.5157 15.0488 38.6504 15.1558 38.7557C15.2628 38.861 15.3986 38.9323 15.5461 38.9604C15.6936 38.9885 15.8461 38.9723 15.9843 38.9137C16.1226 38.8552 16.2404 38.757 16.3228 38.6315C16.4331 38.4631 16.4721 38.2579 16.4313 38.0608C16.3905 37.8638 16.2732 37.6909 16.1051 37.5802V37.5802Z" fill="#0033AD"/>
<path d="M32.0319 37.5001C31.8983 37.5682 31.7878 37.6742 31.7144 37.8049C31.641 37.9356 31.6079 38.0852 31.6194 38.2347C31.6309 38.3841 31.6863 38.5269 31.7788 38.6449C31.8713 38.7629 31.9966 38.8508 32.139 38.8977C32.2814 38.9446 32.4345 38.9482 32.579 38.9082C32.7235 38.8682 32.8529 38.7863 32.9508 38.6728C33.0488 38.5594 33.111 38.4194 33.1296 38.2707C33.1482 38.1219 33.1223 37.971 33.0552 37.8369C33.0104 37.7474 32.9483 37.6675 32.8725 37.6021C32.7967 37.5366 32.7088 37.4868 32.6136 37.4555C32.5185 37.4242 32.4181 37.412 32.3183 37.4197C32.2184 37.4274 32.1211 37.4547 32.0319 37.5001V37.5001Z" fill="#0033AD"/>
<path d="M23.2088 29.8378C23.4953 29.4006 23.6278 28.8803 23.5853 28.3593C23.5429 27.8384 23.3278 27.3464 22.9743 26.9614C22.6208 26.5764 22.1489 26.3203 21.6335 26.2337C21.118 26.147 20.5883 26.2348 20.1283 26.4831C19.6684 26.7313 19.3043 27.1259 19.0939 27.6044C18.8834 28.0828 18.8385 28.6178 18.9663 29.1247C19.0942 29.6315 19.3874 30.0812 19.7996 30.4026C20.2118 30.7241 20.7194 30.8988 21.2421 30.8993C21.6325 30.9009 22.0171 30.8045 22.3607 30.6191C22.7043 30.4336 22.9959 30.165 23.2088 29.8378V29.8378Z" fill="#0033AD"/>
<path d="M18.514 33.4376C18.3199 33.3102 18.0923 33.2432 17.8601 33.2452C17.6278 33.2471 17.4014 33.3179 17.2094 33.4485C17.0174 33.5791 16.8685 33.7638 16.7814 33.9791C16.6944 34.1944 16.6731 34.4306 16.7204 34.658C16.7676 34.8854 16.8812 35.0937 17.0468 35.2565C17.2124 35.4192 17.4226 35.5293 17.6508 35.5726C17.8789 35.6159 18.1148 35.5906 18.3286 35.4999C18.5423 35.4092 18.7244 35.2571 18.8517 35.0629C19.0224 34.8025 19.0827 34.4851 19.0194 34.1803C18.956 33.8756 18.7743 33.6084 18.514 33.4376V33.4376Z" fill="#0033AD"/>
<path d="M23.9884 37.9342C23.7977 37.9233 23.608 37.9692 23.4433 38.0661C23.2787 38.1629 23.1464 38.3064 23.0632 38.4784C22.9801 38.6503 22.9497 38.8431 22.976 39.0323C23.0023 39.2215 23.0841 39.3987 23.211 39.5415C23.338 39.6842 23.5043 39.7862 23.6892 39.8345C23.874 39.8827 24.069 39.8751 24.2495 39.8127C24.4301 39.7502 24.588 39.6356 24.7035 39.4834C24.8189 39.3312 24.8867 39.1482 24.8982 38.9575C24.9059 38.8305 24.8884 38.7033 24.8468 38.5831C24.8052 38.4629 24.7403 38.352 24.6558 38.257C24.5712 38.1619 24.4688 38.0844 24.3542 38.029C24.2397 37.9737 24.1154 37.9414 23.9884 37.9342V37.9342Z" fill="#0033AD"/>
<path d="M23.998 31.8527C23.7255 31.8377 23.4546 31.9038 23.2197 32.0426C22.9847 32.1815 22.7962 32.3868 22.6779 32.6328C22.5596 32.8787 22.5169 33.1542 22.5551 33.4244C22.5933 33.6946 22.7107 33.9475 22.8926 34.151C23.0744 34.3545 23.3124 34.4996 23.5767 34.5679C23.8409 34.6361 24.1194 34.6246 24.3771 34.5346C24.6348 34.4447 24.86 34.2804 25.0243 34.0625C25.1887 33.8446 25.2847 33.5829 25.3004 33.3105C25.3107 33.1292 25.2852 32.9477 25.2253 32.7763C25.1654 32.6049 25.0723 32.447 24.9513 32.3116C24.8304 32.1762 24.6839 32.066 24.5203 31.9873C24.3567 31.9085 24.1792 31.8628 23.998 31.8527V31.8527Z" fill="#0033AD"/>
<path d="M29.6483 33.3433C29.4415 33.4485 29.2705 33.6125 29.1569 33.8147C29.0433 34.0169 28.9921 34.2482 29.0098 34.4794C29.0275 34.7107 29.1133 34.9315 29.2563 35.1141C29.3994 35.2966 29.5933 35.4327 29.8137 35.5052C30.034 35.5776 30.2709 35.5832 30.4943 35.5212C30.7178 35.4592 30.9179 35.3323 31.0694 35.1567C31.2209 34.9811 31.317 34.7645 31.3455 34.5343C31.3741 34.3042 31.3338 34.0707 31.2298 33.8634C31.1604 33.7251 31.0644 33.6019 30.9472 33.5008C30.8301 33.3998 30.6941 33.3229 30.5471 33.2746C30.4002 33.2262 30.2451 33.2074 30.0908 33.2192C29.9366 33.231 29.7862 33.2732 29.6483 33.3433V33.3433Z" fill="#0033AD"/>
</g>
<defs>
<clipPath id="clip0_2485_57851">
<rect width="48" height="48" fill="white"/>
</clipPath>
</defs>
</svg>
