<svg width="100" height="96" viewBox="0 0 100 96" fill="none" xmlns="http://www.w3.org/2000/svg">
<rect x="0.5" y="0.5" width="99" height="95" rx="15.5" fill="white"/>
<g clip-path="url(#clip0_2477_57761)">
<path d="M76.916 50.6212C76.916 48.8107 76.7556 47.0919 76.4806 45.4189H50.584V55.7547H65.4115C64.7469 59.1464 62.7989 62.0111 59.9113 63.9591V70.8343H68.7574C73.9368 66.0446 76.916 58.986 76.916 50.6212Z" fill="#4285F4"/>
<path d="M50.5845 77.4959C58.0097 77.4959 64.2203 75.0208 68.758 70.827L59.9119 63.9518C57.4368 65.6018 54.2971 66.6102 50.5845 66.6102C43.4114 66.6102 37.3383 61.7746 35.1611 55.2432H26.04V62.3246C30.5548 71.3082 39.8363 77.4959 50.5845 77.4959Z" fill="#34A853"/>
<path d="M35.1585 55.2426C34.5856 53.5926 34.2876 51.828 34.2876 49.9946C34.2876 48.1612 34.6085 46.3965 35.1585 44.7465V37.665H26.0374C24.1582 41.3776 23.0811 45.5486 23.0811 49.9946C23.0811 54.4405 24.1582 58.6115 26.0374 62.3241L35.1585 55.2426Z" fill="#FBBC05"/>
<path d="M50.5845 33.3799C54.6409 33.3799 58.2618 34.7778 61.1265 37.505L68.9642 29.6673C64.2203 25.2213 58.0097 22.4941 50.5845 22.4941C39.8363 22.4941 30.5548 28.6818 26.04 37.6654L35.1611 44.7469C37.3383 38.2154 43.4114 33.3799 50.5845 33.3799Z" fill="#EA4335"/>
</g>
<rect x="0.5" y="0.5" width="99" height="95" rx="15.5" stroke="#E9EAF3"/>
<defs>
<clipPath id="clip0_2477_57761">
<rect width="55.0016" height="55.0016" fill="white" transform="translate(22.498 22.5)"/>
</clipPath>
</defs>
</svg>
