<svg width="60" height="60" viewBox="0 0 60 60" fill="none" xmlns="http://www.w3.org/2000/svg">
<rect width="60" height="60" rx="14.4" fill="#F4F7FF"/>
<path fill-rule="evenodd" clip-rule="evenodd" d="M34.5419 16.451L17.9025 37.2629C17.6788 37.5419 17.5997 37.8987 17.6799 38.2399C17.6799 38.24 17.6798 38.2397 17.6799 38.2399L18.8081 43.0154L23.8455 42.9521L23.8484 42.9521C24.2386 42.9479 24.5926 42.7716 24.8215 42.4867L24.8223 42.4857L24.8239 42.4836L27.4465 39.2028C29.0223 37.2314 31.124 34.6019 33.2275 31.9694C35.331 29.3368 37.4363 26.7014 39.0194 24.7183C39.811 23.7266 40.4717 22.8984 40.9363 22.3153C41.1687 22.0236 41.3514 21.7939 41.4767 21.6361C41.5312 21.5674 41.574 21.5133 41.605 21.474C42.162 20.5174 41.861 19.2831 40.8666 18.6819C40.8086 18.6469 40.7527 18.6084 40.6992 18.5669L39.2018 17.4035C38.4529 16.8216 37.6783 16.2196 37.6259 16.1783L37.6133 16.1683C36.6801 15.4189 35.3031 15.5552 34.5419 16.451ZM42.763 15.7592C45.3471 17.3902 46.1574 20.7866 44.5136 23.3945C44.4964 23.4213 44.4721 23.4574 44.463 23.4704L44.4421 23.4994C44.4335 23.5111 44.4262 23.5208 44.4224 23.5258C44.4142 23.5365 44.4062 23.5469 44.4003 23.5544L44.3546 23.6127C44.3191 23.6578 44.2687 23.7215 44.2052 23.8015C44.0778 23.962 43.8934 24.1937 43.6607 24.4858C43.1951 25.0703 42.5335 25.8995 41.7417 26.8914C40.1581 28.8752 38.0524 31.5111 35.9488 34.1438C33.8451 36.7765 31.7433 39.4062 30.1674 41.3777L27.5418 44.6623C27.5417 44.6625 27.5416 44.6626 26.1812 43.575L27.5418 44.6623L27.5402 44.6643C26.6515 45.7729 25.3097 46.4194 23.8875 46.4352C23.8871 46.4352 23.8867 46.4352 23.8862 46.4352L17.456 46.516C16.6402 46.5262 15.9267 45.9688 15.7391 45.1749L14.2893 39.0384C13.9636 37.6548 14.2904 36.2003 15.1838 35.0852C15.1841 35.0849 15.1843 35.0845 15.1846 35.0842L31.8351 14.2584C31.8432 14.2483 31.8514 14.2383 31.8597 14.2284C33.8404 11.8611 37.3782 11.5197 39.7856 13.4453C39.7873 13.4466 39.7895 13.4483 39.7924 13.4506L42.763 15.7592ZM41.6502 21.4166C41.6602 21.4031 41.6667 21.3947 41.6674 21.3941C41.668 21.3934 41.6629 21.4002 41.6502 21.4166Z" fill="#1476FF"/>
<path fill-rule="evenodd" clip-rule="evenodd" d="M28.7042 18.1848C29.29 17.422 30.3834 17.2785 31.1463 17.8643L40.784 25.2657C41.5469 25.8516 41.6904 26.945 41.1046 27.7079C40.5187 28.4708 39.4253 28.6143 38.6624 28.0284L29.0247 20.627C28.2618 20.0411 28.1183 18.9477 28.7042 18.1848Z" fill="#1476FF"/>
</svg>
