<svg width="56" height="56" viewBox="0 0 56 56" fill="none" xmlns="http://www.w3.org/2000/svg">
<rect width="56" height="56" rx="15" fill="#F4F7FF"/>
<path fill-rule="evenodd" clip-rule="evenodd" d="M32.2391 15.3544L16.709 34.7788C16.5003 35.0393 16.4265 35.3723 16.5013 35.6907C16.5013 35.6908 16.5012 35.6905 16.5013 35.6907L17.5543 40.1478L22.2558 40.0888L22.2586 40.0888C22.6228 40.0848 22.9532 39.9202 23.1668 39.6543L23.1675 39.6534L23.1691 39.6515L25.6168 36.5894C27.0875 34.7494 29.0491 32.2952 31.0124 29.8382C32.9757 27.3811 34.9406 24.9215 36.4182 23.0705C37.157 22.145 37.7737 21.372 38.2073 20.8277C38.4242 20.5555 38.5947 20.3411 38.7117 20.1938C38.7625 20.1297 38.8025 20.0792 38.8314 20.0426C39.3512 19.1497 39.0704 17.9977 38.1422 17.4366C38.0881 17.4039 38.0359 17.368 37.986 17.3292L36.5884 16.2434C35.8895 15.7003 35.1665 15.1384 35.1176 15.0999L35.1058 15.0905C34.2348 14.3911 32.9497 14.5184 32.2391 15.3544ZM39.9122 14.7087C42.3241 16.231 43.0803 19.4009 41.5461 21.835C41.53 21.86 41.5073 21.8937 41.4989 21.9058L41.4794 21.9329C41.4713 21.9438 41.4645 21.9529 41.4609 21.9575C41.4533 21.9676 41.4458 21.9772 41.4403 21.9843L41.3977 22.0386C41.3646 22.0807 41.3175 22.1402 41.2582 22.2148C41.1393 22.3647 40.9673 22.5809 40.7501 22.8535C40.3155 23.399 39.698 24.173 38.959 25.0988C37.481 26.9503 35.5156 29.4105 33.5522 31.8677C31.5888 34.3249 29.6271 36.7793 28.1563 38.6193L25.7058 41.685C25.7056 41.6851 25.7056 41.6852 24.4359 40.6701L25.7058 41.685L25.7042 41.6868C24.8748 42.7215 23.6225 43.3249 22.2951 43.3397C22.2947 43.3397 22.2943 43.3397 22.2939 43.3397L16.2923 43.415C15.531 43.4246 14.865 42.9044 14.6899 42.1634L13.3368 36.436C13.0328 35.1446 13.3378 33.7871 14.1716 32.7463C14.1719 32.746 14.1721 32.7457 14.1723 32.7454L29.7128 13.308C29.7204 13.2985 29.728 13.2892 29.7358 13.2799C31.5845 11.0705 34.8864 10.7518 37.1333 12.5491C37.1349 12.5503 37.1369 12.5519 37.1396 12.554L39.9122 14.7087ZM38.8736 19.9889C38.8829 19.9763 38.889 19.9685 38.8896 19.9679C38.8902 19.9673 38.8855 19.9736 38.8736 19.9889Z" fill="#1476FF"/>
<path fill-rule="evenodd" clip-rule="evenodd" d="M26.7915 16.9726C27.3383 16.2606 28.3588 16.1267 29.0708 16.6735L38.066 23.5815C38.778 24.1283 38.912 25.1488 38.3652 25.8608C37.8184 26.5728 36.7979 26.7068 36.0858 26.16L27.0906 19.252C26.3786 18.7052 26.2447 17.6847 26.7915 16.9726Z" fill="#1476FF"/>
</svg>
