<svg width="56" height="56" viewBox="0 0 56 56" fill="none" xmlns="http://www.w3.org/2000/svg">
<rect width="56" height="56" rx="15" fill="#F6F1FF"/>
<path fill-rule="evenodd" clip-rule="evenodd" d="M24.9318 16.1777C25.6 16.846 25.6 17.9294 24.9318 18.5976L15.5294 28L24.9318 37.4024C25.6 38.0706 25.6 39.154 24.9318 39.8223C24.2636 40.4905 23.1802 40.4905 22.5119 39.8223L11.8996 29.2099C11.2314 28.5417 11.2314 27.4583 11.8996 26.7901L22.5119 16.1777C23.1802 15.5095 24.2636 15.5095 24.9318 16.1777Z" fill="#9240FB"/>
<path fill-rule="evenodd" clip-rule="evenodd" d="M31.0676 16.1777C31.7358 15.5095 32.8192 15.5095 33.4875 16.1777L44.0998 26.7901C44.768 27.4583 44.768 28.5417 44.0998 29.2099L33.4875 39.8223C32.8192 40.4905 31.7358 40.4905 31.0676 39.8223C30.3993 39.154 30.3993 38.0706 31.0676 37.4024L40.47 28L31.0676 18.5976C30.3993 17.9294 30.3993 16.846 31.0676 16.1777Z" fill="#9240FB"/>
</svg>
