<svg width="141" height="141" viewBox="0 0 141 141" fill="none" xmlns="http://www.w3.org/2000/svg">
<path d="M104.039 50.9003C114.781 69.5059 108.406 93.2968 89.8003 104.039C71.1947 114.781 47.4039 108.406 36.6619 89.8003C25.92 71.1947 32.2947 47.4039 50.9003 36.6619C69.5059 25.92 93.2968 32.2947 104.039 50.9003Z" stroke="#E0E7EC" stroke-width="25.2"/>
<mask id="path-2-inside-1" fill="white">
<path fill-rule="evenodd" clip-rule="evenodd" d="M44.6003 25.75C19.9682 39.9713 11.5287 71.4682 25.75 96.1003C39.9713 120.732 71.4682 129.172 96.1003 114.951C120.732 100.729 129.172 69.2324 114.951 44.6003"/>
</mask>
<path d="M32.0003 3.92616C-4.68473 25.1063 -17.254 72.0153 3.92616 108.7L47.5738 83.5003C40.3113 70.9212 44.6212 54.8364 57.2003 47.5738L32.0003 3.92616ZM3.92616 108.7C25.1063 145.385 72.0153 157.955 108.7 136.774L83.5003 93.1268C70.9212 100.389 54.8364 96.0794 47.5738 83.5003L3.92616 108.7ZM108.7 136.774C145.385 115.594 157.955 68.6853 136.774 32.0003L93.1268 57.2003C100.389 69.7794 96.0794 85.8642 83.5003 93.1268L108.7 136.774Z" fill="#C7D3DC" mask="url(#path-2-inside-1)"/>
<mask id="path-4-inside-2" fill="white">
<path fill-rule="evenodd" clip-rule="evenodd" d="M44.6003 25.75C19.9682 39.9713 11.5287 71.4682 25.75 96.1003C39.9713 120.732 71.4682 129.172 96.1003 114.951"/>
</mask>
<path d="M32.0003 3.92616C-4.68473 25.1063 -17.254 72.0153 3.92616 108.7L47.5738 83.5003C40.3113 70.9212 44.6212 54.8364 57.2003 47.5738L32.0003 3.92616ZM3.92616 108.7C25.1063 145.385 72.0153 157.955 108.7 136.774L83.5003 93.1268C70.9212 100.389 54.8364 96.0794 47.5738 83.5003L3.92616 108.7Z" fill="#94A2AB" mask="url(#path-4-inside-2)"/>
<mask id="mask0" mask-type="alpha" maskUnits="userSpaceOnUse" x="0" y="25" width="97" height="116">
<mask id="path-6-inside-3" mask-type="luminance" fill="white">
<path fill-rule="evenodd" clip-rule="evenodd" d="M44.6003 25.75C19.9682 39.9713 11.5287 71.4682 25.75 96.1003C39.9713 120.732 71.4682 129.172 96.1003 114.951"/>
</mask>
<path fill-rule="evenodd" clip-rule="evenodd" d="M44.6003 25.75C19.9682 39.9713 11.5287 71.4682 25.75 96.1003C39.9713 120.732 71.4682 129.172 96.1003 114.951" fill="white"/>
<path d="M32.0003 3.92616C-4.68473 25.1063 -17.254 72.0153 3.92616 108.7L47.5738 83.5003C40.3113 70.9212 44.6212 54.8364 57.2003 47.5738L32.0003 3.92616ZM3.92616 108.7C25.1063 145.385 72.0153 157.955 108.7 136.774L83.5003 93.1268C70.9212 100.389 54.8364 96.0794 47.5738 83.5003L3.92616 108.7Z" fill="white" mask="url(#path-6-inside-3)"/>
</mask>
<g mask="url(#mask0)">
</g>
</svg>
