<svg width="72" height="72" viewBox="0 0 72 72" fill="none" xmlns="http://www.w3.org/2000/svg">
<rect width="72" height="72" rx="16" fill="#FFF4F4"/>
<path fill-rule="evenodd" clip-rule="evenodd" d="M36.0001 57C47.0458 57 56.0001 48.0457 56.0001 37C56.0001 25.9543 47.0458 17 36.0001 17C24.9544 17 16.0001 25.9543 16.0001 37C16.0001 48.0457 24.9544 57 36.0001 57ZM36.0001 61C49.255 61 60.0001 50.2548 60.0001 37C60.0001 23.7452 49.255 13 36.0001 13C22.7453 13 12.0001 23.7452 12.0001 37C12.0001 50.2548 22.7453 61 36.0001 61Z" fill="#FF414C"/>
<path fill-rule="evenodd" clip-rule="evenodd" d="M36.0001 28.832C37.213 28.832 38.1963 29.8153 38.1963 31.0282V34.8053H41.9734C43.1863 34.8053 44.1696 35.7886 44.1696 37.0015C44.1696 38.2144 43.1863 39.1976 41.9734 39.1976H38.1963V42.9748C38.1963 44.1877 37.213 45.1709 36.0001 45.1709C34.7872 45.1709 33.804 44.1877 33.804 42.9748V39.1976H30.0268C28.8139 39.1976 27.8307 38.2144 27.8307 37.0015C27.8307 35.7886 28.8139 34.8053 30.0268 34.8053H33.804V31.0282C33.804 29.8153 34.7872 28.832 36.0001 28.832Z" fill="#FF414C"/>
</svg>
