<svg width="48" height="48" viewBox="0 0 48 48" fill="none" xmlns="http://www.w3.org/2000/svg">
<g clip-path="url(#clip0_2485_57802)">
<path d="M47.279 29.8062C44.0735 42.6634 31.0513 50.4882 18.1925 47.2819C5.33904 44.0764 -2.48571 31.0534 0.721287 18.1969C3.92529 5.3382 16.9475 -2.4873 29.8025 0.718197C42.6605 3.9237 50.4845 16.9482 47.279 29.8062Z" fill="#627EEA"/>
<path opacity="0.6" d="M23.7622 7.22217V19.9176L34.4925 24.7123L23.7622 7.22217Z" fill="white"/>
<path d="M23.7624 7.22217L13.0308 24.7123L23.7624 19.9176V7.22217Z" fill="white"/>
<path opacity="0.6" d="M23.7622 32.9393V41.5656L34.4996 26.7104L23.7622 32.9393Z" fill="white"/>
<path d="M23.7624 41.5656V32.9379L13.0308 26.7104L23.7624 41.5656Z" fill="white"/>
<path d="M23.7622 30.9426L34.4925 24.7123L23.7622 19.9204V30.9426Z" fill="white" fill-opacity="0.2"/>
<path opacity="0.6" d="M13.0308 24.7123L23.7624 30.9426V19.9204L13.0308 24.7123Z" fill="white"/>
</g>
<defs>
<clipPath id="clip0_2485_57802">
<rect width="48" height="48" fill="white"/>
</clipPath>
</defs>
</svg>
