<svg width="38" height="38" viewBox="0 0 38 38" fill="none" xmlns="http://www.w3.org/2000/svg">
<path d="M37.3526 19.4259C37.3526 18.1914 37.2432 17.0195 37.0557 15.8788H19.3984V22.9261H29.5084C29.0552 25.2387 27.727 27.1919 25.7582 28.5201V33.2079H31.7897C35.3212 29.9421 37.3526 25.1293 37.3526 19.4259Z" fill="#4285F4"/>
<path d="M19.3999 37.7506C24.4626 37.7506 28.6972 36.063 31.7912 33.2035L25.7596 28.5157C24.072 29.6408 21.9312 30.3283 19.3999 30.3283C14.509 30.3283 10.3681 27.0313 8.88365 22.5779H2.66455V27.4063C5.74285 33.5316 12.0713 37.7506 19.3999 37.7506Z" fill="#34A853"/>
<path d="M8.88229 22.5774C8.49165 21.4524 8.28851 20.2492 8.28851 18.9991C8.28851 17.749 8.50727 16.5459 8.88229 15.4208V10.5924H2.6632C1.38188 13.1238 0.647461 15.9677 0.647461 18.9991C0.647461 22.0305 1.38188 24.8744 2.6632 27.4058L8.88229 22.5774Z" fill="#FBBC05"/>
<path d="M19.3999 7.6718C22.1656 7.6718 24.6345 8.62498 26.5878 10.4845L31.9318 5.14041C28.6972 2.10899 24.4626 0.249512 19.3999 0.249512C12.0713 0.249512 5.74285 4.4685 2.66455 10.5938L8.88365 15.4222C10.3681 10.9689 14.509 7.6718 19.3999 7.6718Z" fill="#EA4335"/>
</svg>
