<svg width="256" height="256" viewBox="0 0 256 256" fill="none" xmlns="http://www.w3.org/2000/svg">
<g opacity="0.2">
<mask id="mask0_2543_58161" style="mask-type:alpha" maskUnits="userSpaceOnUse" x="0" y="0" width="256" height="256">
<circle cx="128" cy="128" r="128" fill="#1476FF"/>
</mask>
<g mask="url(#mask0_2543_58161)">
<path d="M255.399 8.79942C255.253 8.79919 255.111 8.74886 254.997 8.65679C252.376 6.53524 250.565 4.45698 248.467 2.05018L247.634 1.09765C247.522 0.970324 247.465 0.803667 247.475 0.634346C247.486 0.465026 247.564 0.306911 247.691 0.194783C247.818 0.0826537 247.985 0.0256952 248.154 0.0364419C248.324 0.0471887 248.482 0.124758 248.594 0.252085L249.432 1.20971C251.49 3.57067 253.267 5.61072 255.799 7.66096C255.901 7.74459 255.975 7.85769 256.011 7.98485C256.046 8.112 256.042 8.24703 255.998 8.37151C255.954 8.49599 255.872 8.60387 255.765 8.68045C255.657 8.75703 255.529 8.79857 255.397 8.79942H255.399Z" fill="white"/>
<path d="M255.399 26.8441C255.312 26.8454 255.225 26.8289 255.145 26.7957C244.639 22.466 237.744 12.4211 231.662 3.5605C231.079 2.71239 230.501 1.86937 229.925 1.03909C229.829 0.899602 229.791 0.727461 229.822 0.560529C229.852 0.393596 229.948 0.245546 230.087 0.148954C230.227 0.0523607 230.399 0.0151336 230.566 0.0454632C230.733 0.0757929 230.881 0.171197 230.977 0.310683C231.555 1.14097 232.133 1.98653 232.717 2.83718C238.992 11.9754 245.479 21.4294 255.639 25.6139C255.776 25.6707 255.89 25.7738 255.96 25.9053C256.029 26.0369 256.051 26.1887 256.021 26.3345C255.991 26.4803 255.911 26.6111 255.794 26.7041C255.678 26.7971 255.533 26.8466 255.384 26.8441H255.399Z" fill="white"/>
<path d="M255.399 44.8208H255.333C237.429 42.931 226.174 24.0637 217.13 8.90981C215.452 6.09551 213.865 3.43656 212.321 1.02976C212.23 0.8869 212.198 0.713397 212.234 0.547419C212.27 0.381442 212.371 0.236589 212.514 0.144724C212.657 0.0528598 212.83 0.0215104 212.996 0.0575717C213.162 0.093633 213.307 0.194148 213.399 0.337011C214.952 2.76164 216.544 5.43077 218.238 8.25526C227.134 23.1698 238.208 41.7315 255.473 43.555C255.634 43.5751 255.78 43.6551 255.884 43.7789C255.988 43.9027 256.041 44.0612 256.032 44.2225C256.024 44.3838 255.955 44.536 255.839 44.6484C255.723 44.7608 255.569 44.8251 255.407 44.8285L255.399 44.8208Z" fill="white"/>
<path d="M254.154 62.7573C242.339 62.7573 233.3 58.1296 224.982 47.8758C217.272 38.3709 210.768 27.4499 204.479 16.8905C201.336 11.6159 198.089 6.16303 194.766 1.02088C194.72 0.950309 194.689 0.871471 194.674 0.788864C194.659 0.706258 194.66 0.6215 194.678 0.539434C194.696 0.457369 194.729 0.379601 194.777 0.31057C194.825 0.241539 194.886 0.182599 194.957 0.137112C195.027 0.0916253 195.106 0.0604847 195.189 0.0454669C195.271 0.0304492 195.356 0.0318489 195.438 0.0495864C195.52 0.0673238 195.598 0.101052 195.667 0.148845C195.736 0.196637 195.795 0.257557 195.84 0.328128C199.177 5.48811 202.429 10.9512 205.577 16.2359C211.845 26.7571 218.311 37.6297 225.975 47.0685C234.313 57.3477 243.38 61.792 255.381 61.4609H255.399C255.558 61.4727 255.708 61.5438 255.817 61.6602C255.927 61.7765 255.989 61.9297 255.991 62.0895C255.993 62.2492 255.935 62.4041 255.829 62.5234C255.723 62.6428 255.576 62.718 255.417 62.7343C254.992 62.7496 254.571 62.7573 254.154 62.7573Z" fill="white"/>
<path d="M247.639 81.1737C234.298 81.1737 224.373 75.6827 216.101 63.9517C212.176 58.3893 208.715 52.3863 205.386 46.5795C204.588 45.194 203.79 43.811 202.992 42.4306C196.174 30.7149 187.086 15.4184 177.248 1.03614C177.152 0.896321 177.116 0.72412 177.147 0.557426C177.178 0.390732 177.274 0.243199 177.413 0.147281C177.553 0.0513638 177.725 0.014921 177.892 0.0459672C178.059 0.0770133 178.206 0.173008 178.302 0.312831C188.166 14.7307 197.269 30.0502 204.097 41.7888C204.902 43.1692 205.702 44.5538 206.496 45.9427C209.807 51.7216 213.256 57.7017 217.145 63.2131C226.655 76.6963 238.426 81.6678 255.312 79.3349C255.481 79.3119 255.652 79.357 255.788 79.4601C255.924 79.5633 256.013 79.7161 256.036 79.885C256.059 80.0539 256.014 80.225 255.91 80.3606C255.807 80.4963 255.654 80.5854 255.485 80.6083C252.886 80.9765 250.264 81.1654 247.639 81.1737Z" fill="white"/>
<path d="M238.351 100.062C232.717 100.062 227.19 99.1099 222.01 96.074C215.248 92.1162 210.737 85.4434 207.215 79.4353C204.128 74.176 201.288 68.667 198.54 63.339C196.635 59.6485 194.669 55.8333 192.639 52.1327C182.607 33.869 171.526 16.6827 159.706 1.04991C159.622 0.914139 159.591 0.751831 159.621 0.594926C159.651 0.43802 159.738 0.29788 159.866 0.202074C159.993 0.106269 160.152 0.0617368 160.311 0.0772407C160.47 0.0927447 160.617 0.167162 160.724 0.28585C172.58 15.9644 183.695 33.2043 193.757 51.5214C195.795 55.2297 197.766 59.0526 199.674 62.7506C202.414 68.0609 205.246 73.5545 208.315 78.796C211.754 84.6538 216.147 91.1687 222.652 94.9789C231.915 100.401 242.535 98.8731 252.809 97.3984C253.645 97.2762 254.478 97.1573 255.308 97.0418C255.391 97.0301 255.477 97.035 255.558 97.0562C255.64 97.0774 255.717 97.1145 255.784 97.1653C255.852 97.2162 255.908 97.2798 255.951 97.3525C255.994 97.4253 256.022 97.5058 256.034 97.5894C256.045 97.673 256.04 97.7581 256.019 97.8399C255.998 97.9216 255.961 97.9984 255.91 98.0658C255.859 98.1332 255.796 98.1899 255.723 98.2327C255.65 98.2755 255.57 98.3036 255.486 98.3153L252.99 98.6719C248.138 99.3544 243.205 100.062 238.351 100.062Z" fill="white"/>
<path d="M234.808 116.757C232.635 116.757 230.478 116.716 228.328 116.617L227.017 116.561C222.603 116.378 217.593 116.171 213.773 114.124C205.913 109.911 201.349 100.116 198.329 93.6262C196.622 89.9638 194.959 86.2199 193.352 82.5982C190.181 75.467 186.906 68.081 183.164 61.0542C171.814 39.5756 158.056 19.459 142.155 1.09296C142.054 0.963346 142.006 0.799932 142.022 0.636381C142.038 0.472831 142.116 0.321606 142.24 0.213863C142.364 0.10612 142.525 0.0500688 142.689 0.0572553C142.853 0.0644417 143.008 0.134319 143.122 0.252492C159.089 18.6923 172.906 38.8891 184.305 60.4531C188.057 67.5258 191.343 74.9245 194.521 82.0787C196.126 85.6952 197.789 89.4341 199.487 93.0863C202.437 99.4178 206.894 108.984 214.379 112.995C217.945 114.905 222.784 115.107 227.068 115.287L228.387 115.343C237.421 115.761 246.951 115.163 255.358 114.633C255.516 114.64 255.666 114.705 255.779 114.816C255.892 114.927 255.96 115.075 255.97 115.233C255.98 115.391 255.932 115.547 255.834 115.671C255.736 115.795 255.596 115.879 255.44 115.906C248.984 116.301 241.868 116.757 234.808 116.757Z" fill="white"/>
<path d="M255.399 133.492C253.305 133.464 251.204 133.456 248.98 133.446C234.756 133.387 218.637 133.321 205.411 127.968C195.7 124.035 192.766 115.503 189.661 106.469L189.455 105.868C185.158 93.3886 180.714 80.481 174.66 68.2126C163.354 45.306 146.983 23.3621 124.616 1.12783C124.496 1.00827 124.428 0.845842 124.428 0.676282C124.427 0.506722 124.494 0.343918 124.614 0.223684C124.733 0.103449 124.896 0.0356364 125.065 0.0351588C125.235 0.0346811 125.398 0.101579 125.518 0.221138C147.981 22.5547 164.429 44.6107 175.798 67.6574C181.888 79.9971 186.345 92.9429 190.657 105.463L190.863 106.062C194.001 115.192 196.721 123.078 205.89 126.791C218.879 132.053 234.876 132.119 248.983 132.178C251.209 132.178 253.313 132.195 255.411 132.223C255.57 132.238 255.718 132.311 255.826 132.429C255.934 132.547 255.994 132.7 255.994 132.86C255.994 133.02 255.934 133.174 255.826 133.292C255.718 133.409 255.57 133.483 255.411 133.497L255.399 133.492Z" fill="white"/>
<path d="M255.399 151.066H255.345C253.107 150.883 250.858 150.712 248.469 150.534C231.384 149.26 212.018 147.796 196.793 140.071C186.738 134.978 183.228 127.253 180.561 115.647C176.303 97.0978 171.647 83.3727 165.466 71.1426C153.391 47.2452 134.827 25.0084 107.046 1.16195C106.917 1.05151 106.837 0.894345 106.824 0.725024C106.811 0.555703 106.865 0.3881 106.976 0.259085C107.086 0.130069 107.243 0.0502107 107.413 0.0370758C107.582 0.0239409 107.75 0.0786068 107.879 0.189047C135.803 24.1501 154.464 46.5168 166.62 70.5644C172.847 82.8888 177.536 96.7056 181.82 115.356C184.4 126.593 187.774 134.053 197.384 138.928C212.38 146.535 231.609 147.982 248.576 149.255C250.96 149.434 253.209 149.604 255.452 149.79C255.612 149.81 255.759 149.888 255.863 150.011C255.967 150.134 256.021 150.291 256.014 150.452C256.007 150.612 255.94 150.765 255.826 150.878C255.712 150.991 255.56 151.058 255.399 151.064V151.066Z" fill="white"/>
<path d="M255.399 168.648H255.307C253.206 168.347 251.059 168.049 248.879 167.746C228.048 164.856 204.436 161.58 186.962 150.3C175.842 143.123 173.008 132.25 171.704 122.56C169.103 103.236 164.605 87.8354 157.548 74.0873C150.417 60.1813 140.662 47.0292 127.75 33.8771C117.547 23.4655 105.388 13.0793 89.4801 1.18285C89.4046 1.13614 89.3397 1.07422 89.2895 1.00105C89.2392 0.927873 89.2048 0.845044 89.1883 0.757828C89.1719 0.670612 89.1738 0.580922 89.1939 0.494474C89.214 0.408025 89.2518 0.326708 89.3051 0.255704C89.3583 0.184699 89.4258 0.125563 89.5032 0.082059C89.5805 0.0385547 89.6661 0.0116387 89.7545 0.00302086C89.8428 -0.00559702 89.9319 0.0042726 90.0163 0.0320044C90.1006 0.0597361 90.1782 0.104721 90.2441 0.164093C106.2 12.0988 118.41 22.5257 128.669 32.9755C141.658 46.2193 151.484 59.4758 158.684 73.499C165.815 87.3795 170.349 102.913 172.969 122.384C173.825 128.751 175.172 133.59 177.207 137.665C179.601 142.448 183.017 146.228 187.65 149.218C204.887 160.345 228.349 163.6 249.05 166.47C251.232 166.773 253.379 167.071 255.486 167.374C255.648 167.395 255.797 167.477 255.9 167.603C256.004 167.73 256.055 167.891 256.044 168.055C256.032 168.218 255.958 168.37 255.837 168.481C255.716 168.591 255.558 168.651 255.394 168.648H255.399Z" fill="white"/>
<path d="M255.399 186.178C255.35 186.178 255.302 186.172 255.254 186.16C251.011 185.182 246.735 184.27 242.206 183.307C219.394 178.445 195.802 173.436 177.648 159.683C165.471 150.46 163.337 138.342 162.843 126.619C162 106.593 157.51 89.4753 149.115 74.2882C141.22 60.0257 130.032 46.6342 114.875 33.365C101.657 21.7919 86.9078 11.5458 71.6979 1.20295C71.6283 1.15579 71.5687 1.09539 71.5225 1.0252C71.4763 0.955009 71.4443 0.876399 71.4285 0.793861C71.4126 0.711322 71.4132 0.626474 71.4301 0.544155C71.4471 0.461836 71.4801 0.383658 71.5272 0.31409C71.5744 0.244522 71.6348 0.184926 71.705 0.1387C71.7752 0.0924751 71.8538 0.0605264 71.9363 0.0446809C72.0189 0.0288354 72.1037 0.0294013 72.186 0.0463481C72.2684 0.0632948 72.3465 0.0962904 72.4161 0.143449C87.6617 10.5118 102.444 20.7732 115.713 32.4022C130.994 45.7734 142.272 59.2718 150.231 73.6617C158.722 89.0245 163.263 106.328 164.117 126.558C164.929 145.863 171.469 153.394 178.415 158.649C196.345 172.229 219.791 177.218 242.469 182.042C247 183.004 251.284 183.916 255.539 184.899C255.623 184.909 255.704 184.935 255.777 184.975C255.851 185.016 255.916 185.071 255.968 185.137C256.021 185.203 256.06 185.278 256.083 185.359C256.106 185.44 256.113 185.525 256.103 185.609C256.094 185.692 256.068 185.773 256.027 185.847C255.986 185.92 255.932 185.985 255.866 186.038C255.8 186.09 255.724 186.129 255.643 186.152C255.562 186.175 255.478 186.182 255.394 186.173L255.399 186.178Z" fill="white"/>
<path d="M255.399 203.719C255.328 203.719 255.258 203.707 255.19 203.684C245.866 200.457 236.221 197.426 226.895 194.495C216.934 191.362 206.634 188.127 196.681 184.638C186.44 181.052 176.138 174.919 167.677 167.373C161.636 161.986 157.512 156.014 155.416 149.626C153.493 143.768 153.7 137.544 153.888 131.523C153.921 130.578 153.952 129.633 153.975 128.696C154.512 106.757 150.259 89.2193 140.591 73.4643C123.175 45.087 93.8812 26.5763 65.5497 8.67171C61.6784 6.2267 57.6747 3.69511 53.8213 1.2119C53.6788 1.12003 53.5786 0.975315 53.5428 0.809576C53.5069 0.643838 53.5384 0.470656 53.6303 0.328131C53.7221 0.185606 53.8669 0.0854114 54.0326 0.0495889C54.1983 0.0137665 54.3715 0.0452501 54.514 0.137115C58.3624 2.61778 62.3635 5.14683 66.2297 7.59183C94.6834 25.5728 124.105 44.165 141.686 72.792C151.487 88.7584 155.816 106.531 155.264 128.727C155.241 129.669 155.21 130.616 155.18 131.566C154.983 137.475 154.78 143.583 156.631 149.226C158.656 155.398 162.66 161.181 168.53 166.418C176.869 173.855 187.015 179.898 197.104 183.431C207.037 186.91 217.328 190.145 227.279 193.275C236.613 196.209 246.266 199.242 255.608 202.474C255.752 202.522 255.875 202.621 255.953 202.751C256.032 202.882 256.061 203.036 256.036 203.186C256.01 203.336 255.932 203.472 255.816 203.57C255.699 203.668 255.551 203.721 255.399 203.719V203.719Z" fill="white"/>
<path d="M255.399 221.295C255.304 221.295 255.21 221.273 255.124 221.232C242.461 215.193 229.225 209.814 216.427 204.611C209.171 201.661 201.67 198.613 194.358 195.478L193.207 194.983C180.806 189.673 167.993 184.185 158.208 174.147C151.076 166.815 146.82 160.002 145.218 153.319C143.69 146.855 144.258 139.856 144.819 133.089C144.928 131.767 145.03 130.522 145.119 129.269L145.229 127.741C145.817 119.507 146.428 110.992 145.045 102.85C143.4 93.1719 139.004 82.8876 132.331 73.1C123.104 59.5658 110.14 49.74 96.5451 40.044C83.6757 30.8625 70.0575 22.4705 56.9003 14.3511C49.9881 10.0902 42.8441 5.69169 35.8682 1.20409C35.7256 1.11222 35.6255 0.967502 35.5896 0.801764C35.5538 0.636025 35.5853 0.462843 35.6772 0.320318C35.769 0.177793 35.9137 0.0775989 36.0795 0.0417764C36.2452 0.00595396 36.4184 0.0374376 36.5609 0.129302C43.5241 4.60162 50.6655 9.00518 57.5701 13.2636C70.7528 21.3907 84.3837 29.7954 97.3015 39.0023C110.991 48.7773 124.054 58.6795 133.404 72.3868C140.181 82.3197 144.648 92.7873 146.321 102.644C147.73 110.939 147.116 119.53 146.52 127.84L146.41 129.368C146.321 130.626 146.214 131.935 146.11 133.201C145.557 139.869 144.987 146.766 146.479 153.029C148.007 159.483 152.154 166.102 159.13 173.261C168.729 183.115 181.43 188.542 193.716 193.817L194.865 194.309C202.169 197.439 209.665 200.487 216.913 203.434C229.729 208.642 242.983 214.032 255.679 220.086C255.811 220.148 255.917 220.253 255.981 220.383C256.045 220.514 256.062 220.663 256.03 220.805C255.998 220.946 255.918 221.073 255.805 221.164C255.691 221.254 255.55 221.303 255.404 221.303L255.399 221.295Z" fill="white"/>
<path d="M255.4 238.917C255.277 238.917 255.156 238.882 255.053 238.815C240.062 229.17 223.808 221.308 208.089 213.703C203.935 211.693 199.638 209.628 195.423 207.532C193.878 206.768 192.315 206.004 190.734 205.24C176.421 198.23 161.621 190.977 150.15 180.344C143.054 173.763 138.658 165.941 136.71 156.431C134.82 147.216 135.436 137.33 136.274 128.866C137.881 112.806 136.761 104.024 135.778 98.813C133.804 88.3505 129.548 79.6401 122.766 72.1829C110.839 59.0715 95.621 49.0292 79.7718 39.053C71.7491 34.0026 63.4488 29.1762 55.4236 24.5078C42.9184 17.2365 29.9853 9.71808 17.852 1.20386C17.7128 1.10659 17.618 0.958028 17.5884 0.790857C17.5588 0.623685 17.5968 0.451598 17.6941 0.31245C17.7914 0.173302 17.9399 0.0784912 18.1071 0.048878C18.2743 0.0192648 18.4463 0.0572763 18.5855 0.154545C30.6755 8.6382 43.5831 16.1439 56.0654 23.4025C64.1008 28.076 72.4113 32.9074 80.4518 37.9706C96.3825 47.9951 111.677 58.091 123.713 71.3347C130.658 78.9754 135.016 87.8895 137.036 98.5864C139.117 109.619 138.325 121.228 137.545 128.999C136.71 137.363 136.106 147.132 137.96 156.179C139.855 165.419 144.124 173.019 151.018 179.412C162.349 189.923 177.065 197.128 191.295 204.096C192.874 204.869 194.438 205.633 195.988 206.388C200.198 208.469 204.493 210.545 208.644 212.554C224.396 220.174 240.686 228.054 255.743 237.743C255.859 237.818 255.948 237.928 255.996 238.057C256.044 238.187 256.049 238.328 256.01 238.461C255.971 238.593 255.891 238.709 255.78 238.792C255.669 238.875 255.535 238.919 255.397 238.919L255.4 238.917Z" fill="white"/>
<path d="M255.399 256.001C255.24 256.002 255.087 255.943 254.971 255.836C238.653 241.094 218.925 230.83 199.849 220.905C181.081 211.141 161.673 201.04 145.373 186.647C135.074 177.547 129.073 167.731 127.036 156.637C125.299 147.193 126.356 137.536 127.377 128.214L127.436 127.677C128.454 118.439 129.491 108.888 127.79 99.6304C125.806 88.8291 119.943 79.2554 109.865 70.3413C93.7074 56.0559 74.3689 46.0084 55.6672 36.2641C36.5197 26.3032 16.7228 16.0011 0.282719 1.14767C0.215251 1.09301 0.159626 1.02517 0.11924 0.948294C0.0788553 0.871421 0.0545563 0.787128 0.0478232 0.700555C0.0410901 0.613981 0.0520647 0.526943 0.0800789 0.444751C0.108093 0.362559 0.152557 0.286934 0.210761 0.222494C0.268966 0.158053 0.33969 0.106146 0.418616 0.0699397C0.497543 0.0337331 0.58302 0.0139858 0.66983 0.0119027C0.75664 0.00981969 0.842966 0.025443 0.923539 0.0578224C1.00411 0.0902019 1.07724 0.138659 1.13847 0.200233C17.4563 14.9365 37.1819 25.2055 56.2581 35.1307C75.0286 44.8954 94.4383 54.9964 110.726 69.3862C121.025 78.4888 127.026 88.3045 129.063 99.3987C130.798 108.843 129.743 118.5 128.722 127.817L128.663 128.354C127.645 137.592 126.608 147.145 128.309 156.408C130.293 167.207 136.156 176.783 146.232 185.697C162.402 199.985 181.74 210.048 200.442 219.777C219.589 229.74 239.391 240.043 255.829 254.896C255.925 254.983 255.992 255.096 256.022 255.222C256.052 255.347 256.043 255.479 255.996 255.599C255.95 255.719 255.869 255.823 255.762 255.896C255.656 255.969 255.53 256.009 255.401 256.009L255.399 256.001Z" fill="white"/>
<path d="M237.89 256.001C237.759 256 237.631 255.96 237.523 255.886C225.589 247.509 212.846 240.095 200.525 232.939C192.994 228.561 185.208 224.025 177.656 219.315C160.197 208.415 144.743 198.286 132.398 184.719C125.45 177.078 121.093 168.164 119.073 157.467C116.995 146.434 117.787 134.828 118.564 127.055C119.399 118.683 120.005 108.908 118.164 99.8617C116.274 90.5783 112.01 82.9759 105.093 76.6418C93.8613 66.3346 79.4893 59.2288 65.5909 52.3573L62.1119 50.633C57.3238 48.2543 52.4338 45.8882 47.7017 43.6011C31.8677 35.9452 15.4836 28.0269 0.365335 18.2953C0.222472 18.2034 0.121953 18.0586 0.085892 17.8926C0.0498307 17.7266 0.0811801 17.5531 0.173045 17.4103C0.264909 17.2674 0.409766 17.1669 0.575744 17.1308C0.741721 17.0948 0.915224 17.1261 1.05809 17.218C16.1203 26.9063 32.4586 34.8016 48.2594 42.4423C52.9915 44.7345 57.8866 47.098 62.6824 49.4819L66.1665 51.2086C80.1438 58.1209 94.5999 65.27 105.967 75.6994C113.075 82.222 117.479 90.0435 119.424 99.6045C121.301 108.817 120.698 118.706 119.842 127.18C118.604 139.573 118.757 148.828 120.339 157.233C122.313 167.695 126.568 176.406 133.353 183.863C145.578 197.31 160.967 207.386 178.341 218.246C185.875 222.952 193.653 227.473 201.174 231.846C213.519 239.023 226.286 246.445 238.267 254.852C238.379 254.93 238.463 255.042 238.507 255.171C238.551 255.3 238.552 255.44 238.511 255.57C238.47 255.7 238.388 255.814 238.278 255.894C238.167 255.974 238.034 256.017 237.898 256.016L237.89 256.001Z" fill="white"/>
<path d="M219.886 256C219.763 256.001 219.642 255.965 219.539 255.899C212.573 251.426 205.432 247.023 198.527 242.764C185.345 234.637 171.714 226.233 158.811 217.026C145.104 207.248 132.028 197.336 122.707 183.649C115.986 173.774 111.518 163.312 109.791 153.394C108.365 145.211 108.979 136.707 109.572 128.481L109.702 126.675C109.789 125.402 109.898 124.1 110.005 122.832C110.556 116.167 111.126 109.277 109.636 103.014C108.108 96.6294 103.857 89.8216 96.9832 82.782C87.3509 72.9154 74.6191 67.4626 62.3049 62.188L61.2454 61.7346C53.946 58.6045 46.4531 55.5584 39.2047 52.6117C26.3863 47.4008 13.1323 42.0141 0.433539 35.9576C0.280206 35.8847 0.16213 35.7538 0.105292 35.5938C0.0484539 35.4338 0.0575082 35.2578 0.130459 35.1044C0.203411 34.9511 0.334285 34.833 0.494292 34.7762C0.654299 34.7194 0.830333 34.7284 0.983666 34.8014C13.6493 40.8426 26.8854 46.2241 39.6963 51.4274C46.9472 54.3767 54.4452 57.4253 61.7573 60.558L62.8168 61.0139C75.2456 66.3368 88.0972 71.8406 97.9078 81.8983C104.945 89.1059 109.313 96.115 110.897 102.727C112.425 109.191 111.857 116.184 111.297 122.946C111.187 124.271 111.083 125.521 110.996 126.767L110.866 128.575C110.278 136.725 109.669 145.15 111.07 153.178C112.766 162.917 117.162 173.206 123.784 182.933C132.983 196.431 145.96 206.278 159.568 215.986C172.437 225.155 186.055 233.56 199.212 241.677C206.125 245.94 213.271 250.336 220.247 254.826C220.363 254.901 220.452 255.012 220.5 255.141C220.548 255.27 220.553 255.412 220.514 255.544C220.475 255.677 220.394 255.793 220.284 255.876C220.173 255.958 220.039 256.003 219.901 256.003L219.886 256Z" fill="white"/>
<path d="M201.943 256.002C201.82 256.002 201.7 255.967 201.596 255.9C197.743 253.417 193.737 250.885 189.863 248.438C161.414 230.462 131.998 211.872 114.417 183.238C104.624 167.279 100.294 149.507 100.847 127.311C100.87 126.307 100.905 125.296 100.941 124.282C101.135 118.679 101.338 112.87 99.7085 107.514C97.7474 101.098 93.6724 95.0773 87.5802 89.6193C79.2978 82.2028 69.151 76.1616 59.0068 72.6062C49.0739 69.1272 38.7845 65.8926 28.8364 62.765C19.4995 59.8285 9.84432 56.7952 0.502365 53.5632C0.34194 53.5078 0.210092 53.3909 0.13582 53.2383C0.061548 53.0857 0.0509383 52.9099 0.106327 52.7494C0.161716 52.589 0.278566 52.4572 0.43117 52.3829C0.583773 52.3086 0.759632 52.298 0.920057 52.3534C10.2467 55.5803 19.8918 58.6111 29.2184 61.5451C39.1793 64.6752 49.4789 67.9123 59.4295 71.399C69.7291 75.0079 80.0287 81.1408 88.4334 88.6668C94.7064 94.27 98.9113 100.5 100.934 107.142C102.625 112.702 102.418 118.603 102.207 124.326C102.171 125.344 102.136 126.343 102.113 127.341C101.575 149.28 105.829 166.818 115.494 182.573C132.92 210.95 162.209 229.458 190.535 247.355C194.412 249.805 198.418 252.34 202.276 254.825C202.393 254.9 202.481 255.01 202.529 255.14C202.577 255.269 202.582 255.411 202.543 255.543C202.504 255.676 202.424 255.792 202.313 255.875C202.202 255.957 202.068 256.002 201.93 256.002H201.943Z" fill="white"/>
<path d="M184.054 256.001C183.926 256.001 183.801 255.963 183.695 255.891C168.668 245.671 154.09 235.552 140.976 224.147C125.888 211.025 114.651 197.802 106.624 183.723C97.6535 167.988 92.8705 150.241 91.9893 129.474C91.6786 122.088 90.7286 116.691 88.9075 111.967C86.7656 106.405 83.3375 101.823 78.4297 97.9591C60.6015 83.9309 36.8035 78.8881 13.7797 74.0184C9.19527 73.0455 4.86558 72.1286 0.566442 71.1379C0.409681 71.0913 0.276615 70.9867 0.194409 70.8453C0.112203 70.7039 0.0870618 70.5365 0.124119 70.3772C0.161175 70.218 0.257634 70.0788 0.3938 69.9883C0.529966 69.8977 0.695569 69.8625 0.85679 69.8899C5.133 70.8781 9.46015 71.795 14.0445 72.7679C36.1311 77.4465 61.1618 82.7517 79.2192 96.9633C90.7464 106.035 92.7839 117.929 93.2678 129.431C94.1363 149.997 98.8709 167.555 107.737 183.106C115.691 197.061 126.838 210.175 141.814 223.199C154.877 234.558 169.417 244.652 184.413 254.849C184.482 254.897 184.542 254.957 184.588 255.028C184.634 255.098 184.666 255.177 184.681 255.259C184.697 255.342 184.696 255.426 184.679 255.509C184.662 255.591 184.628 255.669 184.581 255.738C184.521 255.822 184.442 255.889 184.35 255.935C184.258 255.98 184.156 256.003 184.054 256.001V256.001Z" fill="white"/>
<path d="M166.259 256.002C166.121 256.002 165.986 255.957 165.875 255.874C150.184 244.141 138.152 233.895 128.015 223.636C115.189 210.647 105.435 197.68 98.1864 183.963C90.6196 169.637 85.8417 153.655 83.1598 133.654C82.3244 127.45 81.0459 122.703 79.1383 118.742C76.9343 114.088 73.4995 110.125 69.2055 107.282C52.1414 95.7696 28.3993 92.4943 7.4538 89.6062C5.08775 89.2802 2.85413 88.972 0.630704 88.6511C0.461835 88.6268 0.309544 88.5364 0.20733 88.3998C0.105117 88.2632 0.0613547 88.0916 0.0856718 87.9227C0.109989 87.7538 0.200395 87.6015 0.336998 87.4993C0.473601 87.3971 0.645211 87.3533 0.81408 87.3777C3.03241 87.696 5.26603 88.0042 7.62953 88.3302C28.7126 91.2387 52.61 94.5344 69.9186 106.212C80.4143 113.292 83.1369 123.964 84.418 133.463C87.0871 153.306 91.8243 169.155 99.3172 183.344C106.505 196.952 116.19 209.832 128.925 222.716C139.008 232.95 150.991 243.155 166.631 254.853C166.739 254.933 166.818 255.045 166.858 255.173C166.899 255.301 166.897 255.439 166.855 255.566C166.813 255.693 166.732 255.804 166.623 255.883C166.514 255.962 166.383 256.004 166.249 256.004L166.259 256.002Z" fill="white"/>
<path d="M148.637 256.001C148.485 256.001 148.337 255.947 148.222 255.848C120.774 232.287 102.352 210.399 90.2444 186.967C83.6225 174.139 78.6969 159.861 74.2933 140.675C70.962 126.158 66.3343 121.192 59.4654 117.499C44.6069 109.512 25.1258 108.075 7.9369 106.802C5.41294 106.616 3.02652 106.44 0.657918 106.244C0.492881 106.225 0.341726 106.143 0.236472 106.014C0.131218 105.885 0.0801361 105.721 0.0940419 105.555C0.107948 105.39 0.18575 105.236 0.310971 105.127C0.436192 105.018 0.598995 104.962 0.764891 104.971C3.12585 105.167 5.50972 105.342 8.03114 105.528C25.3499 106.802 44.9609 108.259 60.0715 116.373C70.5571 122.009 73.3713 130.949 75.5387 140.39C79.9194 159.466 84.8043 173.65 91.3803 186.379C103.407 209.66 121.732 231.426 149.052 254.875C149.152 254.96 149.223 255.073 149.256 255.2C149.289 255.327 149.282 255.461 149.236 255.584C149.191 255.707 149.109 255.812 149.001 255.887C148.893 255.962 148.765 256.001 148.634 256.001H148.637Z" fill="white"/>
<path d="M131.048 256.001C130.964 256.001 130.881 255.985 130.804 255.953C130.726 255.921 130.656 255.874 130.597 255.815C108.589 233.937 92.3936 212.393 81.0804 189.945C74.5374 176.956 69.7111 162.948 65.4552 150.583L65.1241 149.625C62.2436 141.22 59.521 133.3 50.9762 129.579C38.0381 123.942 21.8094 123.904 7.49334 123.866C5.13747 123.866 2.90895 123.853 0.703352 123.825C0.544313 123.811 0.396362 123.738 0.288606 123.62C0.18085 123.502 0.121094 123.348 0.121094 123.188C0.121094 123.029 0.18085 122.875 0.288606 122.757C0.396362 122.639 0.544313 122.566 0.703352 122.552V122.552C2.9064 122.58 5.12983 122.585 7.4806 122.593C21.924 122.631 38.2979 122.671 51.4729 128.41C60.5627 132.347 63.3643 140.54 66.3365 149.21L66.6752 150.175C70.9183 162.502 75.7294 176.474 82.2315 189.379C93.4811 211.703 109.6 233.14 131.509 254.918C131.598 255.008 131.66 255.121 131.685 255.246C131.71 255.37 131.697 255.498 131.649 255.615C131.601 255.732 131.519 255.832 131.413 255.903C131.308 255.973 131.184 256.011 131.058 256.011L131.048 256.001Z" fill="white"/>
<path d="M113.472 255.999C113.38 256 113.29 255.98 113.206 255.942C113.123 255.905 113.048 255.849 112.988 255.78C97.0204 237.34 83.2037 217.143 71.805 195.577C68.0559 188.507 64.7705 181.114 61.5945 173.962C59.9874 170.343 58.3243 166.601 56.623 162.947C53.6864 156.615 49.2192 147.052 41.7314 143.043C38.1505 141.122 33.3623 140.929 29.1345 140.751L27.7235 140.692C18.6923 140.274 9.16188 140.873 0.75208 141.403C0.663259 141.418 0.572173 141.415 0.484754 141.393C0.397334 141.371 0.315544 141.33 0.244713 141.275C0.173881 141.219 0.115598 141.149 0.0736603 141.069C0.0317225 140.989 0.00706884 140.901 0.00131033 140.811C-0.00444818 140.721 0.0088175 140.631 0.0402387 140.547C0.0716599 140.462 0.120533 140.385 0.183676 140.321C0.246818 140.256 0.322809 140.206 0.406703 140.173C0.490596 140.14 0.580507 140.125 0.670578 140.129C9.11349 139.599 18.6821 138.998 27.7821 139.419L29.188 139.477C33.5508 139.653 38.4968 139.854 42.3375 141.912C50.1998 146.125 54.7638 155.92 57.7818 162.407C59.4908 166.072 61.1539 169.818 62.7635 173.442C65.9318 180.574 69.2071 187.947 72.9358 194.979C84.2847 216.457 98.0415 236.573 113.941 254.94C114.021 255.032 114.074 255.146 114.091 255.268C114.109 255.389 114.092 255.513 114.041 255.625C113.99 255.736 113.908 255.831 113.805 255.898C113.702 255.964 113.582 255.999 113.459 255.999H113.472Z" fill="white"/>
<path d="M95.8933 256.001C95.7944 256.002 95.6967 255.979 95.6083 255.935C95.5198 255.891 95.4429 255.826 95.3839 255.747C83.5256 240.066 72.4111 222.826 62.3509 204.511C60.3134 200.803 58.3396 196.978 56.4345 193.279C53.694 187.969 50.8619 182.476 47.7929 177.234C44.3546 171.376 39.9613 164.864 33.4565 161.054C24.191 155.631 13.5909 157.157 3.32439 158.632C2.48138 158.754 1.63836 158.886 0.800434 158.993C0.631565 159.017 0.46022 158.973 0.324095 158.87C0.18797 158.767 0.0982133 158.615 0.0745716 158.446C0.05093 158.277 0.0953384 158.106 0.198029 157.969C0.30072 157.833 0.453281 157.744 0.622149 157.72L3.14356 157.361C13.6189 155.856 24.4508 154.305 34.1034 159.946C40.8629 163.904 45.3759 170.577 48.8983 176.582C51.9825 181.844 54.8223 187.35 57.5704 192.678C59.4729 196.369 61.4417 200.187 63.4715 203.885C73.5037 222.146 84.5826 239.332 96.4027 254.967C96.4736 255.062 96.5168 255.175 96.5274 255.292C96.5381 255.41 96.5157 255.528 96.4628 255.634C96.4099 255.74 96.3286 255.829 96.228 255.891C96.1274 255.953 96.0115 255.986 95.8933 255.986V256.001Z" fill="white"/>
<path d="M78.3348 256.001C78.2309 256.001 78.1285 255.976 78.0365 255.928C77.9446 255.879 77.866 255.809 77.8076 255.723C71.1475 245.989 65.0579 235.521 59.1695 225.397C52.8176 214.479 46.2517 203.188 38.9651 192.82C29.4882 179.322 17.7165 174.363 0.797536 176.701C0.713921 176.712 0.628885 176.707 0.547283 176.686C0.46568 176.664 0.389113 176.627 0.321947 176.576C0.186299 176.472 0.0971894 176.32 0.0742233 176.151C0.0512571 175.982 0.0963156 175.811 0.199484 175.675C0.302653 175.54 0.455482 175.45 0.62435 175.427C18.0756 173.016 30.2242 178.153 40.0119 192.079C47.329 202.491 53.9102 213.806 60.2748 224.75C66.153 234.851 72.2299 245.299 78.8671 254.995C78.9329 255.091 78.9713 255.203 78.9781 255.319C78.9849 255.435 78.9598 255.551 78.9055 255.654C78.8513 255.757 78.7699 255.843 78.6702 255.904C78.5705 255.964 78.4563 255.996 78.3399 255.995L78.3348 256.001Z" fill="white"/>
<path d="M60.8184 256.002C60.7114 256.002 60.6061 255.975 60.5122 255.924C60.4183 255.873 60.3387 255.799 60.281 255.709C56.9446 250.549 53.6922 245.086 50.5443 239.801C44.2764 229.28 37.7971 218.407 30.1463 208.966C21.8078 198.689 12.7358 194.243 0.740014 194.576H0.711998C0.552641 194.564 0.403499 194.493 0.293957 194.377C0.184415 194.261 0.122417 194.107 0.12018 193.948C0.117943 193.788 0.175628 193.633 0.28187 193.514C0.388113 193.394 0.535205 193.319 0.694168 193.303C13.1255 192.962 22.5158 197.548 31.1294 208.166C38.8388 217.671 45.341 228.592 51.6318 239.152C54.7746 244.426 58.0219 249.879 61.3456 255.021C61.4377 255.164 61.4696 255.337 61.4343 255.502C61.3989 255.668 61.2992 255.813 61.1571 255.905C61.0552 255.968 60.938 256.001 60.8184 256.002V256.002Z" fill="white"/>
<path d="M43.2447 256C43.1378 256 43.0327 255.973 42.9389 255.922C42.845 255.871 42.7654 255.797 42.7073 255.708C41.1359 253.255 39.5416 250.591 37.8555 247.769C29.0127 232.982 18.0077 214.581 0.63031 212.487C0.546695 212.477 0.465876 212.451 0.392465 212.409C0.319055 212.368 0.254493 212.313 0.202464 212.246C0.150434 212.18 0.111955 212.104 0.0892265 212.023C0.0664984 211.942 0.0599636 211.857 0.0699975 211.774C0.0800313 211.69 0.106438 211.609 0.147707 211.536C0.188975 211.463 0.244296 211.398 0.310516 211.346C0.376736 211.294 0.452558 211.255 0.533648 211.233C0.614738 211.21 0.69951 211.204 0.783125 211.214C18.7845 213.378 29.9678 232.08 38.9532 247.107C40.6342 249.908 42.2234 252.575 43.7923 255.002C43.8545 255.099 43.8896 255.21 43.8938 255.325C43.8981 255.44 43.8713 255.554 43.8163 255.654C43.7613 255.755 43.6801 255.839 43.5813 255.898C43.4825 255.957 43.3698 255.988 43.2549 255.988L43.2447 256Z" fill="white"/>
<path d="M25.6505 256.002C25.547 256.002 25.4449 255.977 25.3531 255.929C25.2613 255.881 25.1825 255.811 25.1233 255.727C24.5375 254.883 23.9517 254.028 23.3608 253.18C17.1006 244.059 10.6264 234.628 0.466942 230.436C0.319856 230.365 0.205577 230.24 0.147428 230.087C0.0892782 229.934 0.091647 229.765 0.15405 229.614C0.216452 229.463 0.334183 229.341 0.48321 229.274C0.632236 229.206 0.801321 229.199 0.955946 229.252C11.4669 233.581 18.346 243.614 24.4153 252.456C25.0027 253.315 25.5894 254.164 26.1752 255.003C26.2716 255.142 26.3089 255.314 26.2788 255.481C26.2487 255.647 26.1537 255.795 26.0147 255.892C25.9075 255.965 25.7803 256.003 25.6505 256.002V256.002Z" fill="white"/>
<path d="M7.99752 256.002C7.90649 256.002 7.81647 255.983 7.73345 255.946C7.65044 255.908 7.57636 255.854 7.51616 255.785C7.22836 255.459 6.95075 255.138 6.67823 254.825C4.62035 252.464 2.84263 250.427 0.311032 248.376C0.178976 248.27 0.0947275 248.115 0.0768162 247.946C0.058905 247.777 0.108803 247.608 0.215527 247.476C0.322252 247.344 0.477065 247.26 0.645908 247.242C0.814751 247.224 0.983791 247.274 1.11585 247.381C3.73659 249.502 5.54742 251.58 7.64605 253.985L8.47888 254.94C8.5602 255.032 8.6132 255.146 8.63152 255.267C8.64983 255.389 8.6327 255.513 8.58216 255.625C8.53162 255.737 8.44983 255.832 8.34658 255.899C8.24334 255.966 8.12303 256.002 8.00006 256.002H7.99752Z" fill="white"/>
</g>
</g>
</svg>
