<svg width="48" height="48" viewBox="0 0 48 48" fill="none" xmlns="http://www.w3.org/2000/svg">
<rect width="48" height="48" rx="13" fill="#FFF4F4"/>
<path fill-rule="evenodd" clip-rule="evenodd" d="M24 38C31.3638 38 37.3333 32.0305 37.3333 24.6667C37.3333 17.3029 31.3638 11.3333 24 11.3333C16.6362 11.3333 10.6667 17.3029 10.6667 24.6667C10.6667 32.0305 16.6362 38 24 38ZM24 40.6667C32.8366 40.6667 40 33.5032 40 24.6667C40 15.8301 32.8366 8.66666 24 8.66666C15.1634 8.66666 8 15.8301 8 24.6667C8 33.5032 15.1634 40.6667 24 40.6667Z" fill="#FF414C"/>
<path fill-rule="evenodd" clip-rule="evenodd" d="M24 19.2204C24.8086 19.2204 25.4641 19.8759 25.4641 20.6845V23.2026H27.9822C28.7908 23.2026 29.4463 23.8581 29.4463 24.6667C29.4463 25.4753 28.7908 26.1308 27.9822 26.1308H25.4641V28.6489C25.4641 29.4575 24.8086 30.113 24 30.113C23.1914 30.113 22.5359 29.4575 22.5359 28.6489V26.1308H20.0178C19.2092 26.1308 18.5537 25.4753 18.5537 24.6667C18.5537 23.8581 19.2092 23.2026 20.0178 23.2026H22.5359V20.6845C22.5359 19.8759 23.1914 19.2204 24 19.2204Z" fill="#FF414C"/>
</svg>
