<svg width="24" height="24" viewBox="0 0 24 24" fill="none" xmlns="http://www.w3.org/2000/svg">
<path d="M12 22C17.5228 22 22 17.5228 22 12C22 6.47715 17.5228 2 12 2C6.47715 2 2 6.47715 2 12C2 17.5228 6.47715 22 12 22Z" stroke="white" stroke-width="1.4" stroke-linecap="round" stroke-linejoin="round"/>
<path d="M12 17V12" stroke="white" stroke-width="1.4" stroke-linecap="round" stroke-linejoin="round"/>
<path d="M12.0003 7.33203C11.889 7.33203 11.7802 7.36503 11.6877 7.42685C11.5952 7.48867 11.5231 7.57653 11.4805 7.67933C11.4379 7.78213 11.4268 7.89525 11.4485 8.00438C11.4702 8.11351 11.5238 8.21376 11.6025 8.29244C11.6811 8.37112 11.7814 8.4247 11.8905 8.44641C11.9997 8.46811 12.1128 8.45697 12.2156 8.41439C12.3184 8.37181 12.4062 8.2997 12.4681 8.20718C12.5299 8.11467 12.5629 8.0059 12.5629 7.89463C12.5631 7.82069 12.5486 7.74744 12.5204 7.6791C12.4922 7.61075 12.4508 7.54865 12.3985 7.49637C12.3462 7.44409 12.2841 7.40266 12.2158 7.37445C12.1475 7.34625 12.0742 7.33184 12.0003 7.33203Z" fill="white" stroke="white" stroke-width="1.4" stroke-linecap="round" stroke-linejoin="round"/>
</svg>
