<svg width="56" height="56" viewBox="0 0 56 56" fill="none" xmlns="http://www.w3.org/2000/svg">
<rect width="56" height="56" rx="15" fill="#FFF7E8"/>
<path fill-rule="evenodd" clip-rule="evenodd" d="M40.73 17.2926L15.7844 26.0661C15.7839 26.0662 15.7835 26.0664 15.7831 26.0665C15.6325 26.1202 15.5022 26.2194 15.4104 26.3503C15.3182 26.4815 15.2693 26.6382 15.2703 26.7986L15.2703 26.8073H15.2703V29.1894L15.2702 29.2083C15.268 29.3696 15.3165 29.5275 15.4087 29.6599C15.5005 29.7918 15.6313 29.8917 15.7826 29.9458C15.7832 29.946 15.7837 29.9462 15.7843 29.9464L40.73 38.7075V17.2926ZM40.7161 40.2188L40.2421 41.5684L14.8322 32.6442L14.8282 32.6428C14.1128 32.3891 13.4949 31.9179 13.0611 31.2951C12.6294 30.6753 12.4016 29.9363 12.4094 29.1811V26.8111C12.4058 26.0584 12.6361 25.323 13.0686 24.7068C13.502 24.0892 14.117 23.6219 14.8281 23.3697L14.8316 23.3685L40.2416 14.4317L40.2544 14.4272C40.635 14.2975 41.0411 14.2605 41.4389 14.3196C41.8366 14.3786 42.2145 14.5319 42.541 14.7666C42.8675 15.0013 43.1331 15.3107 43.3158 15.669C43.4979 16.0262 43.5922 16.4216 43.591 16.8225C43.591 16.8237 43.5909 16.8249 43.5909 16.826L42.1605 16.8196H43.591V16.8225V39.1488C43.5909 39.1426 43.5907 39.1363 43.5906 39.1301L42.1606 39.1614H43.591V39.1488C43.5967 39.5482 43.5076 39.9434 43.3307 40.3017C43.1511 40.6657 42.8863 40.9809 42.5588 41.2207C42.2313 41.4604 41.8507 41.6176 41.4495 41.6788C41.0483 41.7401 40.6382 41.7036 40.2541 41.5725L40.7161 40.2188Z" fill="#FFB016"/>
<path fill-rule="evenodd" clip-rule="evenodd" d="M17.6748 31.0756C18.404 31.3796 18.7486 32.2172 18.4446 32.9464C18.2272 33.4676 18.1159 34.027 18.1173 34.5917C18.1173 34.6038 18.1172 34.616 18.1169 34.6281C18.0935 35.6414 18.4441 36.6278 19.1017 37.399C19.7594 38.1701 20.6781 38.6721 21.6823 38.809C22.6866 38.9459 23.7061 38.7081 24.5461 38.1411C25.3862 37.574 25.988 36.7174 26.2367 35.7349C26.4305 34.969 27.2084 34.5052 27.9743 34.699C28.7402 34.8928 29.2039 35.6708 29.0101 36.4367C28.589 38.101 27.5697 39.5519 26.1467 40.5123C24.7238 41.4728 22.997 41.8755 21.2959 41.6437C19.5949 41.4118 18.0389 40.5616 16.9249 39.2553C15.8149 37.9537 15.2213 36.2901 15.2564 34.5802C15.2566 33.6414 15.4427 32.7119 15.804 31.8453C16.108 31.1162 16.9456 30.7715 17.6748 31.0756Z" fill="#FFB016"/>
</svg>
