<svg width="44" height="30" viewBox="0 0 44 30" fill="none" xmlns="http://www.w3.org/2000/svg">
<rect width="44" height="30" rx="8" fill="#0D0D0D"/>
<path d="M20.0195 15C20.0195 12.3172 21.1879 9.91358 23.0348 8.2527C21.4337 6.81304 19.3244 5.92969 17.0041 5.92969C12.0081 5.92969 7.95801 9.99068 7.95801 15C7.95801 20.0094 12.0081 24.0703 17.0041 24.0703C19.3244 24.0703 21.4337 23.187 23.0348 21.7473C21.1879 20.0865 20.0195 17.6828 20.0195 15Z" fill="#FF0015"/>
<path d="M29.0649 5.92969C26.7446 5.92969 24.6353 6.81304 23.0342 8.2527C24.8811 9.91358 26.0495 12.3167 26.0495 15C26.0495 17.6828 24.8811 20.0865 23.0342 21.7473C24.6353 23.187 26.7446 24.0703 29.0649 24.0703C34.0609 24.0703 38.111 20.0094 38.111 15C38.111 9.99068 34.0609 5.92969 29.0649 5.92969Z" fill="#FF9F02"/>
<path d="M26.0503 14.9993C26.0503 12.3165 24.8818 9.91283 23.0349 8.25195C21.188 9.91283 20.0195 12.316 20.0195 14.9993C20.0195 17.6821 21.188 20.0857 23.0349 21.7466C24.8818 20.0857 26.0503 17.6821 26.0503 14.9993Z" fill="#FF5F01"/>
</svg>
