<svg width="328" height="328" viewBox="0 0 328 328" fill="none" xmlns="http://www.w3.org/2000/svg">
<g clip-path="url(#clip0_2490_58259)">
<g opacity="0.27">
<mask id="mask0_2490_58259" style="mask-type:alpha" maskUnits="userSpaceOnUse" x="36" y="36" width="257" height="257">
<circle cx="164.238" cy="164.238" r="128.14" transform="rotate(-110 164.238 164.238)" fill="#1476FF"/>
</mask>
<g mask="url(#mask0_2490_58259)">
<path d="M42.308 72.7649L42.3307 72.8271C46.677 90.2919 32.8019 107.315 21.6591 120.991C19.5893 123.53 17.6341 125.93 15.9009 128.202C15.7982 128.337 15.6459 128.426 15.4777 128.449C15.3094 128.472 15.139 128.427 15.0038 128.324C14.8687 128.221 14.7799 128.069 14.7571 127.901C14.7342 127.733 14.7791 127.562 14.8819 127.427C16.6283 125.139 18.5913 122.731 20.6654 120.174C31.6339 106.718 45.2837 89.9699 41.0937 73.1283C41.0578 72.9709 41.0828 72.8057 41.1637 72.6659C41.2445 72.5262 41.3753 72.4223 41.5297 72.375C41.684 72.3277 41.8506 72.3406 41.9958 72.4111C42.1411 72.4817 42.2542 72.6045 42.3126 72.7551L42.308 72.7649Z" fill="white"/>
<path d="M59.5807 67.8032C63.6202 78.9016 62.3635 88.9745 55.5756 100.294C49.2829 110.785 41.2482 120.63 33.4791 130.147C29.5989 134.902 25.587 139.817 21.893 144.697C21.8423 144.764 21.7789 144.82 21.7064 144.863C21.634 144.905 21.5539 144.933 21.4707 144.944C21.3876 144.955 21.303 144.95 21.2218 144.929C21.1406 144.908 21.0644 144.871 20.9976 144.82C20.9307 144.769 20.8745 144.706 20.8321 144.633C20.7898 144.561 20.7621 144.481 20.7507 144.398C20.7393 144.314 20.7444 144.23 20.7657 144.149C20.787 144.067 20.8241 143.991 20.8748 143.924C24.5812 139.026 28.6009 134.103 32.4889 129.339C40.2291 119.854 48.2314 110.063 54.4776 99.6369C61.2825 88.2896 62.3573 78.2531 57.9433 67.0932L57.9372 67.0765C57.8938 66.9227 57.9096 66.7584 57.9814 66.6157C58.0533 66.473 58.1759 66.3624 58.3253 66.3057C58.4746 66.2489 58.6397 66.2502 58.7882 66.3092C58.9366 66.3682 59.0576 66.4806 59.1273 66.6244C59.2871 67.0187 59.4379 67.4108 59.5807 67.8032Z" fill="white"/>
<path d="M79.1082 67.6272C83.6693 80.1587 81.9047 91.3593 73.7134 103.141C69.8303 108.729 65.3747 114.033 61.0581 119.145C60.0294 120.368 59.0032 121.591 57.9793 122.812C49.3053 133.223 38.0433 146.988 27.8971 161.148C27.7985 161.286 27.6492 161.379 27.482 161.406C27.3148 161.434 27.1434 161.395 27.0055 161.296C26.8676 161.198 26.7745 161.048 26.7467 160.881C26.7188 160.714 26.7586 160.542 26.8571 160.404C37.0281 146.209 48.3064 132.421 56.9985 121.994C58.0201 120.766 59.0473 119.541 60.0803 118.32C64.3767 113.234 68.8151 107.95 72.6626 102.412C82.0766 88.8691 82.7219 76.1116 74.7573 61.0475C74.678 60.8967 74.6618 60.7206 74.7123 60.5579C74.7629 60.3952 74.876 60.2593 75.0268 60.18C75.1775 60.1006 75.3536 60.0845 75.5163 60.135C75.679 60.1856 75.815 60.2987 75.8943 60.4494C77.1289 62.7655 78.2028 65.1637 79.1082 67.6272Z" fill="white"/>
<path d="M100.028 69.8929C101.954 75.1849 102.949 80.7021 101.868 86.6063C100.462 94.3113 95.7361 100.83 91.2967 106.193C87.4117 110.89 83.2078 115.441 79.1424 119.844C76.3271 122.896 73.4155 126.047 70.6333 129.219C56.9072 144.887 44.5519 161.172 33.9085 177.62C33.8097 177.746 33.6675 177.83 33.51 177.855C33.3525 177.881 33.191 177.847 33.0573 177.76C32.9237 177.673 32.8275 177.539 32.7877 177.384C32.7479 177.23 32.7675 177.066 32.8424 176.925C43.5167 160.428 55.911 144.093 69.6769 128.378C72.4636 125.196 75.3807 122.037 78.2023 118.981C82.2535 114.591 86.4457 110.053 90.32 105.378C94.647 100.145 99.2648 93.7907 100.62 86.3778C102.546 75.8227 97.4798 66.3688 92.5819 57.2219C92.1815 56.479 91.7851 55.7373 91.3927 54.9969C91.3531 54.9223 91.3286 54.8407 91.3206 54.7567C91.3125 54.6727 91.3211 54.5879 91.3458 54.5072C91.3706 54.4265 91.4109 54.3515 91.4646 54.2864C91.5184 54.2213 91.5844 54.1674 91.6589 54.1278C91.7335 54.0882 91.8151 54.0637 91.8991 54.0557C91.9831 54.0476 92.0679 54.0562 92.1486 54.0809C92.2293 54.1056 92.3043 54.146 92.3694 54.1997C92.4345 54.2535 92.4884 54.3195 92.528 54.394L93.7163 56.6167C96.0163 60.9409 98.368 65.3329 100.028 69.8929Z" fill="white"/>
<path d="M116.922 67.514C117.665 69.5548 118.364 71.5951 119.006 73.6482L119.402 74.8995C120.739 79.1082 122.258 83.8847 121.64 88.1734C120.371 96.9967 112.73 104.633 107.667 109.689C104.81 112.544 101.861 115.386 99.0088 118.134C93.3942 123.551 87.5759 129.153 82.2544 135.07C65.9591 153.075 51.7665 172.877 39.9508 194.093C39.8636 194.232 39.7263 194.333 39.5672 194.374C39.4082 194.415 39.2394 194.393 39.0958 194.313C38.9522 194.234 38.8446 194.102 38.7952 193.945C38.7459 193.789 38.7584 193.619 38.8304 193.471C50.6929 172.168 64.941 152.285 81.2997 134.203C86.6608 128.261 92.4875 122.645 98.1211 117.214C100.97 114.47 103.913 111.629 106.763 108.785C111.702 103.85 119.164 96.3926 120.373 87.9898C120.949 83.9873 119.483 79.3729 118.188 75.287L117.79 74.0286C115.094 65.3999 111.273 56.6521 107.901 48.9358C107.854 48.785 107.864 48.6219 107.929 48.478C107.994 48.3341 108.111 48.2194 108.256 48.156C108.4 48.0925 108.564 48.0848 108.714 48.1342C108.864 48.1836 108.99 48.2868 109.069 48.4239C111.648 54.3537 114.509 60.8822 116.922 67.514Z" fill="white"/>
<path d="M125.6 42.4502C126.29 44.4263 127.001 46.4027 127.752 48.4947C132.56 61.8764 138.009 77.0407 137.502 91.2949C137.128 101.762 130.117 107.435 122.692 113.44L122.198 113.839C111.944 122.142 101.339 130.73 91.8844 140.611C74.2323 159.063 59.2165 181.944 45.9778 210.556C45.9066 210.71 45.7772 210.829 45.6181 210.887C45.459 210.946 45.2832 210.938 45.1294 210.867C44.9756 210.796 44.8563 210.667 44.7979 210.508C44.7395 210.348 44.7467 210.173 44.8179 210.019C58.1168 181.282 73.2117 158.291 90.9736 139.731C100.483 129.792 111.12 121.179 121.407 112.848L121.898 112.45C129.402 106.381 135.879 101.13 136.233 91.2474C136.735 77.2471 131.327 62.1976 126.559 48.926C125.798 46.835 125.096 44.8528 124.404 42.8718C124.363 42.7176 124.382 42.5536 124.456 42.4121C124.529 42.2706 124.654 42.1618 124.804 42.1072C124.954 42.0526 125.119 42.0561 125.266 42.1171C125.414 42.178 125.533 42.2919 125.601 42.4365L125.6 42.4502Z" fill="white"/>
<path d="M142.11 36.4406L142.128 36.4908C142.721 38.6564 143.33 40.8273 143.979 43.1323C148.624 59.6161 153.87 78.3087 151.819 95.2517C150.472 106.438 144.416 112.376 134.425 118.849C118.457 129.191 107.156 138.257 97.7811 148.245C79.4613 167.758 64.9202 192.799 52.0183 227.048C51.9586 227.207 51.8383 227.336 51.6838 227.406C51.5292 227.477 51.3531 227.483 51.1941 227.423C51.0352 227.363 50.9064 227.243 50.8362 227.088C50.766 226.934 50.76 226.758 50.8196 226.599C63.7804 192.176 78.4105 167 96.8436 147.359C106.291 137.296 117.667 128.167 133.722 117.767C143.396 111.501 149.249 105.781 150.543 95.0876C152.562 78.4 147.347 59.8427 142.742 43.469C142.094 41.1687 141.486 38.9979 140.893 36.8266C140.857 36.67 140.881 36.5054 140.96 36.3657C141.04 36.226 141.169 36.1214 141.322 36.0728C141.476 36.0242 141.641 36.0352 141.787 36.1035C141.933 36.1718 142.047 36.2925 142.107 36.4414L142.11 36.4406Z" fill="white"/>
<path d="M158.625 30.4297L158.656 30.5158C159.092 32.5923 159.546 34.711 160.007 36.8625C164.414 57.4185 169.41 80.7184 164.788 100.989C161.848 113.889 152.604 120.269 143.947 124.807C126.685 133.856 113.755 143.347 103.254 154.676C92.6296 166.13 83.6102 179.789 75.6705 196.415C69.3786 209.559 63.7794 224.532 58.0432 243.542C58.0251 243.629 57.9892 243.711 57.9376 243.783C57.886 243.855 57.82 243.916 57.7437 243.961C57.6674 244.007 57.5825 244.036 57.4945 244.046C57.4064 244.057 57.317 244.049 57.2321 244.023C57.1472 243.998 57.0686 243.955 57.0013 243.897C56.934 243.839 56.8794 243.768 56.8411 243.688C56.8028 243.608 56.7816 243.521 56.7789 243.432C56.7761 243.343 56.7918 243.255 56.825 243.173C62.5805 224.104 68.2006 209.07 74.5093 195.86C82.5089 179.131 91.602 165.368 102.313 153.811C112.914 142.366 125.955 132.797 143.349 123.678C149.037 120.697 153.122 117.777 156.255 114.472C159.929 110.588 162.312 106.088 163.536 100.714C168.096 80.7173 163.132 57.5655 158.75 37.1385C158.289 34.9846 157.834 32.8659 157.399 30.7837C157.363 30.6242 157.389 30.4568 157.472 30.316C157.556 30.1752 157.69 30.0718 157.847 30.027C158.005 29.9823 158.173 29.9995 158.318 30.0753C158.463 30.1511 158.574 30.2797 158.627 30.4345L158.625 30.4297Z" fill="white"/>
<path d="M175.092 24.4358C175.108 24.4817 175.119 24.5295 175.124 24.5782C175.656 28.8984 176.262 33.227 176.906 37.8099C180.138 60.9011 183.498 84.7749 176.786 106.53C172.286 121.121 161.633 127.269 150.789 131.742C132.266 139.38 117.722 149.451 106.326 162.529C95.6276 174.821 86.8736 189.91 79.591 208.684C73.2391 225.057 68.6571 242.415 64.1417 260.239C64.1212 260.32 64.0848 260.397 64.0347 260.464C63.9846 260.531 63.9216 260.588 63.8495 260.632C63.7774 260.675 63.6975 260.703 63.6144 260.715C63.5313 260.728 63.4465 260.723 63.3651 260.703C63.2836 260.682 63.207 260.646 63.1395 260.596C63.0721 260.546 63.0152 260.483 62.9721 260.411C62.929 260.338 62.9006 260.259 62.8883 260.175C62.8761 260.092 62.8804 260.008 62.9009 259.926C67.428 242.06 72.0131 224.666 78.4002 208.226C85.7358 189.3 94.5599 174.091 105.356 161.695C116.884 148.466 131.585 138.284 150.297 130.566C168.153 123.203 172.992 114.484 175.553 106.164C182.179 84.678 178.849 60.9476 175.627 37.9962C174.982 33.411 174.374 29.0752 173.843 24.7413C173.823 24.6595 173.82 24.5746 173.833 24.4916C173.846 24.4085 173.875 24.3288 173.919 24.2571C173.963 24.1853 174.021 24.123 174.089 24.0735C174.157 24.0241 174.234 23.9885 174.316 23.9689C174.398 23.9492 174.483 23.9459 174.566 23.9591C174.649 23.9723 174.729 24.0016 174.8 24.0456C174.872 24.0896 174.934 24.1472 174.984 24.2153C175.033 24.2834 175.069 24.3605 175.088 24.4423L175.092 24.4358Z" fill="white"/>
<path d="M191.569 18.439C191.592 18.506 191.605 18.5763 191.607 18.6473C191.763 28.5092 192.214 38.6056 192.649 48.3689C193.112 58.7967 193.595 69.5775 193.72 80.12C193.853 90.966 191.614 102.74 187.418 113.268C184.424 120.784 180.223 126.7 174.94 130.852C170.095 134.662 164.177 136.596 158.457 138.477C157.558 138.769 156.66 139.064 155.772 139.363C134.98 146.359 119.96 156.35 108.466 170.818C87.7636 196.88 80.3911 230.726 73.2588 263.461C72.2857 267.933 71.2764 272.56 70.2613 277.029C70.2237 277.194 70.1221 277.337 69.9786 277.428C69.8352 277.518 69.6617 277.548 69.4965 277.51C69.3312 277.473 69.1876 277.371 69.0972 277.227C69.0069 277.084 68.9773 276.911 69.0149 276.745C70.0293 272.282 71.037 267.659 72.0119 263.191C79.1742 230.316 86.5797 196.322 107.46 170.019C119.107 155.355 134.321 145.211 155.36 138.142C156.253 137.841 157.153 137.546 158.056 137.25C163.674 135.414 169.48 133.517 174.149 129.848C179.253 125.836 183.318 120.098 186.229 112.793C190.364 102.418 192.573 90.8198 192.442 80.1356C192.314 69.6157 191.833 58.8421 191.371 48.4247C190.936 38.6534 190.485 28.549 190.327 18.6686C190.323 18.5165 190.374 18.3679 190.47 18.2497C190.565 18.1315 190.7 18.0513 190.85 18.0236C191 17.996 191.154 18.0226 191.286 18.0987C191.418 18.1749 191.518 18.2955 191.569 18.439V18.439Z" fill="white"/>
<path d="M208.078 12.4297C208.111 12.5193 208.123 12.6151 208.113 12.7098C206.77 26.6696 206.242 40.942 205.73 54.7429C205.441 62.5673 205.141 70.6553 204.696 78.5958L204.626 79.8461C203.877 93.3104 203.102 107.223 197.019 119.847C192.57 129.052 187.625 135.379 181.895 139.169C176.346 142.815 169.577 144.674 163.029 146.461C161.75 146.81 160.545 147.14 159.337 147.485L157.865 147.905C149.929 150.167 141.722 152.504 134.546 156.587C126.017 161.441 117.86 169.087 110.947 178.701C101.389 191.996 96.5909 207.533 92.1311 223.619C87.9064 238.847 84.6794 254.508 81.5508 269.644C79.9115 277.594 78.2223 285.808 76.3919 293.895C76.3544 294.061 76.2527 294.204 76.1092 294.294C75.9658 294.385 75.7924 294.414 75.6271 294.377C75.4618 294.339 75.3182 294.238 75.2279 294.094C75.1376 293.951 75.1079 293.777 75.1455 293.612C76.9659 285.542 78.6607 277.328 80.3002 269.386C83.4273 254.225 86.6619 238.547 90.894 223.265C95.3957 207.063 100.231 191.407 109.911 177.938C116.924 168.176 125.23 160.401 133.916 155.459C141.227 151.3 149.506 148.939 157.516 146.658L158.989 146.238C160.202 145.892 161.468 145.545 162.693 145.21C169.145 143.449 175.819 141.627 181.191 138.084C186.731 134.442 191.532 128.284 195.872 119.284C201.846 106.897 202.602 93.1109 203.356 79.7665L203.425 78.5194C203.868 70.5878 204.169 62.5046 204.459 54.6883C204.969 40.8689 205.5 26.5762 206.846 12.5802C206.86 12.4354 206.922 12.2995 207.023 12.1949C207.124 12.0903 207.258 12.0232 207.402 12.0048C207.546 11.9864 207.692 12.0178 207.816 12.0937C207.94 12.1696 208.035 12.2855 208.084 12.4223L208.078 12.4297Z" fill="white"/>
<path d="M224.632 6.40565C224.675 6.52101 224.682 6.6461 224.655 6.76585C220.72 24.1452 218.892 42.1017 217.123 59.4679C216.655 64.057 216.184 68.7992 215.656 73.4753C215.467 75.1879 215.283 76.9173 215.106 78.6634C213.416 94.5052 211.662 110.887 205.596 125.298C201.84 134.214 195.996 141.017 187.729 146.099C179.719 151.024 170.221 153.826 161.984 155.932C146.348 159.914 138.482 163.969 133.924 166.674C124.77 172.105 118.043 179.081 113.357 188.002C105.119 203.688 100.888 221.416 96.9361 239.715C94.9348 248.978 93.239 258.425 91.5975 267.56C89.0426 281.792 86.402 296.512 82.5524 310.82C82.5086 310.984 82.4015 311.124 82.2546 311.209C82.1077 311.294 81.933 311.317 81.7691 311.273C81.6051 311.229 81.4653 311.122 81.3803 310.975C81.2953 310.828 81.2722 310.654 81.316 310.49C85.1516 296.232 87.789 281.541 90.3397 267.335C91.9826 258.189 93.6797 248.73 95.6868 239.446C99.6567 221.054 103.911 203.236 112.237 187.402C117.039 178.265 123.923 171.124 133.28 165.57C142.933 159.843 154.109 156.618 161.674 154.693C169.817 152.618 179.2 149.845 187.064 145.01C195.096 140.071 200.776 133.463 204.423 124.801C210.423 110.564 212.16 94.2769 213.84 78.5281C214.026 76.7806 214.209 75.0497 214.389 73.3351C214.904 68.669 215.386 63.9257 215.854 59.339C217.626 41.9366 219.459 23.9405 223.412 6.48411C223.442 6.34952 223.516 6.22843 223.621 6.13897C223.726 6.04951 223.857 5.99648 223.995 5.98782C224.133 5.97916 224.27 6.01532 224.385 6.09091C224.501 6.1665 224.588 6.27747 224.636 6.40718L224.632 6.40565Z" fill="white"/>
<path d="M240.68 0.564749C240.735 0.713302 240.731 0.877058 240.671 1.02329C232.402 21.3915 229.506 43.4324 226.705 64.745C223.949 85.7133 221.096 107.397 213.149 127.629C208.122 140.415 200.954 149.408 191.229 155.115C182.952 159.975 173.518 162.284 164.413 164.512L163.888 164.641C154.862 166.842 145.536 169.134 137.422 173.897C127.954 179.454 120.965 188.234 116.037 200.749C108.142 220.811 105.316 242.411 102.557 263.311C99.7462 284.702 96.8374 306.821 88.5056 327.342C88.4773 327.424 88.4326 327.5 88.3742 327.564C88.3158 327.628 88.245 327.68 88.1659 327.716C88.0869 327.752 88.0014 327.771 87.9146 327.773C87.8278 327.775 87.7416 327.759 87.6612 327.726C87.5807 327.694 87.5078 327.645 87.4468 327.583C87.3858 327.521 87.338 327.448 87.3064 327.367C87.2747 327.286 87.2599 327.2 87.2628 327.113C87.2656 327.026 87.2862 326.941 87.3231 326.862C95.5866 306.496 98.4887 284.456 101.29 263.143C104.045 242.172 106.897 220.486 114.846 200.267C119.875 187.48 127.044 178.487 136.768 172.78C145.047 167.922 154.479 165.611 163.58 163.385L164.105 163.256C173.13 161.055 182.459 158.762 190.578 153.997C200.044 148.441 207.035 139.66 211.963 127.148C219.856 107.073 222.697 85.4672 225.442 64.5734C228.255 43.1807 231.162 21.0574 239.494 0.538355C239.543 0.418944 239.627 0.317059 239.734 0.246082C239.842 0.175104 239.969 0.138358 240.098 0.140674C240.227 0.142989 240.352 0.184247 240.457 0.259044C240.562 0.333841 240.642 0.438658 240.686 0.559739L240.68 0.564749Z" fill="white"/>
<path d="M246.667 17.0115C246.711 17.1347 246.717 17.2684 246.685 17.3952C242.896 31.47 240.289 45.9741 237.779 59.9955C236.241 68.5667 234.642 77.4312 232.8 86.1348C228.53 106.262 224.299 124.242 215.775 140.477C210.973 149.615 204.09 156.757 194.732 162.311C185.079 168.035 173.906 171.259 166.338 173.187C158.189 175.265 148.8 178.038 140.931 182.86C132.857 187.809 127.173 194.413 123.588 203.077C117.746 217.151 115.985 233.081 114.282 248.486L113.852 252.344C113.255 257.655 112.704 263.057 112.173 268.284C110.395 285.775 108.559 303.873 104.586 321.402C104.549 321.567 104.447 321.711 104.304 321.802C104.16 321.893 103.986 321.922 103.821 321.885C103.655 321.847 103.511 321.746 103.421 321.602C103.33 321.459 103.3 321.285 103.338 321.119C107.289 303.658 109.119 285.611 110.894 268.156C111.429 262.928 111.976 257.521 112.576 252.201L113.006 248.338C114.721 232.845 116.494 216.822 122.404 202.578C126.101 193.671 131.943 186.861 140.259 181.764C148.27 176.851 157.766 174.037 166.018 171.944C178.083 168.869 186.725 165.561 194.079 161.202C203.232 155.771 209.959 148.795 214.645 139.872C223.097 123.791 227.3 105.891 231.561 85.857C233.407 77.171 234.994 68.3189 236.53 59.759C239.051 45.7091 241.658 31.1785 245.459 17.0501C245.494 16.9183 245.57 16.801 245.677 16.7156C245.783 16.6302 245.914 16.581 246.05 16.5753C246.186 16.5696 246.321 16.6077 246.434 16.6839C246.547 16.7602 246.633 16.8706 246.679 16.9991L246.667 17.0115Z" fill="white"/>
<path d="M252.822 33.9241C252.864 34.0395 252.872 34.1646 252.845 34.2843C251.025 42.3567 249.33 50.5706 247.691 58.5124C244.564 73.6742 241.329 89.3519 237.092 104.62C232.594 120.839 227.753 136.51 218.083 149.946C211.106 159.636 202.805 167.409 194.079 172.422C186.88 176.56 178.682 178.89 170.752 181.146L169.011 181.641C167.785 181.995 166.525 182.337 165.297 182.67C158.848 184.432 152.182 186.252 146.808 189.793C141.333 193.411 136.391 199.732 132.129 208.596C126.154 221.017 125.384 234.841 124.64 248.212L124.576 249.362C124.132 257.289 123.832 265.369 123.542 273.185C123.03 287.008 122.501 301.3 121.154 315.299C121.138 315.468 121.055 315.624 120.924 315.732C120.794 315.84 120.625 315.892 120.456 315.875C120.287 315.859 120.131 315.777 120.023 315.646C119.915 315.515 119.864 315.347 119.88 315.178C121.224 301.215 121.754 286.941 122.262 273.128C122.553 265.309 122.853 257.223 123.296 249.284L123.362 248.132C124.113 234.637 124.889 220.684 130.982 208.029C135.347 198.955 140.437 192.455 146.107 188.707C151.656 185.061 158.42 183.204 164.963 181.418C166.245 181.068 167.455 180.739 168.655 180.394L170.398 179.898C178.255 177.664 186.377 175.356 193.439 171.295C202.008 166.372 210.17 158.725 217.043 149.179C226.577 135.922 231.39 120.367 235.857 104.265C240.07 89.0408 243.309 73.375 246.435 58.2406C248.077 50.2899 249.763 42.0738 251.595 33.9858C251.626 33.8512 251.699 33.7301 251.804 33.6407C251.91 33.5512 252.041 33.4982 252.179 33.4895C252.316 33.4809 252.453 33.517 252.569 33.5926C252.684 33.6682 252.772 33.7792 252.819 33.9089L252.822 33.9241Z" fill="white"/>
<path d="M258.957 50.779C258.999 50.8943 259.007 51.0194 258.98 51.1392C257.965 55.6079 256.956 60.2367 255.982 64.7124C248.823 97.5816 241.418 131.57 220.531 157.875C208.888 172.53 193.674 182.673 172.635 189.743C171.684 190.064 170.722 190.377 169.758 190.69C164.429 192.424 158.902 194.218 154.428 197.581C149.072 201.616 144.809 207.503 141.765 215.091C137.63 225.407 135.425 237.004 135.553 247.749C135.681 258.269 136.161 269.04 136.624 279.454C137.058 289.229 137.509 299.335 137.667 309.216C137.67 309.385 137.606 309.549 137.488 309.671C137.37 309.793 137.208 309.863 137.038 309.866C136.869 309.869 136.705 309.804 136.583 309.686C136.461 309.568 136.391 309.407 136.388 309.237C136.231 299.373 135.78 289.276 135.347 279.512C134.882 269.085 134.401 258.304 134.275 247.764C134.143 236.856 136.383 225.084 140.579 214.616C143.697 206.807 148.112 200.728 153.66 196.557C158.304 193.068 163.918 191.244 169.366 189.486C170.335 189.171 171.285 188.863 172.231 188.543C193.023 181.547 208.043 171.556 219.538 157.09C240.236 131.019 247.608 97.1783 254.735 64.4509C255.711 59.9719 256.722 55.3422 257.738 50.8678C257.768 50.7332 257.842 50.6122 257.947 50.5227C258.052 50.4333 258.183 50.3802 258.321 50.3716C258.459 50.3629 258.596 50.3991 258.711 50.4747C258.826 50.5503 258.914 50.6612 258.962 50.7909L258.957 50.779Z" fill="white"/>
<path d="M265.073 67.5828C265.117 67.7029 265.124 67.8335 265.093 67.9576C260.63 85.5673 256.109 102.721 249.879 118.939C242.712 137.598 234.132 152.674 223.652 165.029C211.938 178.835 196.903 189.395 177.696 197.323C170.865 200.14 166.12 202.878 162.305 206.204C157.812 210.117 154.68 214.904 152.729 220.835C145.647 242.378 149.046 266.457 152.343 289.75C152.997 294.389 153.616 298.769 154.155 303.146C154.165 303.31 154.112 303.47 154.008 303.596C153.903 303.721 153.754 303.802 153.592 303.822C153.43 303.842 153.266 303.799 153.134 303.702C153.003 303.605 152.913 303.461 152.884 303.3C152.35 298.946 151.732 294.567 151.078 289.928C147.922 267.582 144.347 242.255 151.523 220.434C156.104 206.504 166.58 200.524 177.219 196.137C196.241 188.29 211.115 177.839 222.692 164.194C233.081 151.952 241.588 136.996 248.703 118.476C254.907 102.321 259.417 85.2122 263.869 67.6391C263.889 67.5577 263.926 67.4812 263.976 67.4139C264.027 67.3466 264.09 67.2899 264.162 67.247C264.234 67.2041 264.314 67.1759 264.397 67.1639C264.48 67.152 264.565 67.1565 264.646 67.1773C264.745 67.2051 264.835 67.2566 264.91 67.3273C264.984 67.398 265.04 67.4857 265.073 67.5828V67.5828Z" fill="white"/>
<path d="M271.157 84.298C271.205 84.4281 271.209 84.5701 271.169 84.7028C265.512 103.454 260.001 118.259 253.83 131.288C246.014 147.777 237.169 161.374 226.762 172.872C215.891 184.878 202.513 194.831 184.642 204.188C179.099 207.094 175.077 209.918 172.009 213.064C168.39 216.726 165.842 221.307 164.639 226.313C159.66 246.278 164.7 269.7 169.148 290.363C169.651 292.697 170.125 294.9 170.584 297.098C170.619 297.265 170.586 297.439 170.493 297.582C170.399 297.725 170.253 297.825 170.086 297.859C169.919 297.894 169.745 297.861 169.603 297.768C169.46 297.675 169.36 297.528 169.325 297.362C168.866 295.169 168.392 292.965 167.89 290.634C163.414 269.835 158.339 246.26 163.391 226.009C166.453 213.729 175.546 207.523 184.032 203.071C201.759 193.78 215.027 183.911 225.794 172.022C236.119 160.618 244.906 147.116 252.655 130.749C258.821 117.778 264.31 103.033 269.951 84.3414C269.99 84.213 270.068 84.1 270.175 84.0185C270.281 83.937 270.411 83.8911 270.545 83.8873C270.679 83.8834 270.811 83.9219 270.922 83.9971C271.033 84.0724 271.117 84.1807 271.163 84.3067L271.157 84.298Z" fill="white"/>
<path d="M277.182 100.852C277.234 100.995 277.233 101.151 277.18 101.294C264.432 135.133 250.17 159.92 232.299 179.305C222.512 189.911 210.785 199.42 194.268 210.116C181.77 218.208 178.687 224.254 177.567 231.968C175.144 248.657 180.455 267.447 185.136 284.029C185.824 286.464 186.475 288.765 187.101 291.057C187.139 291.219 187.113 291.389 187.029 291.532C186.944 291.675 186.807 291.779 186.647 291.823C186.486 291.866 186.315 291.846 186.17 291.765C186.025 291.685 185.916 291.551 185.868 291.392C185.245 289.107 184.595 286.808 183.908 284.376C179.182 267.672 173.846 248.752 176.302 231.784C178.011 220.007 185.447 214.307 193.574 209.043C209.996 198.406 221.649 188.968 231.358 178.439C249.115 159.182 263.296 134.527 275.982 100.847C276.028 100.724 276.11 100.618 276.218 100.544C276.326 100.47 276.454 100.43 276.585 100.431C276.716 100.432 276.843 100.473 276.95 100.548C277.057 100.624 277.138 100.731 277.182 100.854L277.182 100.852Z" fill="white"/>
<path d="M283.196 117.374C283.225 117.452 283.238 117.536 283.234 117.619C283.231 117.703 283.211 117.785 283.175 117.861C270.149 146.014 255.449 168.593 238.23 186.895C228.265 197.482 216.757 206.805 206.597 215.03L205.811 215.669C198.9 221.248 192.391 226.514 191.817 235.812C190.946 249.893 196.459 265.151 201.317 278.611C202.123 280.824 202.873 282.922 203.601 285.004C203.642 285.158 203.623 285.322 203.55 285.463C203.476 285.605 203.352 285.714 203.202 285.768C203.052 285.823 202.887 285.819 202.739 285.758C202.592 285.697 202.472 285.583 202.404 285.439V285.439C201.678 283.36 200.922 281.27 200.126 279.059C195.223 265.478 189.663 250.083 190.549 235.746C191.14 225.861 197.879 220.428 205.006 214.672L205.797 214.024C215.926 205.823 227.406 196.527 237.305 186.007C254.428 167.807 269.054 145.336 282.021 117.311C282.075 117.196 282.161 117.1 282.269 117.034C282.377 116.968 282.502 116.935 282.628 116.941C282.755 116.946 282.877 116.989 282.979 117.064C283.081 117.138 283.159 117.242 283.202 117.361L283.196 117.374Z" fill="white"/>
<path d="M289.205 133.885C289.236 133.971 289.249 134.062 289.242 134.154C289.235 134.245 289.208 134.334 289.164 134.414C277.302 155.718 263.053 175.602 246.693 193.683C241.333 199.622 235.511 205.236 229.879 210.664C227.029 213.411 224.083 216.253 221.232 219.1C216.288 224.024 208.832 231.49 207.626 239.894C207.047 243.914 208.502 248.478 209.78 252.511L210.207 253.856C212.903 262.482 216.723 271.23 220.096 278.949C220.141 279.027 220.169 279.114 220.178 279.203C220.187 279.293 220.178 279.384 220.149 279.469C220.121 279.555 220.075 279.633 220.015 279.7C219.954 279.767 219.88 279.82 219.797 279.856C219.715 279.892 219.626 279.911 219.536 279.91C219.445 279.909 219.356 279.89 219.274 279.853C219.192 279.815 219.119 279.761 219.059 279.694C219 279.626 218.955 279.547 218.928 279.461C215.544 271.711 211.708 262.928 208.991 254.236L208.565 252.896C207.239 248.737 205.737 244.023 206.357 239.711C207.626 230.885 215.267 223.249 220.328 218.196C223.187 215.338 226.137 212.495 228.991 209.744C234.607 204.329 240.413 198.732 245.744 192.825C262.039 174.821 276.232 155.021 288.049 133.807C288.108 133.699 288.197 133.611 288.305 133.553C288.413 133.495 288.536 133.469 288.658 133.478C288.78 133.488 288.897 133.532 288.995 133.607C289.093 133.681 289.167 133.781 289.209 133.897L289.205 133.885Z" fill="white"/>
<path d="M295.215 150.396C295.249 150.489 295.261 150.588 295.25 150.687C295.239 150.785 295.204 150.879 295.15 150.962C284.474 167.462 272.08 183.797 258.316 199.509C255.529 202.69 252.61 205.852 249.788 208.906C245.737 213.296 241.544 217.835 237.67 222.51C233.343 227.742 228.728 234.096 227.373 241.509C225.447 252.066 230.504 261.502 235.4 270.641C235.803 271.392 236.215 272.138 236.602 272.889C236.682 273.039 236.699 273.215 236.649 273.378C236.599 273.541 236.487 273.678 236.336 273.758C236.185 273.838 236.009 273.855 235.846 273.805C235.683 273.755 235.547 273.642 235.467 273.492L234.268 271.246C229.272 261.92 224.112 252.276 226.111 241.28C227.518 233.577 232.243 227.056 236.68 221.694C240.568 216.998 244.77 212.448 248.835 208.045C251.651 204.996 254.564 201.841 257.344 198.67C271.068 183.003 283.424 166.72 294.07 150.271C294.134 150.172 294.225 150.093 294.332 150.043C294.439 149.993 294.558 149.973 294.676 149.987C294.793 150 294.904 150.046 294.997 150.119C295.09 150.193 295.16 150.29 295.201 150.401L295.215 150.396Z" fill="white"/>
<path d="M301.218 166.89C301.253 166.987 301.265 167.092 301.251 167.195C301.237 167.298 301.198 167.396 301.137 167.48C294.27 177.064 286.519 186.363 279.023 195.356C270.938 205.056 262.577 215.084 255.329 225.473C245.889 238.99 245.256 251.744 253.237 266.837C253.276 266.912 253.3 266.993 253.308 267.077C253.316 267.161 253.307 267.246 253.282 267.327C253.231 267.489 253.118 267.625 252.967 267.705C252.817 267.784 252.64 267.8 252.478 267.75C252.315 267.699 252.179 267.586 252.1 267.435C243.868 251.867 244.54 238.699 254.275 224.743C261.554 214.31 269.933 204.259 278.037 194.539C285.516 185.564 293.252 176.284 300.091 166.734C300.158 166.639 300.25 166.565 300.357 166.519C300.464 166.473 300.582 166.456 300.697 166.472C300.812 166.488 300.921 166.535 301.012 166.608C301.102 166.681 301.171 166.777 301.211 166.887L301.218 166.89Z" fill="white"/>
<path d="M307.208 183.344C307.244 183.445 307.255 183.553 307.239 183.659C307.223 183.764 307.181 183.864 307.116 183.949C303.41 188.848 299.39 193.771 295.502 198.534C287.762 208.019 279.764 217.823 273.511 228.238C266.708 239.584 265.633 249.626 270.048 260.78L270.057 260.807C270.101 260.961 270.085 261.125 270.013 261.268C269.941 261.41 269.819 261.521 269.669 261.578C269.52 261.634 269.355 261.633 269.206 261.574C269.058 261.515 268.937 261.403 268.867 261.259C264.296 249.698 265.395 239.309 272.424 227.588C278.716 217.096 286.752 207.254 294.52 197.735C298.4 192.979 302.412 188.065 306.106 183.184C306.208 183.049 306.36 182.96 306.528 182.937C306.695 182.913 306.866 182.957 307.001 183.059C307.095 183.134 307.166 183.232 307.208 183.344V183.344Z" fill="white"/>
<path d="M313.215 199.852C313.252 199.953 313.263 200.061 313.247 200.166C313.231 200.272 313.188 200.372 313.124 200.457C311.357 202.772 309.4 205.18 307.326 207.729C296.459 221.091 282.936 237.72 286.911 254.759C286.93 254.841 286.933 254.926 286.919 255.009C286.905 255.093 286.875 255.172 286.831 255.244C286.787 255.315 286.729 255.377 286.66 255.426C286.592 255.475 286.514 255.51 286.432 255.53C286.35 255.549 286.265 255.552 286.182 255.538C286.099 255.524 286.02 255.494 285.948 255.45C285.877 255.406 285.815 255.347 285.766 255.279C285.717 255.211 285.681 255.133 285.662 255.051C281.541 237.402 295.285 220.502 306.328 206.924C308.385 204.388 310.347 201.983 312.09 199.679C312.16 199.588 312.253 199.517 312.359 199.474C312.465 199.43 312.582 199.417 312.695 199.434C312.809 199.451 312.915 199.498 313.004 199.571C313.093 199.644 313.161 199.739 313.2 199.847L313.215 199.852Z" fill="white"/>
</g>
</g>
</g>
<defs>
<clipPath id="clip0_2490_58259">
<rect width="328" height="328" fill="white"/>
</clipPath>
</defs>
</svg>
