<svg width="48" height="48" viewBox="0 0 48 48" fill="none" xmlns="http://www.w3.org/2000/svg">
<g clip-path="url(#clip0_2485_57857)">
<path d="M47.2786 29.8061C44.0729 42.6642 31.0498 50.4894 18.1903 47.2829C5.33595 44.0772 -2.48929 31.0534 0.717914 18.1961C3.92211 5.33658 16.9452 -2.48941 29.801 0.716288C42.6598 3.92199 50.4843 16.9473 47.2786 29.8061Z" fill="#F3BA2F"/>
<path d="M24.0557 48.0016C37.2796 48.0016 47.9996 37.2815 47.9996 24.0577C47.9996 10.8338 37.2796 0.11377 24.0557 0.11377C10.8319 0.11377 0.111816 10.8338 0.111816 24.0577C0.111816 37.2815 10.8319 48.0016 24.0557 48.0016Z" fill="white"/>
<path d="M44.014 36.8874H34.5642V24.0576L24.0561 34.4258L13.548 24.0576V36.8874H4.09829H3.7959C8.02938 43.526 15.5136 48.0015 24.0561 48.0015C32.5987 48.0015 40.0829 43.6006 44.3164 36.8874H44.014Z" fill="#4C4C4C"/>
<path d="M8.57149 31.425V11.6967L24.0557 27.016L39.5399 11.6967V31.425H46.7156C47.5464 29.0337 47.9996 26.4929 47.9996 23.8027C47.9996 10.7252 37.274 0.11377 24.0557 0.11377C10.8375 0.11377 0.111816 10.7252 0.111816 23.8027C0.111816 26.4929 0.565013 29.0337 1.39587 31.425H8.57149V31.425Z" fill="#FF6B01"/>
</g>
<defs>
<clipPath id="clip0_2485_57857">
<rect width="48" height="48" fill="white"/>
</clipPath>
</defs>
</svg>
