<svg width="370" height="372" viewBox="0 0 370 372" fill="none" xmlns="http://www.w3.org/2000/svg">
<g clip-path="url(#clip0_2536_58146)">
<ellipse opacity="0.8" cx="202.285" cy="170.267" rx="166.593" ry="166.711" fill="#F7F9FC"/>
<path d="M362.034 43.6133H259.176C254.78 43.6133 251.216 47.1796 251.216 51.5789V128.385C251.216 132.784 254.78 136.35 259.176 136.35H362.034C366.43 136.35 369.994 132.784 369.994 128.385V51.5789C369.994 47.1796 366.43 43.6133 362.034 43.6133Z" fill="#E9EAF3"/>
<path d="M251.216 62.3711H370" stroke="#D0D6FA" stroke-width="0.874557" stroke-miterlimit="10"/>
<path d="M261.537 55.6134C262.787 55.6134 263.8 54.5994 263.8 53.3487C263.8 52.0979 262.787 51.084 261.537 51.084C260.287 51.084 259.274 52.0979 259.274 53.3487C259.274 54.5994 260.287 55.6134 261.537 55.6134Z" fill="#FF414C"/>
<path d="M268.44 55.6134C269.69 55.6134 270.703 54.5994 270.703 53.3487C270.703 52.0979 269.69 51.084 268.44 51.084C267.19 51.084 266.177 52.0979 266.177 53.3487C266.177 54.5994 267.19 55.6134 268.44 55.6134Z" fill="#FFC147" stroke="#FFC147" stroke-width="0.87865" stroke-miterlimit="10"/>
<path d="M275.343 55.6134C276.593 55.6134 277.606 54.5994 277.606 53.3487C277.606 52.0979 276.593 51.084 275.343 51.084C274.093 51.084 273.08 52.0979 273.08 53.3487C273.08 54.5994 274.093 55.6134 275.343 55.6134Z" fill="#66DD63"/>
<path d="M330.732 107.961H68.0272C64.9851 107.961 62.519 110.429 62.519 113.473V332.436C62.519 335.481 64.9851 337.948 68.0272 337.948H330.732C333.774 337.948 336.24 335.481 336.24 332.436V113.473C336.24 110.429 333.774 107.961 330.732 107.961Z" fill="white"/>
<path d="M62.519 135.639H336.24" stroke="#E9EAF3" stroke-width="1.49848" stroke-miterlimit="10"/>
<path d="M330.732 107.961H68.0272C64.9851 107.961 62.519 110.429 62.519 113.473V332.436C62.519 335.481 64.9851 337.948 68.0272 337.948H330.732C333.774 337.948 336.24 335.481 336.24 332.436V113.473C336.24 110.429 333.774 107.961 330.732 107.961Z" stroke="#E9EAF3" stroke-width="1.49848" stroke-miterlimit="10"/>
<path d="M213.681 256.17L213.111 248.461L164.924 250.828V258.298C164.924 258.298 154.085 268.613 149.809 337.255H236.545C236.545 337.255 246.06 276.484 213.681 256.17Z" fill="#1476FF"/>
<path d="M164.924 258.267L213.681 256.17" stroke="#1045CC" stroke-width="1.19724" stroke-miterlimit="10"/>
<path d="M174.885 289.922L184.877 293.992L190.223 337.233" stroke="#1045CC" stroke-width="1.19724" stroke-miterlimit="10"/>
<path d="M112.247 241.237L125.559 197.295L154.833 208.273L140.782 250.388C139.524 254.119 136.851 257.204 133.339 258.979C129.827 260.754 125.758 261.075 122.011 259.874C118.265 258.672 115.141 256.044 113.314 252.557C111.487 249.07 111.104 245.004 112.247 241.237V241.237Z" fill="#FFE3D3"/>
<path d="M132.785 173.76C133.383 171.73 134.381 169.839 135.719 168.2C137.058 166.561 138.71 165.205 140.579 164.214C142.448 163.222 144.496 162.614 146.603 162.425C148.71 162.236 150.833 162.47 152.848 163.113C154.864 163.757 156.73 164.796 158.339 166.171C159.947 167.546 161.265 169.229 162.215 171.12C163.164 173.012 163.727 175.074 163.87 177.186C164.012 179.298 163.732 181.417 163.045 183.42L154.841 208.212L125.566 197.234L132.785 173.76Z" fill="#FFB016"/>
<path d="M134.858 237.922L101.416 174.468C101.416 174.468 102.186 163.004 83.1505 162.318C82.8963 162.318 82.6344 162.28 82.3802 162.28H76.0246C75.4482 162.268 74.8868 162.464 74.4427 162.832C73.9987 163.2 73.7016 163.715 73.6056 164.284C73.5534 164.595 73.5653 164.914 73.6406 165.22C73.7159 165.526 73.8531 165.814 74.0435 166.065C74.234 166.316 74.4739 166.526 74.7483 166.681C75.0228 166.836 75.326 166.933 75.6394 166.967L82.0566 167.877L73.3283 170.189L71.6951 170.791L59.8082 162.935C59.4032 162.644 58.9012 162.522 58.4079 162.594C57.9146 162.666 57.4684 162.926 57.1631 163.321C56.8578 163.715 56.7172 164.213 56.7709 164.709C56.8245 165.205 57.0683 165.66 57.4509 165.98C58.2213 166.597 59.3691 167.607 60.6556 168.725L58.0287 167.183C57.6006 166.904 57.0793 166.806 56.5794 166.912C56.0796 167.017 55.6421 167.317 55.3632 167.746C55.0843 168.174 54.9869 168.696 55.0923 169.196C55.1978 169.696 55.4975 170.134 55.9255 170.413L58.2367 172.063L57.3276 171.708C56.8436 171.498 56.3022 171.46 55.7935 171.6C55.2848 171.74 54.8393 172.05 54.5312 172.479C54.3385 172.757 54.2102 173.074 54.1558 173.407C54.1014 173.741 54.1222 174.082 54.2168 174.407C54.3113 174.731 54.4771 175.03 54.7022 175.282C54.9272 175.534 55.2057 175.733 55.5172 175.863L68.5057 181.306C70.7475 182.247 72.8969 182.848 75.5315 182.208L87.0871 179.471L113.041 252.03L134.858 237.922Z" fill="#FFE3D3"/>
<path d="M121.128 211.875L127.322 223.616" stroke="#FFADC1" stroke-width="1.15862" stroke-miterlimit="10"/>
<path d="M158.814 162.699L146.38 163.632C146.38 163.632 128.384 188.046 164.923 250.807L213.11 248.44L216.738 180.831L210.791 161.643H189.174L158.814 162.699Z" fill="#FFB016"/>
<path d="M144.711 204.427C144.711 204.427 141.121 196.879 143.424 180.166" stroke="#FFB016" stroke-width="1.19724" stroke-miterlimit="10"/>
<path d="M256.553 232.389L236.524 191.037L209.314 206.455L229.783 245.865C231.588 249.384 234.709 252.048 238.467 253.275C242.226 254.501 246.316 254.192 249.848 252.415C253.379 250.637 256.066 247.535 257.322 243.784C258.578 240.033 258.302 235.937 256.553 232.389Z" fill="#FFE3D3"/>
<path d="M225.746 168.971C224.822 167.083 223.534 165.398 221.955 164.012C220.376 162.626 218.538 161.567 216.548 160.897C214.557 160.226 212.453 159.958 210.358 160.106C208.263 160.255 206.219 160.817 204.342 161.762C202.466 162.706 200.796 164.013 199.428 165.608C198.06 167.203 197.021 169.053 196.372 171.052C195.723 173.051 195.477 175.159 195.648 177.253C195.818 179.348 196.402 181.388 197.366 183.256L209.337 206.46L236.547 191.042L225.746 168.971Z" fill="#FFB016"/>
<path d="M209.337 206.462L199.453 187.297" stroke="#FFB016" stroke-width="1.19724" stroke-miterlimit="10"/>
<path d="M298.321 161.64C298.009 161.219 297.565 160.914 297.06 160.774C296.554 160.635 296.017 160.668 295.533 160.869L289.716 163.136L295.178 158.51C295.627 158.148 295.924 157.63 296.011 157.06C296.098 156.489 295.968 155.907 295.648 155.427C295.466 155.177 295.236 154.965 294.971 154.806C294.707 154.646 294.413 154.541 294.107 154.498C293.801 154.454 293.489 154.472 293.19 154.551C292.891 154.629 292.611 154.767 292.366 154.957L287.29 159.05L291.635 153.353C291.987 152.905 292.162 152.342 292.125 151.773C292.088 151.204 291.842 150.668 291.434 150.269C291.207 150.057 290.938 149.893 290.645 149.789C290.352 149.686 290.04 149.644 289.73 149.666C289.419 149.688 289.117 149.775 288.842 149.92C288.566 150.065 288.324 150.265 288.129 150.508L279.578 159.389L270.85 157.077L277.267 156.167C277.578 156.128 277.877 156.028 278.148 155.872C278.419 155.715 278.657 155.507 278.846 155.257C279.036 155.008 279.173 154.724 279.251 154.42C279.33 154.117 279.346 153.802 279.301 153.492C279.203 152.924 278.906 152.409 278.462 152.041C278.018 151.674 277.458 151.477 276.882 151.487H270.519C266.764 151.457 263.13 152.813 260.311 155.296L260.173 155.396C256.274 158.48 257.692 164.786 257.692 164.786L233.726 232.688L257.476 243.234L271.158 170.313H279.902C280.443 170.359 280.986 170.359 281.527 170.313H281.62C282.566 170.228 283.493 169.999 284.37 169.635L297.358 165.009C297.66 164.87 297.928 164.667 298.145 164.414C298.361 164.162 298.52 163.865 298.611 163.546C298.703 163.226 298.724 162.89 298.674 162.561C298.624 162.233 298.504 161.918 298.321 161.64Z" fill="#FFE3D3"/>
<path d="M243.025 204.426L237.848 222.504" stroke="#FFADC1" stroke-width="1.15862" stroke-miterlimit="10"/>
<path d="M157.852 106.681C156.349 107.714 146.296 110.327 146.104 112.146C146.104 112.146 149.408 125.075 146.026 127.488C136.874 134.01 133.947 146.799 133.947 146.799C133.947 146.799 158.091 164.916 222.301 145.897C222.301 145.897 223.071 138.188 211.4 132.614C208.006 131.081 205.158 128.551 203.234 125.36C202.122 123.581 201.42 121.577 201.177 119.493C200.068 113.149 182.581 89.705 157.852 106.681Z" fill="#0B0E2C"/>
<path d="M158.799 126.063C158.907 127.585 158.561 129.104 157.806 130.429C157.05 131.754 155.919 132.824 154.555 133.506C153.191 134.187 151.656 134.448 150.143 134.255C148.631 134.063 147.21 133.426 146.06 132.425C144.909 131.424 144.082 130.104 143.681 128.632C143.281 127.16 143.326 125.602 143.811 124.156C144.296 122.71 145.198 121.44 146.405 120.507C147.611 119.575 149.066 119.021 150.587 118.917C152.623 118.777 154.63 119.451 156.17 120.79C157.71 122.13 158.655 124.026 158.799 126.063V126.063Z" fill="#FFADC1"/>
<path d="M162.273 144.928L163.336 161.672C163.698 167.554 166.102 171.563 171.887 171.162C176.826 170.815 182.673 166.861 182.965 161.911L180.023 135.623L162.273 144.928Z" fill="#FFE3D3"/>
<path d="M158.815 162.699L189.175 161.643C189.175 161.643 188.443 176.591 170.378 175.188C157.852 174.216 158.815 162.699 158.815 162.699Z" fill="#FFE3D3"/>
<path d="M163.154 158.72L182.575 139.717L162.129 143.209L163.154 158.72Z" fill="#FFADC1"/>
<path d="M167.365 147.634C157.481 147.634 149.316 139.871 149.015 131.792L148.437 112.72C148.26 107.848 149.981 103.098 153.239 99.4725C156.496 95.8475 161.034 93.6314 165.894 93.2926C176.232 92.5756 187.01 100.231 187.734 110.607L188.034 125.949C188.266 137.813 179.198 146.81 167.365 147.634Z" fill="#FFE3D3"/>
<path d="M172.013 90.015C169.543 89.8849 167.068 90.145 164.679 90.7859C158.755 92.3278 148.116 96.7528 146.298 108.132C145.689 111.138 146.105 112.14 146.105 112.14C146.105 112.14 165.973 112.911 177.69 107.376C179.385 114.53 180.941 118.94 188.013 125.94L194.292 116.496L201.356 122.841C201.426 123.087 201.41 91.58 172.013 90.015Z" fill="#0B0E2C"/>
<path d="M198.345 126.139C198.452 127.661 198.106 129.18 197.351 130.505C196.595 131.83 195.464 132.901 194.1 133.582C192.736 134.263 191.201 134.524 189.689 134.331C188.176 134.139 186.755 133.502 185.605 132.501C184.455 131.5 183.627 130.18 183.227 128.708C182.826 127.236 182.871 125.679 183.356 124.232C183.841 122.786 184.744 121.516 185.95 120.584C187.156 119.651 188.612 119.097 190.132 118.993C192.168 118.853 194.176 119.527 195.715 120.867C197.255 122.206 198.2 124.103 198.345 126.139Z" fill="#FFE3D3"/>
<path d="M187.729 128.875C187.729 128.875 187.344 123.301 192.721 123.81" stroke="#E8AD8C" stroke-width="0.957793" stroke-linecap="round" stroke-linejoin="round"/>
<path d="M77.9457 125.941C80.0121 125.941 81.6871 124.265 81.6871 122.197C81.6871 120.129 80.0121 118.453 77.9457 118.453C75.8794 118.453 74.2043 120.129 74.2043 122.197C74.2043 124.265 75.8794 125.941 77.9457 125.941Z" fill="#FF5F85"/>
<path d="M89.3574 125.941C91.4237 125.941 93.0988 124.265 93.0988 122.197C93.0988 120.129 91.4237 118.453 89.3574 118.453C87.291 118.453 85.616 120.129 85.616 122.197C85.616 124.265 87.291 125.941 89.3574 125.941Z" fill="#FFC147"/>
<path d="M100.769 125.941C102.835 125.941 104.51 124.265 104.51 122.197C104.51 120.129 102.835 118.453 100.769 118.453C98.7022 118.453 97.0271 120.129 97.0271 122.197C97.0271 124.265 98.7022 125.941 100.769 125.941Z" fill="#66DD63"/>
<path d="M88.0151 283.676H20.2369C14.5804 283.676 9.99487 289.065 9.99487 295.712V359.964C9.99487 366.611 14.5804 372 20.2369 372H88.0151C93.6716 372 98.2572 366.611 98.2572 359.964V295.712C98.2572 289.065 93.6716 283.676 88.0151 283.676Z" fill="#FF414C"/>
<path d="M50.997 305.838C40.5822 305.838 32.1394 314.378 32.1394 324.912C32.1394 335.446 40.5822 343.986 50.997 343.986C61.4117 343.986 69.8545 335.446 69.8545 324.912C69.8545 319.853 67.8678 315.002 64.3313 311.425C60.7948 307.847 55.9983 305.838 50.997 305.838Z" fill="white"/>
<path d="M75.1636 344.813L69.5473 340.276C68.6976 339.431 67.3354 339.431 66.4856 340.276C66.045 340.72 65.7974 341.323 65.7974 341.953C65.7974 342.582 66.045 343.185 66.4856 343.629V343.629V343.629L71.1464 348.975C72.2827 350.124 74.1249 350.124 75.2611 348.975C76.3974 347.825 76.3974 345.962 75.2611 344.813H75.1636Z" fill="white"/>
<path d="M112.576 0H66.1388C58.3556 0 52.0461 6.89743 52.0461 15.4059V58.4507C52.0461 66.9591 58.3556 73.8565 66.1388 73.8565H112.576C120.359 73.8565 126.668 66.9591 126.668 58.4507V15.4059C126.668 6.89743 120.359 0 112.576 0Z" fill="#1476FF"/>
<path d="M80.1774 27.7623L80.1776 27.7493V27.7363C80.1776 22.7047 84.3324 18.5488 89.3573 18.5488C94.3822 18.5488 98.537 22.7047 98.537 27.7363C98.537 31.5882 96.2147 34.1851 94.3747 36.1819C94.299 36.2641 94.2234 36.3458 94.1481 36.4273C93.381 37.257 92.6417 38.0567 92.1256 38.9052C91.4855 39.9575 91.1894 41.0553 91.1894 42.442V42.455L91.1895 42.468C91.193 42.7113 91.1481 42.9529 91.0574 43.1786C90.9668 43.4043 90.8322 43.6097 90.6617 43.7828C90.4912 43.9559 90.288 44.0932 90.0641 44.187C89.8402 44.2807 89.5999 44.329 89.3573 44.329C89.1147 44.329 88.8744 44.2807 88.6505 44.187C88.4266 44.0932 88.2235 43.9559 88.0529 43.7828C87.8824 43.6097 87.7478 43.4043 87.6572 43.1786C87.5666 42.9529 87.5216 42.7113 87.5251 42.468L87.5253 42.455V42.442C87.5253 38.4412 89.8471 35.6922 91.6876 33.6948C91.7831 33.5912 91.878 33.4886 91.9722 33.3868C92.7303 32.5676 93.4376 31.8035 93.9295 31.036C94.5663 30.0424 94.8729 29.0225 94.8729 27.7363C94.8729 24.643 92.4515 22.2181 89.3573 22.2181C86.2631 22.2181 83.8417 24.643 83.8417 27.7363V27.7493L83.8419 27.7623C83.8453 28.0056 83.8004 28.2472 83.7098 28.4729C83.6191 28.6986 83.4846 28.904 83.314 29.0771C83.1435 29.2502 82.9403 29.3876 82.7164 29.4813C82.4925 29.575 82.2523 29.6233 82.0096 29.6233C81.767 29.6233 81.5268 29.575 81.3029 29.4813C81.0789 29.3876 80.8758 29.2502 80.7053 29.0771C80.5347 28.904 80.4002 28.6986 80.3095 28.4729C80.2189 28.2472 80.174 28.0056 80.1774 27.7623ZM88.0623 52.1735C88.406 51.8296 88.8718 51.6366 89.3573 51.6366C89.8428 51.6366 90.3086 51.8296 90.6523 52.1735C90.996 52.5175 91.1894 52.9843 91.1894 53.4713C91.1894 53.9582 90.996 54.425 90.6523 54.769C90.3086 55.1129 89.8428 55.3059 89.3573 55.3059C88.8718 55.3059 88.406 55.1129 88.0623 54.769C87.7186 54.425 87.5253 53.9582 87.5253 53.4713C87.5253 52.9843 87.7186 52.5175 88.0623 52.1735Z" fill="white" stroke="white" stroke-width="3.68356"/>
</g>
<defs>
<clipPath id="clip0_2536_58146">
<rect width="370" height="372.001" fill="white"/>
</clipPath>
</defs>
</svg>
