<svg width="48" height="48" viewBox="0 0 48 48" fill="none" xmlns="http://www.w3.org/2000/svg">
<rect width="48" height="48" rx="10.6667" fill="#F4F7FF"/>
<path d="M11.334 11.7597L14.1778 12.2519L15.4944 27.9379C15.5997 29.219 16.6702 30.202 17.9554 30.1979H32.8703C34.0967 30.2006 35.1371 29.2983 35.3108 28.0842L36.6082 19.118C36.7532 18.1158 36.0573 17.1861 35.0565 17.0412C34.969 17.0289 14.6344 17.0221 14.6344 17.0221" stroke="#1476FF" stroke-width="2.66667" stroke-linecap="round" stroke-linejoin="round"/>
<path d="M26.8857 22.0751H30.677" stroke="#1476FF" stroke-width="2.66667" stroke-linecap="round" stroke-linejoin="round"/>
<path fill-rule="evenodd" clip-rule="evenodd" d="M17.3561 34.9375C17.7676 34.9375 18.0998 35.2711 18.0998 35.6812C18.0998 36.0927 17.7676 36.4263 17.3561 36.4263C16.9445 36.4263 16.6123 36.0927 16.6123 35.6812C16.6123 35.2711 16.9445 34.9375 17.3561 34.9375Z" fill="#1476FF" stroke="#1476FF" stroke-width="2.66667" stroke-linecap="round" stroke-linejoin="round"/>
<path fill-rule="evenodd" clip-rule="evenodd" d="M32.7779 34.9375C33.1895 34.9375 33.5231 35.2711 33.5231 35.6812C33.5231 36.0927 33.1895 36.4263 32.7779 36.4263C32.3664 36.4263 32.0342 36.0927 32.0342 35.6812C32.0342 35.2711 32.3664 34.9375 32.7779 34.9375Z" fill="#1476FF" stroke="#1476FF" stroke-width="2.66667" stroke-linecap="round" stroke-linejoin="round"/>
</svg>
