<svg width="48" height="48" viewBox="0 0 48 48" fill="none" xmlns="http://www.w3.org/2000/svg">
<rect width="48" height="48" rx="13" fill="#FFF7E8"/>
<path fill-rule="evenodd" clip-rule="evenodd" d="M13.3983 18.3747C13.3983 13.7521 17.6805 8.79382 24.0002 8.79382C30.32 8.79382 34.6022 13.7521 34.6022 18.3747C34.6022 19.4916 34.7442 20.261 34.9321 20.8432C35.1207 21.4279 35.372 21.8791 35.6751 22.3864C35.706 22.438 35.7379 22.4911 35.7707 22.5455C36.0489 23.0075 36.3863 23.5679 36.6434 24.2405C36.9421 25.0222 37.1255 25.9233 37.1255 27.0805C37.1255 27.1189 37.1238 27.1574 37.1205 27.1957C37.0158 28.4017 36.6554 29.4785 35.9572 30.3816C35.2626 31.28 34.3101 31.9079 33.185 32.3485C30.9992 33.2045 27.9071 33.4457 24.0002 33.4457C20.0954 33.4457 17.0034 33.2085 14.8175 32.3546C13.692 31.915 12.7388 31.2874 12.0438 30.3877C11.3452 29.4834 10.9849 28.4046 10.88 27.1957C10.8767 27.1574 10.875 27.1189 10.875 27.0805C10.875 25.9233 11.0584 25.0222 11.3571 24.2405C11.6142 23.5679 11.9516 23.0075 12.2298 22.5455C12.2625 22.4911 12.2945 22.438 12.3253 22.3864C12.6284 21.8791 12.8798 21.4279 13.0684 20.8432C13.2562 20.261 13.3983 19.4916 13.3983 18.3747ZM24.0002 11.4605C19.0962 11.4605 16.0649 15.2813 16.0649 18.3747C16.0649 19.7273 15.8915 20.7778 15.6063 21.662C15.3218 22.5437 14.9423 23.2055 14.6146 23.754C14.5827 23.8073 14.5517 23.859 14.5216 23.9094C14.2316 24.3931 14.0164 24.7521 13.8481 25.1925C13.6777 25.6383 13.5478 26.1984 13.5419 27.0218C13.6177 27.8042 13.8385 28.3489 14.1541 28.7574C14.4807 29.1802 14.987 29.5579 15.7879 29.8708C17.4548 30.5219 20.0832 30.779 24.0002 30.779C27.9165 30.779 30.5457 30.5183 32.2126 29.8655C33.0139 29.5517 33.5207 29.1733 33.8475 28.7506C34.163 28.3425 34.3831 27.7996 34.4586 27.0218C34.4527 26.1984 34.3228 25.6383 34.1524 25.1925C33.9841 24.7521 33.7689 24.3931 33.4789 23.9094C33.4487 23.859 33.4177 23.8073 33.3859 23.754C33.0582 23.2055 32.6787 22.5437 32.3942 21.662C32.1089 20.7778 31.9355 19.7273 31.9355 18.3747C31.9355 15.2813 28.9042 11.4605 24.0002 11.4605Z" fill="#FFB016"/>
<path fill-rule="evenodd" clip-rule="evenodd" d="M19.6678 35.2957C20.2155 34.8035 21.0585 34.8485 21.5507 35.3963C22.9263 36.9272 24.9553 36.9142 26.3233 35.3952C26.8161 34.848 27.6592 34.8039 28.2063 35.2967C28.7535 35.7895 28.7976 36.6325 28.3048 37.1797C25.888 39.8634 22.0126 39.9002 19.5672 37.1786C19.075 36.6309 19.12 35.7878 19.6678 35.2957Z" fill="#FFB016"/>
</svg>
