<svg width="48" height="48" viewBox="0 0 48 48" fill="none" xmlns="http://www.w3.org/2000/svg">
<circle cx="24" cy="24" r="24" fill="#EDFBEE"/>
<path d="M23.7496 17.1395C23.0753 17.131 22.4029 17.2117 21.7497 17.3794C18.837 18.1092 16.0273 20.3855 14.1314 22.7036C13.885 23.017 13.751 23.404 13.751 23.8027C13.751 24.2013 13.885 24.5884 14.1314 24.9017C15.998 27.1807 18.8005 29.4971 21.7533 30.2348C22.4055 30.4009 23.0767 30.4807 23.7496 30.4721C24.4238 30.481 25.0962 30.4012 25.7495 30.2348C28.7023 29.4997 31.5075 27.1825 33.3705 24.9017C33.617 24.5884 33.751 24.2013 33.751 23.8027C33.751 23.404 33.617 23.017 33.3705 22.7036C31.4737 20.3846 28.6596 18.1083 25.7495 17.3786C25.0963 17.2112 24.4239 17.1308 23.7496 17.1395V17.1395Z" stroke="#45C74E" stroke-width="2" stroke-linecap="round" stroke-linejoin="round"/>
<circle cx="23.7508" cy="23.5558" r="1.9428" stroke="#45C74E" stroke-width="2" stroke-linecap="round" stroke-linejoin="round"/>
</svg>
