<svg width="48" height="48" viewBox="0 0 48 48" fill="none" xmlns="http://www.w3.org/2000/svg">
<g clip-path="url(#clip0_2485_57855)">
<circle cx="24" cy="24" r="24" fill="#E6007A"/>
<path d="M24.0012 14.101C27.3978 14.101 30.1513 12.4996 30.1513 10.5241C30.1513 8.54869 27.3978 6.94727 24.0012 6.94727C20.6046 6.94727 17.8511 8.54869 17.8511 10.5241C17.8511 12.4996 20.6046 14.101 24.0012 14.101Z" fill="white"/>
<path d="M24.0012 41.0517C27.3978 41.0517 30.1513 39.4503 30.1513 37.4748C30.1513 35.4994 27.3978 33.8979 24.0012 33.8979C20.6046 33.8979 17.8511 35.4994 17.8511 37.4748C17.8511 39.4503 20.6046 41.0517 24.0012 41.0517Z" fill="white"/>
<path d="M15.4301 19.0521C17.1284 16.1107 17.1174 12.9249 15.4055 11.9365C13.6936 10.9481 10.9291 12.5314 9.23081 15.4728C7.53251 18.4143 7.54353 21.6001 9.25543 22.5885C10.9673 23.5769 13.7318 21.9936 15.4301 19.0521Z" fill="white"/>
<path d="M38.7682 32.5263C40.4665 29.5848 40.4565 26.3996 38.7457 25.4119C37.035 24.4241 34.2714 26.0079 32.5731 28.9494C30.8748 31.8909 30.8849 35.0761 32.5956 36.0638C34.3064 37.0516 37.0699 35.4677 38.7682 32.5263Z" fill="white"/>
<path d="M15.406 36.063C17.1179 35.0746 17.1289 31.8888 15.4306 28.9474C13.7323 26.0059 10.9678 24.4226 9.25592 25.411C7.54402 26.3994 7.533 29.5852 9.2313 32.5267C10.9296 35.4681 13.6941 37.0514 15.406 36.063Z" fill="white"/>
<path d="M38.7472 22.5891C40.4579 21.6014 40.468 18.4162 38.7697 15.4747C37.0714 12.5332 34.3078 10.9494 32.5971 11.9371C30.8863 12.9249 30.8763 16.1101 32.5746 19.0516C34.2729 21.993 37.0364 23.5768 38.7472 22.5891Z" fill="white"/>
</g>
<defs>
<clipPath id="clip0_2485_57855">
<rect width="48" height="48" fill="white"/>
</clipPath>
</defs>
</svg>
