<svg width="48" height="48" viewBox="0 0 48 48" fill="none" xmlns="http://www.w3.org/2000/svg">
<g clip-path="url(#clip0_2485_57858)">
<path d="M47.2816 29.8062C44.0757 42.665 31.052 50.4907 18.1917 47.284C5.33673 44.0782 -2.48893 31.0536 0.718441 18.1956C3.92281 5.3354 16.9466 -2.49101 29.8031 0.714862C42.6626 3.92074 50.4875 16.9468 47.2816 29.8062Z" fill="#8247E5"/>
<path d="M31.9169 19.1798C31.3836 18.875 30.698 18.875 30.0885 19.1798L25.822 21.6939L22.9269 23.2939L18.7366 25.808C18.2033 26.1128 17.5176 26.1128 16.9081 25.808L13.6321 23.8272C13.0988 23.5224 12.7179 22.9129 12.7179 22.2272V18.4179C12.7179 17.8084 13.0226 17.1989 13.6321 16.818L16.9081 14.9133C17.4414 14.6086 18.1271 14.6086 18.7366 14.9133L22.0127 16.8942C22.546 17.1989 22.9269 17.8084 22.9269 18.4941V21.0083L25.822 19.3321V16.7418C25.822 16.1323 25.5172 15.5228 24.9078 15.1419L18.8128 11.5611C18.2795 11.2563 17.5938 11.2563 16.9843 11.5611L10.737 15.218C10.1275 15.5228 9.82275 16.1323 9.82275 16.7418V23.9034C9.82275 24.5128 10.1275 25.1223 10.737 25.5033L16.9081 29.0841C17.4414 29.3888 18.1271 29.3888 18.7366 29.0841L22.9269 26.6461L25.822 24.97L30.0123 22.532C30.5456 22.2272 31.2313 22.2272 31.8408 22.532L35.1168 24.4367C35.6501 24.7414 36.031 25.3509 36.031 26.0366V29.8459C36.031 30.4554 35.7263 31.0649 35.1168 31.4459L31.9169 33.3505C31.3836 33.6553 30.698 33.6553 30.0885 33.3505L26.8124 31.4459C26.2791 31.1411 25.8982 30.5316 25.8982 29.8459V27.4079L23.0031 29.0841V31.5982C23.0031 32.2077 23.3078 32.8172 23.9173 33.1982L30.0885 36.7789C30.6218 37.0837 31.3075 37.0837 31.9169 36.7789L38.0881 33.1982C38.6214 32.8934 39.0023 32.2839 39.0023 31.5982V24.3605C39.0023 23.751 38.6976 23.1415 38.0881 22.7606L31.9169 19.1798Z" fill="white"/>
</g>
<defs>
<clipPath id="clip0_2485_57858">
<rect width="48" height="48" fill="white"/>
</clipPath>
</defs>
</svg>
