<svg width="182" height="178" viewBox="0 0 182 178" fill="none" xmlns="http://www.w3.org/2000/svg">
<path opacity="0.06" d="M89.4552 169.951C136.098 169.951 173.913 132.137 173.913 85.3272C173.913 38.5174 135.932 0.703125 89.4552 0.703125C42.812 0.703125 4.99774 38.5174 4.99774 85.3272C4.99774 132.137 42.812 169.951 89.4552 169.951Z" fill="#0257FB"/>
<path d="M144.905 59.9489C147.162 59.9489 148.992 58.1187 148.992 55.8611C148.992 53.6036 147.162 51.7734 144.905 51.7734C142.647 51.7734 140.817 53.6036 140.817 55.8611C140.817 58.1187 142.647 59.9489 144.905 59.9489Z" fill="#0257FB"/>
<path d="M174.829 105.814C178.335 105.814 181.177 102.972 181.177 99.4658C181.177 95.9596 178.335 93.1172 174.829 93.1172C171.323 93.1172 168.48 95.9596 168.48 99.4658C168.48 102.972 171.323 105.814 174.829 105.814Z" fill="#0257FB"/>
<path d="M144.743 45.3918C146.285 45.3918 147.535 44.142 147.535 42.6002C147.535 41.0584 146.285 39.8086 144.743 39.8086C143.202 39.8086 141.952 41.0584 141.952 42.6002C141.952 44.142 143.202 45.3918 144.743 45.3918Z" fill="#0257FB"/>
<path d="M31.6839 54.5637C33.2256 54.5637 34.4755 53.3138 34.4755 51.7721C34.4755 50.2303 33.2256 48.9805 31.6839 48.9805C30.1421 48.9805 28.8923 50.2303 28.8923 51.7721C28.8923 53.3138 30.1421 54.5637 31.6839 54.5637Z" fill="#0257FB"/>
<path d="M7.39388 95.4153C11.0607 95.4153 14.0332 92.4428 14.0332 88.776C14.0332 85.1092 11.0607 82.1367 7.39388 82.1367C3.7271 82.1367 0.754578 85.1092 0.754578 88.776C0.754578 92.4428 3.7271 95.4153 7.39388 95.4153Z" fill="#0257FB"/>
<g filter="url(#filter0_d_2436_64092)">
<path d="M145.684 72.2028V126.181C145.684 126.404 145.684 126.515 145.684 126.738C145.572 129.854 144.125 132.525 141.9 134.417C140.008 136.086 137.448 137.199 134.665 137.199H47.5209C45.6289 137.199 43.8482 136.754 42.2901 135.864C41.6223 135.53 40.9545 135.085 40.398 134.528C39.1738 133.527 38.0608 132.08 37.5043 130.522C37.0592 129.409 36.7253 128.184 36.7253 126.96V72.2028C36.7253 72.2028 41.2884 68.3074 47.8548 62.9652C54.6439 57.2892 63.5475 49.9437 71.3382 43.4885C75.79 39.7045 75.3448 40.1497 82.2451 34.3623C87.476 29.9105 95.1554 29.9105 100.386 34.3623C101.722 35.4753 103.169 36.8108 104.504 37.9238C107.398 40.261 110.514 42.9321 113.853 45.7144C120.865 51.5018 128.544 57.9569 134.554 62.9652C140.675 67.9735 145.127 71.7576 145.684 72.2028Z" fill="white" fill-opacity="0.01"/>
</g>
<path d="M145.684 72.2028V126.181C145.684 126.404 145.684 126.515 145.684 126.738C145.572 129.854 144.125 132.525 141.9 134.417C140.008 136.086 137.448 137.199 134.665 137.199H47.5209C45.6289 137.199 43.8482 136.754 42.2901 135.864C41.6223 135.53 40.9545 135.085 40.398 134.528C39.1738 133.527 38.0608 132.08 37.5043 130.522C37.0592 129.409 36.7253 128.184 36.7253 126.96V72.2028C36.7253 72.2028 41.2884 68.3074 47.8548 62.9652C54.6439 57.2892 63.5475 49.9437 71.3382 43.4885C75.79 39.7045 75.3448 40.1497 82.2451 34.3623C87.476 29.9105 95.1554 29.9105 100.386 34.3623C101.722 35.4753 103.169 36.8108 104.504 37.9238C107.398 40.261 110.514 42.9321 113.853 45.7144C120.865 51.5018 128.544 57.9569 134.554 62.9652C140.675 67.9735 145.127 71.7576 145.684 72.2028Z" fill="#D3E2FF"/>
<path d="M130.77 47.4972V81.5536L113.408 91.9041L108.289 95.0204L97.2705 101.476L92.1509 104.592L89.925 105.816L87.8103 104.592L82.9133 101.476L72.4516 95.0204L67.5546 91.9041L51.528 81.8875V47.4972C51.528 43.9357 54.4217 41.0421 58.0945 41.0421H124.204C127.765 40.9308 130.77 43.9357 130.77 47.4972Z" fill="url(#paint0_linear_2436_64092)"/>
<path d="M145.684 72.2031V126.738C145.572 129.854 144.125 132.525 141.9 134.417C140.008 136.087 137.448 137.2 134.665 137.2H47.5209C45.6289 137.2 43.8482 136.755 42.2901 135.864C41.6223 135.53 40.9545 135.085 40.398 134.529C39.1738 133.527 38.0608 132.08 37.5043 130.522C37.0592 129.409 36.7253 128.185 36.7253 126.961V126.849V72.2031L85.4727 102.698L89.7019 105.369L91.1488 104.479L92.4843 103.7L145.684 72.2031Z" fill="#738DFF"/>
<path d="M142.011 134.417C140.119 136.087 137.559 137.2 134.777 137.2H47.5209C45.6289 137.2 43.8482 136.755 42.2901 135.864C41.6223 135.53 40.9545 135.085 40.398 134.529C39.1738 133.527 38.0608 132.08 37.5043 130.522C37.0592 129.409 36.7253 128.185 36.7253 126.961V126.849V72.2031L42.4014 75.6533L91.1488 104.479L92.4843 105.258L92.5956 105.369L136.335 131.19L142.011 134.417Z" fill="#0257FB"/>
<path d="M36.7253 72.2031L91.1488 104.479" stroke="#0146C9" stroke-width="1.23093" stroke-miterlimit="10"/>
<path d="M145.685 72.2031V126.738C145.573 129.854 144.127 132.525 141.901 134.417C140.009 136.087 137.449 137.2 134.666 137.2H47.522C45.63 137.2 43.8493 136.755 42.2911 135.864C41.6234 135.53 40.9556 135.085 40.3991 134.529L45.9639 131.19L89.703 105.369L91.1499 104.479L92.4854 103.7L139.897 75.542L145.685 72.2031Z" fill="#014FE4"/>
<path d="M145.685 72.2031L92.4854 103.588L91.1499 104.479L89.703 105.369L40.3991 134.417" stroke="#0146C9" stroke-width="1.23093" stroke-miterlimit="10"/>
<path opacity="0.3" d="M132.551 110.378H103.615C102.947 110.378 102.39 109.822 102.39 109.154C102.39 108.486 102.947 107.93 103.615 107.93H132.551C133.219 107.93 133.776 108.486 133.776 109.154C133.887 109.822 133.33 110.378 132.551 110.378Z" fill="#1476FF"/>
<path opacity="0.3" d="M132.551 118.726H103.615C102.947 118.726 102.39 118.169 102.39 117.502C102.39 116.834 102.947 116.277 103.615 116.277H132.551C133.219 116.277 133.776 116.834 133.776 117.502C133.887 118.169 133.33 118.726 132.551 118.726Z" fill="#1476FF"/>
<path d="M138.561 136.085L142.123 134.305C142.011 134.416 142.011 134.416 141.9 134.527C141.9 134.527 141.9 134.527 141.789 134.527L138.561 136.085Z" fill="#526DFF"/>
<path d="M88.3651 83.5918C87.5025 83.5918 86.6907 83.2748 86.0311 82.5879L74.8173 70.911C73.5488 69.5901 73.5488 67.3709 74.8173 66.05C76.0858 64.7291 78.2169 64.7291 79.4855 66.05L88.3651 75.2964L109.27 53.5805C110.539 52.2596 112.67 52.2596 113.939 53.5805C115.207 54.9014 115.207 57.1206 113.939 58.4415L90.6992 82.5879C90.0903 83.2748 89.2277 83.5918 88.3651 83.5918Z" fill="#0257FB"/>
<defs>
<filter id="filter0_d_2436_64092" x="9.64481" y="17.4832" width="163.119" height="160.337" filterUnits="userSpaceOnUse" color-interpolation-filters="sRGB">
<feFlood flood-opacity="0" result="BackgroundImageFix"/>
<feColorMatrix in="SourceAlpha" type="matrix" values="0 0 0 0 0 0 0 0 0 0 0 0 0 0 0 0 0 0 127 0" result="hardAlpha"/>
<feOffset dy="13.5402"/>
<feGaussianBlur stdDeviation="13.5402"/>
<feColorMatrix type="matrix" values="0 0 0 0 0.00784314 0 0 0 0 0.341177 0 0 0 0 0.984314 0 0 0 0.19 0"/>
<feBlend mode="normal" in2="BackgroundImageFix" result="effect1_dropShadow_2436_64092"/>
<feBlend mode="normal" in="SourceGraphic" in2="effect1_dropShadow_2436_64092" result="shape"/>
</filter>
<linearGradient id="paint0_linear_2436_64092" x1="91.1234" y1="39.5407" x2="91.1491" y2="120.82" gradientUnits="userSpaceOnUse">
<stop stop-color="white"/>
<stop offset="0.9964" stop-color="#ECF0F5"/>
</linearGradient>
</defs>
</svg>
