<svg width="208" height="240" viewBox="0 0 208 240" fill="none" xmlns="http://www.w3.org/2000/svg">
<path opacity="0.1" d="M104.632 206.778C155.678 206.778 197.063 165.394 197.063 114.165C197.063 62.9353 155.496 21.5508 104.632 21.5508C53.5846 21.5508 12.2001 62.9353 12.2001 114.165C12.2001 165.394 53.5846 206.778 104.632 206.778Z" fill="#0257FB"/>
<path d="M191.046 53.4573C195.174 53.4573 198.521 50.1107 198.521 45.9825C198.521 41.8544 195.174 38.5078 191.046 38.5078C186.918 38.5078 183.571 41.8544 183.571 45.9825C183.571 50.1107 186.918 53.4573 191.046 53.4573Z" fill="#0257FB"/>
<path d="M201.986 24.2875C204.806 24.2875 207.091 22.0021 207.091 19.1828C207.091 16.3636 204.806 14.0781 201.986 14.0781C199.167 14.0781 196.882 16.3636 196.882 19.1828C196.882 22.0021 199.167 24.2875 201.986 24.2875Z" fill="#0257FB"/>
<path d="M17.1222 53.2758C19.9414 53.2758 22.2268 50.9904 22.2268 48.1711C22.2268 45.3519 19.9414 43.0664 17.1222 43.0664C14.3029 43.0664 12.0175 45.3519 12.0175 48.1711C12.0175 50.9904 14.3029 53.2758 17.1222 53.2758Z" fill="#0257FB"/>
<path d="M131.713 230.982C136.378 230.982 140.161 227.2 140.161 222.534C140.161 217.868 136.378 214.086 131.713 214.086C127.047 214.086 123.265 217.868 123.265 222.534C123.265 227.2 127.047 230.982 131.713 230.982Z" fill="#0257FB"/>
<path d="M11.1158 135.05C16.3515 135.05 20.5959 130.806 20.5959 125.57C20.5959 120.334 16.3515 116.09 11.1158 116.09C5.88003 116.09 1.63562 120.334 1.63562 125.57C1.63562 130.806 5.88003 135.05 11.1158 135.05Z" fill="#0257FB"/>
<g filter="url(#filter0_d_2436_64108)">
<path d="M169.651 96.3066L151.395 51.7288C148.141 43.8039 139.65 39.2754 131.3 41.1151L84.175 51.3043C80.2125 52.1534 76.8161 54.8422 74.8349 58.3801L29.9741 143.856C28.1344 147.394 29.408 151.923 33.0875 153.762L114.318 196.5C117.856 198.34 122.384 197.066 124.224 193.387L169.085 107.911C171.066 104.373 171.208 100.128 169.651 96.3066ZM124.507 78.334C118.705 75.3621 116.441 68.1448 119.554 62.3426C122.526 56.5404 129.743 54.2761 135.546 57.3895C141.348 60.3613 143.612 67.5787 140.499 73.3809C137.527 79.1831 130.309 81.4473 124.507 78.334Z" fill="url(#paint0_linear_2436_64108)"/>
</g>
<path d="M128.835 64.5875C127.261 65.402 126.644 67.3387 127.459 68.9133C128.273 70.4879 130.21 71.1041 131.785 70.2896L128.835 64.5875ZM115.644 39.5426L116.285 42.6878L122.575 41.4058L121.934 38.2605L115.644 39.5426ZM131.785 70.2896C150.593 60.561 164.08 48.2793 170.347 36.4646C173.489 30.5402 174.925 24.5165 174.016 18.9232C173.091 13.2298 169.8 8.38823 164.305 4.87306L160.846 10.2809C164.974 12.9218 167.078 16.2528 167.679 19.9525C168.297 23.7524 167.388 28.3424 164.675 33.4563C159.232 43.7183 146.962 55.2114 128.835 64.5875L131.785 70.2896ZM164.305 4.87306C153.303 -2.16551 139.702 0.0872284 129.796 6.97892C119.855 13.8946 112.881 25.9877 115.644 39.5426L121.934 38.2605C119.801 27.793 125.097 18.0679 133.462 12.2489C141.861 6.40591 152.602 5.00756 160.846 10.2809L164.305 4.87306Z" fill="#0253ED"/>
<path d="M179.849 153.773C179.261 156.272 178.379 158.918 177.35 161.122C174.557 166.561 170.147 170.824 164.708 173.617C159.122 176.41 152.508 177.586 145.893 176.116C130.312 172.882 120.316 157.595 123.55 142.013C126.784 126.432 141.924 116.289 157.505 119.67C163.091 120.846 167.942 123.639 172.058 127.461C178.967 134.37 181.906 144.365 179.849 153.773Z" fill="#0257FB"/>
<path d="M160.887 145.395H154.272V138.78C154.272 137.457 153.243 136.281 151.774 136.281C150.451 136.281 149.275 137.31 149.275 138.78V145.395H142.66C141.337 145.395 140.161 146.424 140.161 147.894C140.161 149.364 141.19 150.393 142.66 150.393H149.275V157.007C149.275 158.33 150.304 159.506 151.774 159.506C153.096 159.506 154.272 158.477 154.272 157.007V150.393H160.887C162.21 150.393 163.386 149.364 163.386 147.894C163.386 146.424 162.21 145.395 160.887 145.395Z" fill="white"/>
<defs>
<filter id="filter0_d_2436_64108" x="0.892654" y="26.5836" width="198.062" height="213.123" filterUnits="userSpaceOnUse" color-interpolation-filters="sRGB">
<feFlood flood-opacity="0" result="BackgroundImageFix"/>
<feColorMatrix in="SourceAlpha" type="matrix" values="0 0 0 0 0 0 0 0 0 0 0 0 0 0 0 0 0 0 127 0" result="hardAlpha"/>
<feOffset dy="14.1234"/>
<feGaussianBlur stdDeviation="14.1234"/>
<feColorMatrix type="matrix" values="0 0 0 0 0.397708 0 0 0 0 0.47749 0 0 0 0 0.575 0 0 0 0.15 0"/>
<feBlend mode="normal" in2="BackgroundImageFix" result="effect1_dropShadow_2436_64108"/>
<feBlend mode="normal" in="SourceGraphic" in2="effect1_dropShadow_2436_64108" result="shape"/>
</filter>
<linearGradient id="paint0_linear_2436_64108" x1="99.8776" y1="37.0841" x2="99.8776" y2="199.024" gradientUnits="userSpaceOnUse">
<stop stop-color="#FDFEFF"/>
<stop offset="0.9964" stop-color="#ECF0F5"/>
</linearGradient>
</defs>
</svg>
