<svg width="42" height="42" viewBox="0 0 42 42" fill="none" xmlns="http://www.w3.org/2000/svg">
<path d="M21 41.5C32.3218 41.5 41.5 32.3218 41.5 21C41.5 9.67816 32.3218 0.5 21 0.5C9.67816 0.5 0.5 9.67816 0.5 21C0.5 32.3218 9.67816 41.5 21 41.5Z" fill="#F3F5F8" stroke="#4F5C65"/>
<mask id="path-2-outside-1" maskUnits="userSpaceOnUse" x="10" y="10" width="22" height="22" fill="black">
<rect fill="white" x="10" y="10" width="22" height="22"/>
<path fill-rule="evenodd" clip-rule="evenodd" d="M21 11C15.48 11 11 15.48 11 21C11 26.52 15.48 31 21 31C26.52 31 31 26.52 31 21C31 15.48 26.52 11 21 11V11ZM21 14C22.66 14 24 15.34 24 17C24 18.66 22.66 20 21 20C19.34 20 18 18.66 18 17C18 15.34 19.34 14 21 14ZM21 28.2C18.5 28.2 16.29 26.92 15 24.98C15.03 22.99 19 21.9 21 21.9C22.99 21.9 26.97 22.99 27 24.98C25.71 26.92 23.5 28.2 21 28.2Z"/>
</mask>
<path fill-rule="evenodd" clip-rule="evenodd" d="M21 11C15.48 11 11 15.48 11 21C11 26.52 15.48 31 21 31C26.52 31 31 26.52 31 21C31 15.48 26.52 11 21 11V11ZM21 14C22.66 14 24 15.34 24 17C24 18.66 22.66 20 21 20C19.34 20 18 18.66 18 17C18 15.34 19.34 14 21 14ZM21 28.2C18.5 28.2 16.29 26.92 15 24.98C15.03 22.99 19 21.9 21 21.9C22.99 21.9 26.97 22.99 27 24.98C25.71 26.92 23.5 28.2 21 28.2Z" fill="white"/>
<path d="M15 24.98L14.0001 24.9649L13.9954 25.2753L14.1673 25.5337L15 24.98ZM27 24.98L27.8327 25.5337L28.0046 25.2753L27.9999 24.9649L27 24.98ZM21 10C14.9277 10 10 14.9277 10 21H12C12 16.0323 16.0323 12 21 12V10ZM10 21C10 27.0723 14.9277 32 21 32V30C16.0323 30 12 25.9677 12 21H10ZM21 32C27.0723 32 32 27.0723 32 21H30C30 25.9677 25.9677 30 21 30V32ZM32 21C32 14.9277 27.0723 10 21 10V12C25.9677 12 30 16.0323 30 21H32ZM21 15C22.1077 15 23 15.8923 23 17H25C25 14.7877 23.2123 13 21 13V15ZM23 17C23 18.1077 22.1077 19 21 19V21C23.2123 21 25 19.2123 25 17H23ZM21 19C19.8923 19 19 18.1077 19 17H17C17 19.2123 18.7877 21 21 21V19ZM19 17C19 15.8923 19.8923 15 21 15V13C18.7877 13 17 14.7877 17 17H19ZM21 27.2C18.8489 27.2 16.9453 26.0995 15.8327 24.4263L14.1673 25.5337C15.6347 27.7405 18.1511 29.2 21 29.2V27.2ZM15.9999 24.9951C16.002 24.8568 16.0679 24.6558 16.3527 24.3889C16.6417 24.1181 17.0852 23.8513 17.6471 23.6163C18.7749 23.1446 20.1365 22.9 21 22.9V20.9C19.8635 20.9 18.2401 21.2004 16.8754 21.7712C16.191 22.0574 15.5114 22.4363 14.9851 22.9296C14.4546 23.4267 14.013 24.1082 14.0001 24.9649L15.9999 24.9951ZM21 22.9C21.8582 22.9 23.2199 23.1445 24.3495 23.6164C24.9122 23.8516 25.3568 24.1185 25.6466 24.3895C25.9323 24.6568 25.998 24.8577 26.0001 24.9951L27.9999 24.9649C27.987 24.1073 27.5439 23.4257 27.0128 22.9289C26.4857 22.4359 25.8053 22.0572 25.1205 21.7711C23.7551 21.2005 22.1318 20.9 21 20.9V22.9ZM26.1673 24.4263C25.0547 26.0995 23.1511 27.2 21 27.2V29.2C23.8489 29.2 26.3653 27.7405 27.8327 25.5337L26.1673 24.4263Z" fill="#4F5C65" mask="url(#path-2-outside-1)"/>
</svg>
