<svg width="478" height="736" viewBox="0 0 478 736" fill="none" xmlns="http://www.w3.org/2000/svg">
<g clip-path="url(#clip0_2536_58094)">
<rect opacity="0.4" x="0.430664" y="405.832" width="97.5931" height="6.81089" rx="3.40545" fill="#1476FF"/>
<g filter="url(#filter0_d_2536_58094)">
<rect x="64.4209" y="170.984" width="112.941" height="117.774" rx="15.7029" fill="#FF000F" fill-opacity="0.01"/>
</g>
<rect x="54.1016" y="159.15" width="133.58" height="139.296" rx="15.7029" fill="white"/>
<rect x="66.8506" y="176.156" width="44.4276" height="5.84084" rx="2.92042" fill="#CACBD7"/>
<path d="M111.095 268.336C106.589 266.936 102.443 264.567 98.9502 261.393C95.4574 258.22 92.702 254.32 90.8778 249.968C89.0535 245.615 88.2047 240.916 88.3909 236.201C88.5772 231.485 89.794 226.868 91.9558 222.673" stroke="#68CAFF" stroke-width="22.0186" stroke-linecap="round"/>
<path d="M90.4634 226.023C93.143 218.953 98.2167 213.047 104.801 209.332C111.386 205.617 119.065 204.328 126.502 205.69C133.939 207.052 140.662 210.979 145.503 216.787C150.344 222.594 152.995 229.916 152.995 237.476" stroke="#4457FF" stroke-width="22.0186" stroke-linecap="round"/>
<path d="M152.995 237.476C152.995 243.288 151.427 248.992 148.458 253.987C145.488 258.983 141.227 263.085 136.122 265.862C131.016 268.639 125.257 269.988 119.45 269.767C113.642 269.546 108.002 267.762 103.123 264.605" stroke="#FFB016" stroke-width="22.0186" stroke-linecap="round"/>
<g filter="url(#filter1_d_2536_58094)">
<rect x="172.686" y="393.746" width="156.934" height="118.973" rx="17.3137" fill="#FF000F" fill-opacity="0.01"/>
</g>
<rect x="159.146" y="383.482" width="185.1" height="140.325" rx="17.3137" fill="white"/>
<rect x="175.917" y="401.91" width="48.9851" height="6.44" rx="3.22" fill="#CACBD7"/>
<rect x="196.268" y="497.867" width="48.9851" height="6.44" rx="3.22" fill="#CACBD7"/>
<circle cx="187.68" cy="501.088" r="4.29333" fill="#9240FB"/>
<rect x="271.015" y="497.867" width="48.9851" height="6.44" rx="3.22" fill="#CACBD7"/>
<circle cx="262.427" cy="501.088" r="4.29333" fill="#1476FF"/>
<path d="M215.706 470.039C205.754 470.039 204.788 457.424 195.566 457.424C186.343 457.424 178.709 473.668 175.92 479.621H327.475V412.645C322.39 423.893 315.828 439.259 307.461 439.259C298.708 439.259 296.928 429.611 286.212 429.611C274.414 429.611 274.385 453.282 264.248 453.282C254.111 453.282 253.239 444.738 243.175 444.738C229.826 444.738 228.038 470.039 215.706 470.039Z" fill="url(#paint0_linear_2536_58094)"/>
<path d="M175.923 479.124C178.697 473.216 186.291 457.092 195.465 457.092C204.639 457.092 205.599 469.613 215.498 469.613C227.765 469.613 229.543 444.5 242.822 444.5C252.832 444.5 253.7 452.98 263.783 452.98C273.866 452.98 273.895 429.485 285.631 429.485C296.29 429.485 298.061 439.062 306.767 439.062C315.09 439.062 321.617 423.81 326.675 412.645" stroke="#1476FF" stroke-width="3.03467" stroke-linecap="round" stroke-linejoin="round"/>
<g filter="url(#filter2_d_2536_58094)">
<rect x="224.178" y="118.512" width="188.367" height="215.959" rx="17.0922" fill="#FF000F" fill-opacity="0.01"/>
</g>
<rect x="206.24" y="93.5898" width="224.241" height="257.087" rx="17.0922" fill="white"/>
<path d="M206.24 126.139H430.482" stroke="#E9EAF3" stroke-width="1.48204" stroke-miterlimit="10"/>
<path d="M228.381 113.508C230.193 113.508 231.662 112.04 231.662 110.228C231.662 108.416 230.193 106.947 228.381 106.947C226.569 106.947 225.101 108.416 225.101 110.228C225.101 112.04 226.569 113.508 228.381 113.508Z" fill="#FFB016" stroke="#FFB016" stroke-width="1.43666" stroke-miterlimit="10"/>
<path d="M242.364 113.508C244.175 113.508 245.644 112.04 245.644 110.228C245.644 108.416 244.175 106.947 242.364 106.947C240.552 106.947 239.083 108.416 239.083 110.228C239.083 112.04 240.552 113.508 242.364 113.508Z" fill="#68CAFF" stroke="#68CAFF" stroke-width="1.43666" stroke-miterlimit="10"/>
<path d="M256.346 113.508C258.158 113.508 259.627 112.04 259.627 110.228C259.627 108.416 258.158 106.947 256.346 106.947C254.534 106.947 253.065 108.416 253.065 110.228C253.065 112.04 254.534 113.508 256.346 113.508Z" fill="#45C74E" stroke="#45C74E" stroke-width="1.43666" stroke-miterlimit="10"/>
<rect x="241.484" y="261.426" width="6.85506" height="42.3329" rx="3.42753" fill="#FFB016"/>
<rect x="270.865" y="245.287" width="6.85506" height="35.272" rx="3.42753" fill="#FFB016"/>
<rect x="270.865" y="198.057" width="6.85506" height="42.3329" rx="3.42753" fill="#1476FF"/>
<rect x="270.865" y="285.455" width="6.85506" height="18.3051" rx="3.42753" fill="#1476FF"/>
<rect x="329.623" y="247.855" width="6.85506" height="32.246" rx="3.42753" fill="#FFB016"/>
<rect x="329.623" y="228.863" width="6.85506" height="14.0951" rx="3.42753" fill="#1476FF"/>
<rect x="329.623" y="284.998" width="6.85506" height="18.7638" rx="3.42753" fill="#9240FB"/>
<rect x="300.241" y="258.68" width="6.85506" height="45.0788" rx="3.42753" fill="#1476FF"/>
<rect x="300.226" y="239.809" width="6.85506" height="13.9743" rx="3.42753" fill="#FFB016"/>
<rect x="300.226" y="170.979" width="6.85506" height="63.9339" rx="3.42753" fill="#9240FB"/>
<rect x="359" y="200.105" width="6.85506" height="34.6884" rx="3.42753" fill="#9240FB"/>
<rect x="359" y="176.445" width="6.85506" height="18.7638" rx="3.42753" fill="#1476FF"/>
<rect x="359" y="239.691" width="6.85506" height="64.0714" rx="3.42753" fill="#1476FF"/>
<rect x="388.377" y="231.393" width="6.85506" height="32.8748" rx="3.42753" fill="#1476FF"/>
<rect x="388.379" y="184.162" width="6.85506" height="42.3329" rx="3.42753" fill="#FFB016"/>
<rect x="388.377" y="269.162" width="6.85506" height="34.5973" rx="3.42753" fill="#9240FB"/>
<rect x="236.831" y="313.701" width="16.769" height="5.06494" rx="2.53247" fill="#CACBD7"/>
<rect x="266.09" y="313.701" width="16.769" height="5.06494" rx="2.53247" fill="#CACBD7"/>
<rect x="295.344" y="313.701" width="16.769" height="5.06494" rx="2.53247" fill="#CACBD7"/>
<rect x="324.599" y="313.701" width="16.769" height="5.06494" rx="2.53247" fill="#CACBD7"/>
<rect x="353.856" y="313.701" width="16.769" height="5.06494" rx="2.53247" fill="#CACBD7"/>
<rect x="383.11" y="313.701" width="16.769" height="5.06494" rx="2.53247" fill="#CACBD7"/>
<path d="M170.769 728.264V712.731L142.952 712.551L142.711 735.782L144.44 735.903C152.124 736.399 183.535 737.406 188.648 735.767C194.407 733.993 170.769 728.264 170.769 728.264Z" fill="#1476FF"/>
<path d="M251.543 265.017L251.798 260.311C252.257 257.706 252.453 255.061 252.385 252.417C252.381 251.103 252.147 249.8 251.693 248.567C251.196 247.005 250.487 245.518 249.588 244.147C249.363 243.92 249.216 243.628 249.168 243.313C249.121 242.998 249.174 242.675 249.321 242.393C249.469 242.11 249.702 241.881 249.988 241.739C250.274 241.598 250.597 241.551 250.911 241.605C252.235 241.951 254.941 245.094 256.174 249.785C257.407 254.477 260.565 247.53 261.753 245.019C262.941 242.508 267.03 234.914 268.083 234.674C269.587 234.313 270.323 235.922 269.06 238.403C267.797 240.884 264.549 248.582 265.933 249.154C266.914 248.893 267.94 248.847 268.94 249.018C269.098 249.053 269.241 249.135 269.351 249.253C269.461 249.371 269.533 249.52 269.557 249.68C269.616 250.417 269.762 251.143 269.993 251.845C269.993 251.845 271.857 251.244 272.323 252.041C272.669 252.869 272.877 253.747 272.94 254.642C272.94 254.642 274.353 254.026 275.105 254.507C276.714 255.559 274.97 257.77 274.97 257.77C271.135 263.289 266.952 268.558 262.444 273.543L251.513 264.747" fill="#FFE3D3"/>
<path d="M117.79 264.7L117.609 324.681L143.277 325.869L144.014 311.283C144.014 311.283 153.156 313.103 155.517 304.607C157.02 299.194 156.644 257.287 156.644 257.287L117.79 264.7Z" fill="#FFE3D3"/>
<path d="M155.308 248.028C147.474 250.554 145.594 251.411 142.076 251.682C138.557 251.952 114.739 251.982 112.559 265.41C112.265 264.779 112.039 264.119 111.882 263.44C111.706 262.124 111.611 260.798 111.597 259.471C111.219 260.086 110.982 260.776 110.901 261.494C110.82 262.211 110.899 262.937 111.13 263.621C111.191 263.913 111.276 264.2 111.386 264.478C111.221 264.327 111.07 264.162 110.89 264.012C110.025 263.247 108.996 262.691 107.883 262.388C107.025 262.177 106.469 262.222 106.379 262.388C107.779 262.992 109.106 263.753 110.334 264.658C111.131 265.35 111.815 266.162 112.363 267.064C112.363 267.064 112.363 267.184 112.363 267.245C112.363 267.305 107.236 264.989 108.589 274.282C109.943 283.574 116.002 291.468 116.754 306.685C116.754 306.685 138.001 309.212 141.79 301.047L144.963 291.679C144.963 291.679 139.85 290.837 140.452 286.732C141.279 281.033 145.624 280.898 148.872 283.424L152.601 273.44C152.601 273.44 162.044 267.245 162.586 263.29C163.127 259.335 163.067 245.487 155.308 248.028Z" fill="#0B0E2C"/>
<path d="M46.6117 716.656L42.8525 733.437L68.8207 736.655L69.753 720.024L46.6117 716.656Z" fill="#1476FF"/>
<path d="M85.1336 452.897L37.0166 723.074L78.1867 725.405C78.1867 725.405 121.913 492.518 128.334 491.947C131.025 491.691 132.108 723.51 134.258 723.074C136.408 722.638 178.751 723.826 178.751 723.826C178.751 723.826 173.022 449.469 173.128 449.469L85.1336 452.897Z" fill="#0B0E2C"/>
<path d="M145.955 486.264C145.955 486.474 138.858 488.174 130.016 490.053C121.175 491.933 113.957 493.286 113.912 493.06C113.867 492.835 121.01 491.151 129.851 489.271C138.693 487.392 145.91 486.053 145.955 486.264Z" fill="#6F7182"/>
<path d="M81.2394 709.543C81.2394 709.768 71.9318 709.648 60.4589 709.302C48.986 708.956 39.6934 708.475 39.6934 708.264C39.6934 708.054 49.001 708.159 60.4739 708.505C71.9468 708.851 81.2394 709.302 81.2394 709.543Z" fill="#6F7182"/>
<path d="M178.48 709.573C178.48 709.783 168.421 709.663 156.046 709.287C143.67 708.911 133.626 708.445 133.626 708.234C133.626 708.024 143.67 708.144 156.061 708.505C168.451 708.866 178.48 709.302 178.48 709.573Z" fill="#6F7182"/>
<path d="M105.689 493.754C105.899 493.754 95.7195 541.991 82.9384 601.386C70.1573 660.78 59.6317 708.912 59.4212 708.867C59.2107 708.822 69.3904 660.645 82.1715 601.22C94.9526 541.796 105.463 493.709 105.689 493.754Z" fill="#6F7182"/>
<path d="M156.224 708.895C156.207 708.71 156.207 708.524 156.224 708.338C156.224 707.933 156.224 707.391 156.134 706.7C156.134 705.196 155.984 703.106 155.863 700.399C155.638 694.941 155.382 687.017 155.096 677.228C154.525 657.68 153.954 630.614 153.818 600.752C153.683 570.889 153.969 543.838 154.36 524.261C154.54 514.472 154.735 506.563 154.916 501.089C155.006 498.383 155.066 496.278 155.126 494.789C155.126 494.097 155.126 493.556 155.126 493.15C155.106 492.965 155.106 492.779 155.126 492.594C155.15 492.778 155.15 492.965 155.126 493.15V494.789C155.126 496.293 155.126 498.383 155.126 501.089C155.051 506.608 154.946 514.517 154.811 524.276C154.57 543.823 154.36 570.889 154.51 600.752C154.66 630.614 155.126 657.65 155.547 677.228C155.773 686.972 155.953 694.881 156.089 700.399C156.089 703.091 156.179 705.211 156.209 706.7C156.209 707.391 156.209 707.933 156.209 708.338C156.238 708.523 156.243 708.71 156.224 708.895Z" fill="#6F7182"/>
<path d="M247.228 263.664C247.228 263.664 215.35 311.781 212.644 314.443C209.937 317.104 160.016 322.397 160.016 322.397C144.678 318.939 95.1177 320.081 85.7649 326.908C77.6602 331.419 67.8263 341.944 62.759 366.8C54.1129 409.323 45.4669 424.991 62.759 430.931C69.6723 433.288 76.7979 434.97 84.0357 435.953L83.5546 455.2L173.173 449.621L168.662 401.835C168.12 388.408 167.865 374.423 167.534 362.033C173.142 359.913 225.259 340.185 228.838 339.674C232.417 339.163 266.745 276.024 266.745 276.024C267.768 268.521 247.228 263.664 247.228 263.664Z" fill="#1476FF"/>
<path d="M86.5013 350.68C86.7118 350.68 86.2306 374.107 85.4337 402.977C84.6368 431.847 83.7947 455.259 83.5692 455.259C83.3436 455.259 83.8398 431.832 84.6518 402.962C85.4638 374.092 86.2908 350.68 86.5013 350.68Z" fill="#1045CC"/>
<path d="M217.141 325.27C215.946 323.69 215.058 321.9 214.525 319.992C213.757 318.195 213.134 316.339 212.66 314.443C213.847 316.026 214.729 317.816 215.261 319.721C216.019 321.524 216.647 323.378 217.141 325.27V325.27Z" fill="#1045CC"/>
<path d="M220.72 321.18C219.199 320.324 217.768 319.316 216.449 318.173C214.952 317.218 213.663 315.97 212.66 314.504C214.176 315.369 215.606 316.376 216.931 317.511C218.42 318.477 219.707 319.723 220.72 321.18V321.18Z" fill="#1045CC"/>
<path d="M264.952 279.859C263.893 279.352 262.885 278.742 261.944 278.039C260.11 276.882 257.569 275.318 254.652 273.754C251.735 272.19 249.028 270.942 247.043 270.07C245.934 269.673 244.867 269.17 243.855 268.566C245.024 268.759 246.165 269.092 247.254 269.559C252.604 271.554 257.662 274.26 262.29 277.603C263.269 278.241 264.163 278.998 264.952 279.859V279.859Z" fill="#1045CC"/>
<path d="M85.4341 403.205C83.5668 403.317 81.6936 403.129 79.8856 402.649C78.0241 402.392 76.2282 401.785 74.5928 400.859C76.439 401.037 78.2657 401.379 80.051 401.882C81.89 402.116 83.6961 402.56 85.4341 403.205V403.205Z" fill="#1045CC"/>
<path d="M173.19 449.681C173.19 449.907 153.147 451.32 128.411 452.854C103.676 454.388 83.5873 455.47 83.5723 455.26C83.5572 455.049 103.616 453.621 128.366 452.072C153.116 450.523 173.175 449.471 173.19 449.681Z" fill="#0B0A33"/>
<path d="M143.701 320.562C139.359 320.992 134.996 321.158 130.634 321.058C126.277 321.222 121.914 321.126 117.567 320.773C121.909 320.343 126.273 320.177 130.634 320.276C134.992 320.113 139.355 320.209 143.701 320.562V320.562Z" fill="#1045CC"/>
<path d="M118.245 141.517C120.616 141.975 122.469 139.496 121.359 137.352L110.773 116.914C109.68 114.803 106.646 114.843 105.609 116.983L103.815 120.685L92.8656 111.517C91.6332 110.485 89.7954 110.658 88.7768 111.901L85.4774 115.929C84.4366 117.199 84.6632 119.081 85.9759 120.068L97.7444 128.917L94.2289 132.199C92.5031 133.809 93.3334 136.698 95.6512 137.146L118.245 141.517Z" fill="#FFB016"/>
<path d="M447.719 44.6035H390.625C379.579 44.6035 370.625 53.5578 370.625 64.6035L370.625 121.697C370.625 132.743 379.579 141.697 390.625 141.697H447.719C458.765 141.697 467.719 132.743 467.719 121.697V64.6035C467.719 53.5578 458.765 44.6035 447.719 44.6035Z" fill="#1476FF"/>
<path d="M442.438 115.218C442.221 117.051 440.691 118.414 438.901 118.414C437.065 118.414 435.535 117.051 435.364 115.218V101.242C435.194 99.8738 435.829 98.5997 436.984 97.8753C438.177 97.1509 439.625 97.1509 440.772 97.8753C441.927 98.5997 442.561 99.8738 442.438 101.242V115.218Z" fill="white"/>
<path d="M422.834 115.216C422.663 117.048 421.134 118.412 419.297 118.412C417.507 118.412 415.978 117.048 415.76 115.216V71.7962C415.637 70.4753 416.272 69.1501 417.426 68.43C418.573 67.7056 420.021 67.7056 421.219 68.43C422.369 69.1501 423.004 70.4753 422.834 71.7962V115.216Z" fill="white"/>
<path d="M402.976 115.217C402.805 117.049 401.276 118.412 399.439 118.412C397.607 118.412 396.073 117.049 395.907 115.217V85.7728C395.779 84.4476 396.414 83.1309 397.569 82.4066C398.715 81.6822 400.168 81.6822 401.318 82.4066C402.465 83.1309 403.108 84.4476 402.976 85.7728V115.217Z" fill="white"/>
<path d="M345.143 476.713H309.801C298.755 476.713 289.801 485.667 289.801 496.713L289.801 532.055C289.801 543.101 298.755 552.055 309.801 552.055H345.143C356.189 552.055 365.143 543.101 365.143 532.055V496.713C365.143 485.667 356.189 476.713 345.143 476.713Z" fill="#FFB016"/>
<path d="M323.495 500.517C323.604 500.74 323.677 500.979 323.709 501.224L324.308 510.131V510.131L324.606 514.608C324.609 515.069 324.681 515.526 324.82 515.966C325.179 516.819 326.043 517.361 326.983 517.323L341.306 516.387C341.927 516.376 342.526 516.608 342.971 517.031C343.343 517.384 343.583 517.845 343.659 518.341L343.684 518.643C343.091 526.85 337.063 533.696 328.873 535.463C320.682 537.23 312.284 533.497 308.236 526.291C307.069 524.197 306.341 521.896 306.093 519.522C305.989 518.82 305.943 518.11 305.956 517.4C305.943 508.601 312.21 500.993 320.981 499.159C322.037 498.995 323.072 499.554 323.495 500.517Z" fill="white"/>
<path d="M329.342 492.869C339.153 493.119 347.399 500.173 348.986 509.675L348.971 509.746V509.746L348.927 509.848L348.933 510.127C348.911 510.498 348.768 510.855 348.521 511.143C348.264 511.443 347.913 511.648 347.526 511.727L347.29 511.76L330.765 512.83C330.215 512.884 329.668 512.707 329.259 512.343C328.919 512.039 328.701 511.629 328.639 511.187L327.53 494.685C327.511 494.63 327.511 494.569 327.53 494.513C327.545 494.058 327.745 493.628 328.086 493.32C328.427 493.011 328.879 492.848 329.342 492.869Z" fill="white"/>
<path d="M223.051 0H211.856C208.912 0 206.526 2.3861 206.526 5.32952V15.8438C206.526 18.7873 208.912 21.1734 211.856 21.1734H223.051C225.995 21.1734 228.381 18.7873 228.381 15.8438V5.32952C228.381 2.3861 225.995 0 223.051 0Z" fill="#9240FB"/>
<path d="M406.349 389.381H390.607C386.468 389.381 383.113 392.736 383.113 396.875V411.659C383.113 415.798 386.468 419.153 390.607 419.153H406.349C410.488 419.153 413.843 415.798 413.843 411.659V396.875C413.843 392.736 410.488 389.381 406.349 389.381Z" fill="#FFB016"/>
<path d="M48.0452 308.148H32.3034C28.1647 308.148 24.8096 311.504 24.8096 315.642V330.426C24.8096 334.565 28.1647 337.92 32.3034 337.92H48.0452C52.1839 337.92 55.539 334.565 55.539 330.426V315.642C55.539 311.504 52.1839 308.148 48.0452 308.148Z" fill="#9240FB"/>
<rect x="365.144" y="446.131" width="112.426" height="10.2163" rx="5.10817" fill="#1476FF"/>
<rect opacity="0.4" x="64.3496" y="65.0742" width="119.509" height="6.81089" rx="3.40545" fill="#1476FF"/>
</g>
<defs>
<filter id="filter0_d_2536_58094" x="36.4209" y="144.984" width="168.941" height="173.775" filterUnits="userSpaceOnUse" color-interpolation-filters="sRGB">
<feFlood flood-opacity="0" result="BackgroundImageFix"/>
<feColorMatrix in="SourceAlpha" type="matrix" values="0 0 0 0 0 0 0 0 0 0 0 0 0 0 0 0 0 0 127 0" result="hardAlpha"/>
<feOffset dy="2"/>
<feGaussianBlur stdDeviation="14"/>
<feColorMatrix type="matrix" values="0 0 0 0 0 0 0 0 0 0 0 0 0 0 0 0 0 0 0.1 0"/>
<feBlend mode="normal" in2="BackgroundImageFix" result="effect1_dropShadow_2536_58094"/>
<feBlend mode="normal" in="SourceGraphic" in2="effect1_dropShadow_2536_58094" result="shape"/>
</filter>
<filter id="filter1_d_2536_58094" x="101.686" y="335.746" width="298.934" height="260.973" filterUnits="userSpaceOnUse" color-interpolation-filters="sRGB">
<feFlood flood-opacity="0" result="BackgroundImageFix"/>
<feColorMatrix in="SourceAlpha" type="matrix" values="0 0 0 0 0 0 0 0 0 0 0 0 0 0 0 0 0 0 127 0" result="hardAlpha"/>
<feOffset dy="13"/>
<feGaussianBlur stdDeviation="35.5"/>
<feColorMatrix type="matrix" values="0 0 0 0 0.106615 0 0 0 0 0.121085 0 0 0 0 0.468385 0 0 0 0.09 0"/>
<feBlend mode="normal" in2="BackgroundImageFix" result="effect1_dropShadow_2536_58094"/>
<feBlend mode="normal" in="SourceGraphic" in2="effect1_dropShadow_2536_58094" result="shape"/>
</filter>
<filter id="filter2_d_2536_58094" x="173.178" y="69.7267" width="290.367" height="317.959" filterUnits="userSpaceOnUse" color-interpolation-filters="sRGB">
<feFlood flood-opacity="0" result="BackgroundImageFix"/>
<feColorMatrix in="SourceAlpha" type="matrix" values="0 0 0 0 0 0 0 0 0 0 0 0 0 0 0 0 0 0 127 0" result="hardAlpha"/>
<feOffset dy="2.21503"/>
<feGaussianBlur stdDeviation="25.5"/>
<feColorMatrix type="matrix" values="0 0 0 0 0.0694769 0 0 0 0 0.0656945 0 0 0 0 0.292639 0 0 0 0.1 0"/>
<feBlend mode="normal" in2="BackgroundImageFix" result="effect1_dropShadow_2536_58094"/>
<feBlend mode="normal" in="SourceGraphic" in2="effect1_dropShadow_2536_58094" result="shape"/>
</filter>
<linearGradient id="paint0_linear_2536_58094" x1="230.132" y1="435.969" x2="246.925" y2="497.549" gradientUnits="userSpaceOnUse">
<stop stop-color="#1476FF"/>
<stop offset="0.647758" stop-color="white" stop-opacity="0"/>
</linearGradient>
<clipPath id="clip0_2536_58094">
<rect width="478" height="736" fill="white"/>
</clipPath>
</defs>
</svg>
