<svg width="41" height="16" viewBox="0 0 41 16" fill="none" xmlns="http://www.w3.org/2000/svg">
<path d="M40 1L27 14L14 4.46667L1 14" stroke="#E0E7EC" stroke-width="2"/>
<path fill-rule="evenodd" clip-rule="evenodd" d="M13.5 6C14.3284 6 15 5.32843 15 4.5C15 3.67157 14.3284 3 13.5 3C12.6716 3 12 3.67157 12 4.5C12 5.32843 12.6716 6 13.5 6ZM1.5 15C2.32843 15 3 14.3284 3 13.5C3 12.6716 2.32843 12 1.5 12C0.671573 12 0 12.6716 0 13.5C0 14.3284 0.671573 15 1.5 15ZM29 13.5C29 14.3284 28.3284 15 27.5 15C26.6716 15 26 14.3284 26 13.5C26 12.6716 26.6716 12 27.5 12C28.3284 12 29 12.6716 29 13.5Z" fill="#94A2AB"/>
<path fill-rule="evenodd" clip-rule="evenodd" d="M39.5 3C40.3284 3 41 2.32843 41 1.5C41 0.671573 40.3284 0 39.5 0C38.6716 0 38 0.671573 38 1.5C38 2.32843 38.6716 3 39.5 3Z" fill="#94A2AB"/>
</svg>
