<svg width="256" height="256" viewBox="0 0 256 256" fill="none" xmlns="http://www.w3.org/2000/svg">
<g clip-path="url(#clip0_2447_64430)">
<g opacity="0.2">
<mask id="mask0_2447_64430" style="mask-type:alpha" maskUnits="userSpaceOnUse" x="0" y="0" width="256" height="256">
<circle cx="128" cy="128" r="128" fill="#1476FF"/>
</mask>
<g mask="url(#mask0_2447_64430)">
<path d="M255.399 8.79942C255.253 8.79919 255.111 8.74886 254.997 8.65679C252.376 6.53524 250.565 4.45698 248.467 2.05018L247.634 1.09765C247.522 0.970324 247.465 0.803667 247.475 0.634346C247.486 0.465026 247.564 0.306911 247.691 0.194783C247.818 0.0826537 247.985 0.0256952 248.154 0.0364419C248.324 0.0471887 248.482 0.124758 248.594 0.252085L249.432 1.20971C251.49 3.57067 253.267 5.61072 255.799 7.66096C255.901 7.74459 255.975 7.85769 256.011 7.98485C256.046 8.112 256.042 8.24703 255.998 8.37151C255.954 8.49599 255.872 8.60387 255.765 8.68045C255.657 8.75703 255.529 8.79857 255.397 8.79942H255.399Z" fill="white"/>
<path d="M255.399 26.8441C255.312 26.8454 255.226 26.8289 255.145 26.7957C244.639 22.466 237.745 12.4211 231.663 3.5605C231.079 2.71239 230.501 1.86937 229.926 1.03909C229.829 0.899602 229.792 0.727461 229.822 0.560529C229.852 0.393596 229.948 0.245546 230.087 0.148954C230.227 0.0523607 230.399 0.0151336 230.566 0.0454632C230.733 0.0757929 230.881 0.171197 230.977 0.310683C231.556 1.14097 232.134 1.98653 232.717 2.83718C238.992 11.9754 245.479 21.4294 255.639 25.6139C255.777 25.6707 255.89 25.7738 255.96 25.9053C256.03 26.0369 256.051 26.1887 256.021 26.3345C255.991 26.4803 255.911 26.6111 255.794 26.7041C255.678 26.7971 255.533 26.8466 255.384 26.8441H255.399Z" fill="white"/>
<path d="M255.399 44.8208H255.333C237.428 42.931 226.174 24.0637 217.13 8.90981C215.451 6.09551 213.865 3.43656 212.321 1.02976C212.229 0.8869 212.198 0.713397 212.234 0.547419C212.27 0.381442 212.371 0.236589 212.514 0.144724C212.657 0.0528598 212.83 0.0215104 212.996 0.0575717C213.162 0.093633 213.307 0.194148 213.399 0.337011C214.952 2.76164 216.544 5.43077 218.238 8.25526C227.134 23.1698 238.208 41.7315 255.473 43.555C255.633 43.5751 255.78 43.6551 255.884 43.7789C255.988 43.9027 256.04 44.0612 256.032 44.2225C256.024 44.3838 255.955 44.536 255.839 44.6484C255.723 44.7608 255.568 44.8251 255.407 44.8285L255.399 44.8208Z" fill="white"/>
<path d="M254.154 62.7573C242.339 62.7573 233.3 58.1296 224.982 47.8758C217.272 38.3709 210.768 27.4499 204.479 16.8905C201.336 11.6159 198.089 6.16303 194.766 1.02088C194.72 0.950309 194.689 0.871471 194.674 0.788864C194.659 0.706258 194.66 0.6215 194.678 0.539434C194.696 0.457369 194.729 0.379601 194.777 0.31057C194.825 0.241539 194.886 0.182599 194.957 0.137112C195.027 0.0916253 195.106 0.0604847 195.189 0.0454669C195.271 0.0304492 195.356 0.0318489 195.438 0.0495864C195.52 0.0673238 195.598 0.101052 195.667 0.148845C195.736 0.196637 195.795 0.257557 195.84 0.328128C199.177 5.48811 202.429 10.9512 205.577 16.2359C211.845 26.7571 218.311 37.6297 225.975 47.0685C234.313 57.3477 243.38 61.792 255.381 61.4609H255.399C255.558 61.4727 255.708 61.5438 255.817 61.6602C255.927 61.7765 255.989 61.9297 255.991 62.0895C255.993 62.2492 255.935 62.4041 255.829 62.5234C255.723 62.6428 255.576 62.718 255.417 62.7343C254.992 62.7496 254.571 62.7573 254.154 62.7573Z" fill="white"/>
<path d="M247.639 81.1737C234.298 81.1737 224.373 75.6827 216.101 63.9517C212.176 58.3893 208.715 52.3863 205.386 46.5795C204.588 45.194 203.79 43.811 202.992 42.4306C196.174 30.7149 187.087 15.4184 177.248 1.03614C177.152 0.896321 177.116 0.72412 177.147 0.557426C177.178 0.390732 177.274 0.243199 177.413 0.147281C177.553 0.0513638 177.726 0.014921 177.892 0.0459672C178.059 0.0770133 178.206 0.173008 178.302 0.312831C188.166 14.7307 197.269 30.0502 204.097 41.7888C204.902 43.1692 205.702 44.5538 206.496 45.9427C209.807 51.7216 213.256 57.7017 217.145 63.2131C226.655 76.6963 238.427 81.6678 255.312 79.3349C255.481 79.3119 255.652 79.357 255.788 79.4601C255.924 79.5633 256.013 79.7161 256.036 79.885C256.059 80.0539 256.014 80.225 255.91 80.3606C255.807 80.4963 255.654 80.5854 255.486 80.6083C252.886 80.9765 250.264 81.1654 247.639 81.1737Z" fill="white"/>
<path d="M238.351 100.062C232.717 100.062 227.19 99.1099 222.01 96.074C215.248 92.1162 210.738 85.4434 207.215 79.4353C204.128 74.176 201.289 68.667 198.541 63.339C196.635 59.6485 194.669 55.8333 192.639 52.1327C182.607 33.869 171.526 16.6827 159.706 1.04991C159.622 0.914139 159.592 0.751831 159.621 0.594926C159.651 0.43802 159.738 0.29788 159.866 0.202074C159.993 0.106269 160.152 0.0617368 160.311 0.0772407C160.47 0.0927447 160.618 0.167162 160.724 0.28585C172.58 15.9644 183.695 33.2043 193.758 51.5214C195.795 55.2297 197.766 59.0526 199.674 62.7506C202.414 68.0609 205.247 73.5545 208.315 78.796C211.754 84.6538 216.147 91.1687 222.652 94.9789C231.915 100.401 242.535 98.8731 252.809 97.3984C253.645 97.2762 254.478 97.1573 255.308 97.0418C255.392 97.0301 255.477 97.035 255.558 97.0562C255.64 97.0774 255.717 97.1145 255.784 97.1653C255.852 97.2162 255.908 97.2798 255.951 97.3525C255.994 97.4253 256.022 97.5058 256.034 97.5894C256.046 97.673 256.041 97.7581 256.019 97.8399C255.998 97.9216 255.961 97.9984 255.91 98.0658C255.86 98.1332 255.796 98.1899 255.723 98.2327C255.65 98.2755 255.57 98.3036 255.486 98.3153L252.99 98.6719C248.139 99.3544 243.205 100.062 238.351 100.062Z" fill="white"/>
<path d="M234.807 116.757C232.635 116.757 230.478 116.716 228.328 116.617L227.016 116.561C222.603 116.378 217.593 116.171 213.773 114.124C205.913 109.911 201.349 100.116 198.328 93.6262C196.622 89.9638 194.959 86.2199 193.352 82.5982C190.181 75.467 186.906 68.081 183.164 61.0542C171.814 39.5756 158.055 19.459 142.154 1.09296C142.053 0.963346 142.006 0.799932 142.022 0.636381C142.038 0.472831 142.116 0.321606 142.24 0.213863C142.364 0.10612 142.525 0.0500688 142.689 0.0572553C142.853 0.0644417 143.008 0.134319 143.122 0.252492C159.089 18.6923 172.906 38.8891 184.305 60.4531C188.057 67.5258 191.342 74.9245 194.521 82.0787C196.125 85.6952 197.788 89.4341 199.487 93.0863C202.437 99.4178 206.894 108.984 214.379 112.995C217.944 114.905 222.784 115.107 227.067 115.287L228.387 115.343C237.42 115.761 246.951 115.163 255.358 114.633C255.516 114.64 255.666 114.705 255.779 114.816C255.892 114.927 255.96 115.075 255.97 115.233C255.98 115.391 255.931 115.547 255.834 115.671C255.736 115.795 255.595 115.879 255.44 115.906C248.983 116.301 241.867 116.757 234.807 116.757Z" fill="white"/>
<path d="M255.399 133.492C253.305 133.464 251.204 133.456 248.98 133.446C234.756 133.387 218.637 133.321 205.411 127.968C195.7 124.035 192.766 115.503 189.661 106.469L189.455 105.868C185.158 93.3886 180.714 80.481 174.66 68.2126C163.354 45.306 146.983 23.3621 124.616 1.12783C124.496 1.00827 124.428 0.845842 124.428 0.676282C124.427 0.506722 124.494 0.343918 124.614 0.223684C124.733 0.103449 124.896 0.0356364 125.065 0.0351588C125.235 0.0346811 125.398 0.101579 125.518 0.221138C147.981 22.5547 164.429 44.6107 175.798 67.6574C181.888 79.9971 186.345 92.9429 190.657 105.463L190.863 106.062C194.001 115.192 196.721 123.078 205.89 126.791C218.879 132.053 234.876 132.119 248.983 132.178C251.209 132.178 253.313 132.195 255.411 132.223C255.57 132.238 255.718 132.311 255.826 132.429C255.934 132.547 255.994 132.7 255.994 132.86C255.994 133.02 255.934 133.174 255.826 133.292C255.718 133.409 255.57 133.483 255.411 133.497L255.399 133.492Z" fill="white"/>
<path d="M255.399 151.066H255.346C253.107 150.883 250.858 150.712 248.469 150.534C231.385 149.26 212.018 147.796 196.793 140.071C186.738 134.978 183.228 127.253 180.562 115.647C176.303 97.0978 171.647 83.3727 165.466 71.1426C153.391 47.2452 134.827 25.0084 107.046 1.16195C106.917 1.05151 106.837 0.894345 106.824 0.725024C106.811 0.555703 106.865 0.3881 106.976 0.259085C107.086 0.130069 107.243 0.0502107 107.413 0.0370758C107.582 0.0239409 107.75 0.0786068 107.879 0.189047C135.803 24.1501 154.464 46.5168 166.62 70.5644C172.847 82.8888 177.536 96.7056 181.82 115.356C184.4 126.593 187.774 134.053 197.384 138.928C212.38 146.535 231.609 147.982 248.576 149.255C250.96 149.434 253.209 149.604 255.453 149.79C255.612 149.81 255.759 149.888 255.863 150.011C255.967 150.134 256.021 150.291 256.014 150.452C256.007 150.612 255.94 150.765 255.826 150.878C255.712 150.991 255.56 151.058 255.399 151.064V151.066Z" fill="white"/>
<path d="M255.399 168.648H255.307C253.206 168.347 251.059 168.049 248.879 167.746C228.048 164.856 204.436 161.58 186.962 150.3C175.842 143.123 173.007 132.25 171.703 122.56C169.103 103.236 164.605 87.8354 157.548 74.0873C150.417 60.1813 140.662 47.0292 127.749 33.8771C117.547 23.4655 105.388 13.0793 89.48 1.18285C89.4045 1.13614 89.3396 1.07422 89.2894 1.00105C89.2391 0.927873 89.2047 0.845044 89.1882 0.757828C89.1718 0.670612 89.1736 0.580922 89.1937 0.494474C89.2138 0.408025 89.2517 0.326708 89.305 0.255704C89.3582 0.184699 89.4257 0.125563 89.503 0.082059C89.5804 0.0385547 89.666 0.0116387 89.7543 0.00302086C89.8427 -0.00559702 89.9318 0.0042726 90.0161 0.0320044C90.1005 0.0597361 90.1781 0.104721 90.244 0.164093C106.2 12.0988 118.41 22.5257 128.669 32.9755C141.658 46.2193 151.484 59.4758 158.684 73.499C165.815 87.3795 170.349 102.913 172.969 122.384C173.825 128.751 175.172 133.59 177.207 137.665C179.601 142.448 183.017 146.228 187.649 149.218C204.887 160.345 228.349 163.6 249.05 166.47C251.232 166.773 253.379 167.071 255.486 167.374C255.648 167.395 255.796 167.477 255.9 167.603C256.004 167.73 256.055 167.891 256.044 168.055C256.032 168.218 255.958 168.37 255.837 168.481C255.716 168.591 255.558 168.651 255.394 168.648H255.399Z" fill="white"/>
<path d="M255.399 186.178C255.35 186.178 255.302 186.172 255.254 186.16C251.011 185.182 246.735 184.27 242.207 183.307C219.394 178.445 195.802 173.436 177.648 159.683C165.472 150.46 163.337 138.342 162.843 126.619C162 106.593 157.51 89.4753 149.116 74.2882C141.22 60.0257 130.032 46.6342 114.875 33.365C101.657 21.7919 86.908 11.5458 71.6981 1.20295C71.6285 1.15579 71.5689 1.09539 71.5227 1.0252C71.4765 0.955009 71.4445 0.876399 71.4286 0.793861C71.4128 0.711322 71.4134 0.626474 71.4303 0.544155C71.4473 0.461836 71.4803 0.383658 71.5274 0.31409C71.5746 0.244522 71.635 0.184926 71.7052 0.1387C71.7754 0.0924751 71.854 0.0605264 71.9365 0.0446809C72.0191 0.0288354 72.1039 0.0294013 72.1862 0.0463481C72.2685 0.0632948 72.3467 0.0962904 72.4163 0.143449C87.6619 10.5118 102.444 20.7732 115.713 32.4022C130.995 45.7734 142.272 59.2718 150.231 73.6617C158.722 89.0245 163.264 106.328 164.117 126.558C164.929 145.863 171.47 153.394 178.415 158.649C196.345 172.229 219.792 177.218 242.469 182.042C247 183.004 251.284 183.916 255.54 184.899C255.623 184.909 255.704 184.935 255.778 184.975C255.851 185.016 255.916 185.071 255.968 185.137C256.021 185.203 256.06 185.278 256.083 185.359C256.106 185.44 256.113 185.525 256.104 185.609C256.094 185.692 256.068 185.773 256.027 185.847C255.987 185.92 255.932 185.985 255.866 186.038C255.8 186.09 255.724 186.129 255.644 186.152C255.563 186.175 255.478 186.182 255.394 186.173L255.399 186.178Z" fill="white"/>
<path d="M255.399 203.719C255.328 203.719 255.258 203.707 255.191 203.684C245.866 200.457 236.221 197.426 226.895 194.495C216.934 191.362 206.634 188.127 196.681 184.638C186.44 181.052 176.138 174.919 167.677 167.373C161.636 161.986 157.513 156.014 155.417 149.626C153.494 143.768 153.7 137.544 153.888 131.523C153.922 130.578 153.952 129.633 153.975 128.696C154.512 106.757 150.259 89.2193 140.591 73.4643C123.176 45.087 93.8814 26.5763 65.5499 8.67171C61.6786 6.2267 57.6749 3.69511 53.8215 1.2119C53.679 1.12003 53.5788 0.975315 53.5429 0.809576C53.5071 0.643838 53.5386 0.470656 53.6305 0.328131C53.7223 0.185606 53.867 0.0854114 54.0328 0.0495889C54.1985 0.0137665 54.3717 0.0452501 54.5142 0.137115C58.3626 2.61778 62.3637 5.14683 66.2299 7.59183C94.6836 25.5728 124.105 44.165 141.686 72.792C151.487 88.7584 155.816 106.531 155.264 128.727C155.241 129.669 155.21 130.616 155.18 131.566C154.984 137.475 154.78 143.583 156.631 149.226C158.656 155.398 162.66 161.181 168.53 166.418C176.869 173.855 187.016 179.898 197.104 183.431C207.037 186.91 217.329 190.145 227.279 193.275C236.614 196.209 246.266 199.242 255.608 202.474C255.753 202.522 255.875 202.621 255.953 202.751C256.032 202.882 256.061 203.036 256.036 203.186C256.011 203.336 255.933 203.472 255.816 203.57C255.699 203.668 255.552 203.721 255.399 203.719V203.719Z" fill="white"/>
<path d="M255.399 221.295C255.304 221.295 255.21 221.273 255.124 221.232C242.461 215.193 229.225 209.814 216.427 204.611C209.171 201.661 201.67 198.613 194.358 195.478L193.207 194.983C180.806 189.673 167.993 184.185 158.208 174.147C151.077 166.815 146.821 160.002 145.219 153.319C143.691 146.855 144.259 139.856 144.819 133.089C144.928 131.767 145.03 130.522 145.119 129.269L145.229 127.741C145.817 119.507 146.429 110.992 145.046 102.85C143.4 93.1719 139.004 82.8876 132.332 73.1C123.104 59.5658 110.141 49.74 96.5453 40.044C83.6759 30.8625 70.0577 22.4705 56.9006 14.3511C49.9883 10.0902 42.8443 5.69169 35.8684 1.20409C35.7259 1.11222 35.6257 0.967502 35.5899 0.801764C35.554 0.636025 35.5855 0.462843 35.6774 0.320318C35.7693 0.177793 35.914 0.0775989 36.0797 0.0417764C36.2455 0.00595396 36.4186 0.0374376 36.5612 0.129302C43.5243 4.60162 50.6658 9.00518 57.5704 13.2636C70.753 21.3907 84.3839 29.7954 97.3017 39.0023C110.991 48.7773 124.054 58.6795 133.404 72.3868C140.181 82.3197 144.648 92.7873 146.322 102.644C147.73 110.939 147.116 119.53 146.52 127.84L146.411 129.368C146.322 130.626 146.215 131.935 146.11 133.201C145.557 139.869 144.987 146.766 146.479 153.029C148.008 159.483 152.154 166.102 159.13 173.261C168.729 183.115 181.43 188.542 193.716 193.817L194.865 194.309C202.17 197.439 209.665 200.487 216.913 203.434C229.729 208.642 242.983 214.032 255.679 220.086C255.811 220.148 255.917 220.253 255.981 220.383C256.045 220.514 256.062 220.663 256.03 220.805C255.998 220.946 255.919 221.073 255.805 221.164C255.691 221.254 255.55 221.303 255.404 221.303L255.399 221.295Z" fill="white"/>
<path d="M255.399 238.917C255.277 238.917 255.156 238.882 255.053 238.815C240.062 229.17 223.808 221.308 208.089 213.703C203.935 211.693 199.638 209.628 195.423 207.532C193.878 206.768 192.315 206.004 190.734 205.24C176.421 198.23 161.621 190.977 150.15 180.344C143.054 173.763 138.658 165.941 136.71 156.431C134.82 147.216 135.436 137.33 136.274 128.866C137.881 112.806 136.761 104.024 135.778 98.813C133.804 88.3505 129.548 79.6401 122.766 72.1829C110.838 59.0715 95.6209 49.0292 79.7716 39.053C71.749 34.0026 63.4487 29.1762 55.4235 24.5078C42.9183 17.2365 29.9852 9.71808 17.8519 1.20386C17.7127 1.10659 17.6179 0.958028 17.5883 0.790857C17.5587 0.623685 17.5967 0.451598 17.694 0.31245C17.7912 0.173302 17.9398 0.0784912 18.107 0.048878C18.2741 0.0192648 18.4462 0.0572763 18.5854 0.154545C30.6754 8.6382 43.583 16.1439 56.0653 23.4025C64.1007 28.076 72.4112 32.9074 80.4517 37.9706C96.3824 47.9951 111.676 58.091 123.713 71.3347C130.658 78.9754 135.016 87.8895 137.036 98.5864C139.117 109.619 138.324 121.228 137.545 128.999C136.71 137.363 136.106 147.132 137.96 156.179C139.855 165.419 144.124 173.019 151.018 179.412C162.349 189.923 177.065 197.128 191.294 204.096C192.873 204.869 194.438 205.633 195.988 206.388C200.198 208.469 204.492 210.545 208.644 212.554C224.396 220.174 240.686 228.054 255.743 237.743C255.859 237.818 255.948 237.928 255.996 238.057C256.044 238.187 256.049 238.328 256.01 238.461C255.971 238.593 255.89 238.709 255.78 238.792C255.669 238.875 255.535 238.919 255.397 238.919L255.399 238.917Z" fill="white"/>
<path d="M255.399 256.001C255.24 256.002 255.087 255.943 254.971 255.836C238.653 241.094 218.925 230.83 199.849 220.905C181.081 211.141 161.673 201.04 145.373 186.647C135.074 177.547 129.073 167.731 127.036 156.637C125.299 147.193 126.356 137.536 127.377 128.214L127.436 127.677C128.454 118.439 129.491 108.888 127.79 99.6304C125.806 88.8291 119.943 79.2554 109.865 70.3413C93.7073 56.0559 74.3689 46.0084 55.6671 36.2641C36.5197 26.3032 16.7228 16.0011 0.282658 1.14767C0.21519 1.09301 0.159564 1.02517 0.119179 0.948294C0.0787943 0.871421 0.0544952 0.787128 0.0477621 0.700555C0.041029 0.613981 0.0520037 0.526943 0.0800179 0.444751C0.108032 0.362559 0.152496 0.286934 0.2107 0.222494C0.268905 0.158053 0.339628 0.106146 0.418555 0.0699397C0.497482 0.0337331 0.582959 0.0139858 0.669769 0.0119027C0.756579 0.00981969 0.842905 0.025443 0.923478 0.0578224C1.00405 0.0902019 1.07718 0.138659 1.13841 0.200233C17.4563 14.9365 37.1819 25.2055 56.258 35.1307C75.0285 44.8954 94.4383 54.9964 110.726 69.3862C121.025 78.4888 127.026 88.3045 129.063 99.3987C130.798 108.843 129.743 118.5 128.722 127.817L128.663 128.354C127.644 137.592 126.608 147.145 128.309 156.408C130.293 167.207 136.156 176.783 146.232 185.697C162.402 199.985 181.74 210.048 200.442 219.777C219.589 229.74 239.391 240.043 255.829 254.896C255.925 254.983 255.992 255.096 256.022 255.222C256.051 255.347 256.043 255.479 255.996 255.599C255.95 255.719 255.869 255.823 255.762 255.896C255.656 255.969 255.53 256.009 255.401 256.009L255.399 256.001Z" fill="white"/>
<path d="M237.89 256C237.759 255.999 237.631 255.959 237.523 255.885C225.588 247.508 212.846 240.094 200.525 232.938C192.993 228.56 185.208 224.024 177.656 219.314C160.197 208.414 144.743 198.285 132.398 184.718C125.45 177.077 121.092 168.163 119.073 157.466C116.995 146.433 117.787 134.827 118.563 127.054C119.399 118.682 120.005 108.907 118.164 99.8607C116.274 90.5773 112.01 82.9749 105.093 76.6408C93.8613 66.3336 79.4892 59.2278 65.5909 52.3563L62.1118 50.6321C57.3237 48.2533 52.4337 45.8872 47.7016 43.6001C31.8676 35.9442 15.4836 28.026 0.365274 18.2943C0.222411 18.2025 0.121892 18.0576 0.085831 17.8916C0.0497697 17.7256 0.081119 17.5521 0.172984 17.4093C0.264848 17.2664 0.409705 17.1659 0.575683 17.1298C0.74166 17.0938 0.915163 17.1251 1.05803 17.217C16.1203 26.9053 32.4585 34.8007 48.2594 42.4413C52.9915 44.7335 57.8866 47.097 62.6824 49.4809L66.1665 51.2077C80.1438 58.1199 94.5999 65.269 105.967 75.6985C113.075 82.221 117.478 90.0425 119.424 99.6035C121.301 108.816 120.698 118.705 119.842 127.179C118.604 139.572 118.757 148.827 120.339 157.232C122.312 167.694 126.568 176.405 133.353 183.862C145.578 197.309 160.966 207.385 178.341 218.245C185.875 222.951 193.653 227.472 201.174 231.845C213.519 239.022 226.286 246.444 238.267 254.851C238.379 254.929 238.463 255.041 238.507 255.17C238.551 255.299 238.552 255.439 238.511 255.569C238.47 255.699 238.388 255.813 238.277 255.893C238.167 255.973 238.034 256.016 237.898 256.015L237.89 256Z" fill="white"/>
<path d="M219.885 256.001C219.763 256.002 219.642 255.966 219.539 255.9C212.573 251.427 205.432 247.024 198.527 242.765C185.345 234.638 171.714 226.234 158.811 217.027C145.104 207.249 132.028 197.337 122.707 183.65C115.985 173.775 111.518 163.313 109.791 153.395C108.365 145.212 108.979 136.708 109.572 128.482L109.702 126.676C109.789 125.403 109.898 124.101 110.005 122.833C110.556 116.168 111.126 109.278 109.636 103.015C108.108 96.6304 103.857 89.8226 96.9832 82.783C87.3509 72.9164 74.619 67.4635 62.3048 62.1889L61.2453 61.7356C53.946 58.6055 46.4531 55.5594 39.2046 52.6127C26.3862 47.4018 13.1322 42.0151 0.433478 35.9586C0.280145 35.8857 0.162069 35.7548 0.105231 35.5948C0.0483929 35.4348 0.0574471 35.2587 0.130398 35.1054C0.20335 34.9521 0.334224 34.834 0.494231 34.7772C0.654238 34.7203 0.830272 34.7294 0.983605 34.8023C13.6492 40.8435 26.8854 46.2251 39.6962 51.4284C46.9472 54.3777 54.4452 57.4263 61.7573 60.5589L62.8168 61.0148C75.2455 66.3378 88.0971 71.8416 97.9077 81.8992C104.945 89.1069 109.313 96.1159 110.897 102.728C112.425 109.192 111.857 116.185 111.297 122.947C111.187 124.272 111.083 125.522 110.996 126.768L110.866 128.576C110.278 136.726 109.669 145.151 111.07 153.179C112.766 162.918 117.162 173.207 123.784 182.934C132.983 196.432 145.96 206.279 159.568 215.987C172.437 225.156 186.055 233.561 199.212 241.678C206.125 245.941 213.271 250.337 220.247 254.827C220.363 254.902 220.452 255.012 220.5 255.142C220.548 255.271 220.553 255.413 220.514 255.545C220.475 255.678 220.394 255.794 220.284 255.877C220.173 255.959 220.039 256.004 219.901 256.004L219.885 256.001Z" fill="white"/>
<path d="M201.943 256.002C201.82 256.002 201.7 255.967 201.596 255.9C197.743 253.417 193.737 250.885 189.863 248.438C161.414 230.462 131.998 211.872 114.417 183.238C104.624 167.279 100.294 149.507 100.847 127.311C100.87 126.307 100.905 125.296 100.941 124.282C101.135 118.679 101.338 112.87 99.7084 107.514C97.7473 101.098 93.6723 95.0773 87.5802 89.6193C79.2977 82.2028 69.1509 76.1616 59.0067 72.6062C49.0739 69.1272 38.7845 65.8926 28.8364 62.765C19.4995 59.8285 9.84426 56.7952 0.502304 53.5632C0.341879 53.5078 0.210031 53.3909 0.135759 53.2383C0.061487 53.0857 0.0508773 52.9099 0.106266 52.7494C0.161655 52.589 0.278505 52.4572 0.431109 52.3829C0.583712 52.3086 0.759571 52.298 0.919996 52.3534C10.2467 55.5803 19.8917 58.6111 29.2184 61.5451C39.1792 64.6752 49.4788 67.9123 59.4295 71.399C69.7291 75.0079 80.0286 81.1408 88.4334 88.6668C94.7063 94.27 98.9112 100.5 100.933 107.142C102.625 112.702 102.418 118.603 102.207 124.326C102.171 125.344 102.136 126.343 102.113 127.341C101.575 149.28 105.829 166.818 115.494 182.573C132.92 210.95 162.209 229.458 190.535 247.355C194.412 249.805 198.418 252.34 202.276 254.825C202.392 254.9 202.481 255.01 202.529 255.14C202.577 255.269 202.582 255.411 202.543 255.543C202.504 255.676 202.424 255.792 202.313 255.875C202.202 255.957 202.068 256.002 201.93 256.002H201.943Z" fill="white"/>
<path d="M184.054 256.001C183.926 256.001 183.801 255.963 183.695 255.891C168.668 245.671 154.09 235.552 140.976 224.147C125.888 211.025 114.651 197.802 106.624 183.723C97.6534 167.988 92.8704 150.241 91.9891 129.474C91.6784 122.088 90.7284 116.691 88.9074 111.967C86.7655 106.405 83.3374 101.823 78.4296 97.9591C60.6014 83.9309 36.8033 78.8881 13.7795 74.0184C9.19515 73.0455 4.86545 72.1286 0.56632 71.1379C0.409559 71.0913 0.276493 70.9867 0.194287 70.8453C0.112081 70.7039 0.0869397 70.5365 0.123997 70.3772C0.161053 70.218 0.257512 70.0788 0.393678 69.9883C0.529844 69.8977 0.695447 69.8625 0.856668 69.8899C5.13288 70.8781 9.46003 71.795 14.0444 72.7679C36.131 77.4465 61.1617 82.7517 79.2191 96.9633C90.7463 106.035 92.7838 117.929 93.2677 129.431C94.1362 149.997 98.8708 167.555 107.736 183.106C115.69 197.061 126.838 210.175 141.814 223.199C154.877 234.558 169.417 244.652 184.413 254.849C184.482 254.897 184.542 254.957 184.588 255.028C184.634 255.098 184.666 255.177 184.681 255.259C184.697 255.342 184.696 255.426 184.679 255.509C184.662 255.591 184.628 255.669 184.581 255.738C184.521 255.822 184.442 255.889 184.35 255.935C184.258 255.98 184.156 256.003 184.054 256.001V256.001Z" fill="white"/>
<path d="M166.259 256.002C166.121 256.002 165.986 255.957 165.875 255.874C150.183 244.141 138.152 233.895 128.015 223.636C115.189 210.647 105.435 197.68 98.1864 183.963C90.6196 169.637 85.8416 153.655 83.1598 133.654C82.3244 127.45 81.0459 122.703 79.1382 118.742C76.9343 114.088 73.4995 110.125 69.2054 107.282C52.1413 95.7696 28.3993 92.4943 7.45374 89.6062C5.08769 89.2802 2.85407 88.972 0.630643 88.6511C0.461774 88.6268 0.309483 88.5364 0.207269 88.3998C0.105056 88.2632 0.0612937 88.0916 0.0856108 87.9227C0.109928 87.7538 0.200334 87.6015 0.336937 87.4993C0.47354 87.3971 0.64515 87.3533 0.814019 87.3777C3.03235 87.696 5.26597 88.0042 7.62947 88.3302C28.7126 91.2387 52.6099 94.5344 69.9185 106.212C80.4142 113.292 83.1368 123.964 84.4179 133.463C87.087 153.306 91.8242 169.155 99.3172 183.344C106.504 196.952 116.19 209.832 128.925 222.716C139.008 232.95 150.991 243.155 166.631 254.853C166.739 254.933 166.818 255.045 166.858 255.173C166.898 255.301 166.897 255.439 166.855 255.566C166.813 255.693 166.732 255.804 166.623 255.883C166.514 255.962 166.383 256.004 166.249 256.004L166.259 256.002Z" fill="white"/>
<path d="M148.637 256C148.484 256 148.337 255.946 148.221 255.847C120.774 232.286 102.352 210.398 90.2443 186.966C83.6224 174.138 78.6967 159.86 74.2932 140.674C70.9619 126.157 66.3342 121.191 59.4653 117.498C44.6068 109.511 25.1257 108.074 7.93678 106.801C5.41282 106.615 3.0264 106.439 0.657796 106.243C0.492759 106.224 0.341604 106.142 0.23635 106.013C0.131096 105.885 0.0800141 105.72 0.0939199 105.555C0.107826 105.389 0.185628 105.235 0.310849 105.126C0.43607 105.017 0.598873 104.961 0.764769 104.97C3.12573 105.166 5.5096 105.341 8.03101 105.527C25.3498 106.801 44.9608 108.258 60.0714 116.372C70.5569 122.008 73.3712 130.948 75.5386 140.389C79.9193 159.465 84.8042 173.649 91.3802 186.378C103.407 209.659 121.731 231.425 149.052 254.874C149.151 254.959 149.223 255.073 149.256 255.199C149.289 255.326 149.282 255.46 149.236 255.583C149.191 255.706 149.109 255.811 149.001 255.886C148.893 255.961 148.765 256 148.634 256H148.637Z" fill="white"/>
<path d="M131.047 256.002C130.964 256.002 130.881 255.986 130.804 255.954C130.726 255.922 130.656 255.875 130.597 255.816C108.589 233.938 92.3935 212.394 81.0802 189.946C74.5373 176.957 69.711 162.949 65.4551 150.584L65.124 149.626C62.2435 141.221 59.5209 133.301 50.9761 129.58C38.0379 123.943 21.8092 123.905 7.49321 123.867C5.13735 123.867 2.90883 123.854 0.70323 123.826C0.544191 123.812 0.39624 123.739 0.288484 123.621C0.180728 123.503 0.120972 123.349 0.120972 123.189C0.120972 123.03 0.180728 122.876 0.288484 122.758C0.39624 122.64 0.544191 122.567 0.70323 122.553V122.553C2.90628 122.581 5.1297 122.586 7.48048 122.593C21.9238 122.632 38.2977 122.672 51.4727 128.411C60.5626 132.348 63.3641 140.541 66.3363 149.211L66.6751 150.176C70.9182 162.503 75.7292 176.475 82.2314 189.38C93.481 211.704 109.6 233.141 131.508 254.919C131.598 255.008 131.66 255.122 131.684 255.247C131.709 255.371 131.697 255.499 131.649 255.616C131.6 255.733 131.518 255.833 131.413 255.904C131.308 255.974 131.184 256.012 131.058 256.012L131.047 256.002Z" fill="white"/>
<path d="M113.472 255.999C113.38 256 113.29 255.98 113.206 255.942C113.123 255.905 113.048 255.849 112.988 255.78C97.0204 237.34 83.2037 217.143 71.805 195.577C68.0559 188.507 64.7705 181.114 61.5945 173.962C59.9874 170.343 58.3243 166.601 56.623 162.947C53.6864 156.615 49.2192 147.052 41.7314 143.043C38.1505 141.122 33.3623 140.929 29.1345 140.751L27.7235 140.692C18.6923 140.274 9.16188 140.873 0.75208 141.403C0.663259 141.418 0.572173 141.415 0.484754 141.393C0.397334 141.371 0.315544 141.33 0.244713 141.275C0.173881 141.219 0.115598 141.149 0.0736603 141.069C0.0317225 140.989 0.00706884 140.901 0.00131033 140.811C-0.00444818 140.721 0.0088175 140.631 0.0402387 140.547C0.0716599 140.462 0.120533 140.385 0.183676 140.321C0.246818 140.256 0.322809 140.206 0.406703 140.173C0.490596 140.14 0.580507 140.125 0.670578 140.129C9.11349 139.599 18.6821 138.998 27.7821 139.419L29.188 139.477C33.5508 139.653 38.4968 139.854 42.3375 141.912C50.1998 146.125 54.7638 155.92 57.7818 162.407C59.4908 166.072 61.1539 169.818 62.7635 173.442C65.9318 180.574 69.2071 187.947 72.9358 194.979C84.2847 216.457 98.0415 236.573 113.941 254.94C114.021 255.032 114.074 255.146 114.091 255.268C114.109 255.389 114.092 255.513 114.041 255.625C113.99 255.736 113.908 255.831 113.805 255.898C113.702 255.964 113.582 255.999 113.459 255.999H113.472Z" fill="white"/>
<path d="M95.8932 256.001C95.7943 256.002 95.6967 255.979 95.6082 255.935C95.5197 255.891 95.4429 255.826 95.3839 255.747C83.5256 240.066 72.411 222.826 62.3508 204.511C60.3133 200.803 58.3395 196.978 56.4344 193.279C53.694 187.969 50.8618 182.476 47.7929 177.234C44.3546 171.376 39.9612 164.864 33.4565 161.054C24.1909 155.631 13.5908 157.157 3.32433 158.632C2.48132 158.754 1.6383 158.886 0.800373 158.993C0.631504 159.017 0.460159 158.973 0.324034 158.87C0.187909 158.767 0.0981522 158.615 0.0745106 158.446C0.050869 158.277 0.0952774 158.106 0.197968 157.969C0.300659 157.833 0.45322 157.744 0.622088 157.72L3.1435 157.361C13.6188 155.856 24.4507 154.305 34.1034 159.946C40.8628 163.904 45.3759 170.577 48.8982 176.582C51.9825 181.844 54.8223 187.35 57.5703 192.678C59.4729 196.369 61.4416 200.187 63.4715 203.885C73.5036 222.146 84.5825 239.332 96.4026 254.967C96.4736 255.062 96.5168 255.175 96.5274 255.292C96.538 255.41 96.5156 255.528 96.4627 255.634C96.4099 255.74 96.3286 255.829 96.228 255.891C96.1274 255.953 96.0115 255.986 95.8932 255.986V256.001Z" fill="white"/>
<path d="M78.3347 256C78.2308 256 78.1284 255.975 78.0365 255.927C77.9445 255.878 77.8659 255.808 77.8075 255.722C71.1474 245.988 65.0578 235.52 59.1694 225.396C52.8175 214.478 46.2517 203.187 38.965 192.819C29.4881 179.321 17.7164 174.362 0.797475 176.7C0.71386 176.711 0.628824 176.706 0.547221 176.685C0.465619 176.663 0.389052 176.626 0.321886 176.575C0.186238 176.472 0.0971284 176.319 0.0741622 176.15C0.0511961 175.981 0.0962546 175.81 0.199423 175.674C0.302592 175.539 0.455421 175.449 0.624289 175.427C18.0755 173.015 30.2241 178.152 40.0118 192.078C47.329 202.49 53.9101 213.805 60.2748 224.749C66.153 234.85 72.2298 245.298 78.867 254.994C78.9329 255.09 78.9713 255.202 78.9781 255.318C78.9848 255.434 78.9597 255.55 78.9055 255.653C78.8512 255.756 78.7698 255.842 78.6702 255.903C78.5705 255.963 78.4562 255.995 78.3398 255.995L78.3347 256Z" fill="white"/>
<path d="M60.8182 256.002C60.7113 256.002 60.606 255.975 60.5121 255.924C60.4181 255.873 60.3386 255.799 60.2809 255.709C56.9444 250.549 53.6921 245.086 50.5441 239.801C44.2763 229.28 37.797 218.407 30.1462 208.966C21.8077 198.689 12.7357 194.243 0.739892 194.576H0.711876C0.552519 194.564 0.403377 194.493 0.293835 194.377C0.184293 194.261 0.122295 194.107 0.120058 193.948C0.117821 193.788 0.175506 193.633 0.281748 193.514C0.38799 193.394 0.535083 193.319 0.694046 193.303C13.1254 192.962 22.5157 197.548 31.1293 208.166C38.8387 217.671 45.3409 228.592 51.6317 239.152C54.7745 244.426 58.0218 249.879 61.3455 255.021C61.4376 255.164 61.4695 255.337 61.4341 255.502C61.3988 255.668 61.2991 255.813 61.157 255.905C61.0551 255.968 60.9379 256.001 60.8182 256.002V256.002Z" fill="white"/>
<path d="M43.2447 256C43.1378 256 43.0326 255.973 42.9388 255.922C42.845 255.871 42.7654 255.797 42.7073 255.708C41.1358 253.255 39.5415 250.591 37.8555 247.769C29.0127 232.982 18.0076 214.581 0.630249 212.487C0.546634 212.477 0.465815 212.451 0.392404 212.409C0.318994 212.368 0.254432 212.313 0.202403 212.246C0.150373 212.18 0.111894 212.104 0.0891655 212.023C0.0664374 211.942 0.0599026 211.857 0.0699364 211.774C0.0799703 211.69 0.106377 211.609 0.147646 211.536C0.188914 211.463 0.244235 211.398 0.310455 211.346C0.376675 211.294 0.452497 211.255 0.533587 211.233C0.614677 211.21 0.699448 211.204 0.783064 211.214C18.7844 213.378 29.9678 232.08 38.9532 247.107C40.6341 249.908 42.2234 252.575 43.7922 255.002C43.8545 255.099 43.8896 255.21 43.8938 255.325C43.898 255.44 43.8712 255.554 43.8162 255.654C43.7612 255.755 43.6801 255.839 43.5813 255.898C43.4825 255.957 43.3697 255.988 43.2548 255.988L43.2447 256Z" fill="white"/>
<path d="M25.6504 256.002C25.5468 256.002 25.4448 255.977 25.353 255.929C25.2612 255.881 25.1823 255.811 25.1232 255.727C24.5374 254.883 23.9516 254.028 23.3607 253.18C17.1005 244.059 10.6263 234.628 0.46682 230.436C0.319734 230.365 0.205455 230.24 0.147305 230.087C0.0891562 229.934 0.0915249 229.765 0.153928 229.614C0.21633 229.463 0.334061 229.341 0.483087 229.274C0.632114 229.206 0.801199 229.199 0.955824 229.252C11.4668 233.581 18.3459 243.614 24.4151 252.456C25.0026 253.315 25.5893 254.164 26.175 255.003C26.2715 255.142 26.3087 255.314 26.2787 255.481C26.2486 255.647 26.1536 255.795 26.0146 255.892C25.9074 255.965 25.7802 256.003 25.6504 256.002V256.002Z" fill="white"/>
<path d="M7.99745 256.002C7.90643 256.002 7.81641 255.983 7.73339 255.946C7.65038 255.908 7.5763 255.854 7.5161 255.785C7.2283 255.459 6.95069 255.138 6.67817 254.825C4.62029 252.464 2.84257 250.427 0.310971 248.376C0.178915 248.27 0.0946664 248.115 0.0767552 247.946C0.058844 247.777 0.108741 247.608 0.215466 247.476C0.322191 247.344 0.477004 247.26 0.645847 247.242C0.81469 247.224 0.98373 247.274 1.11579 247.381C3.73653 249.502 5.54736 251.58 7.64599 253.985L8.47882 254.94C8.56014 255.032 8.61314 255.146 8.63145 255.267C8.64977 255.389 8.63264 255.513 8.5821 255.625C8.53156 255.737 8.44977 255.832 8.34652 255.899C8.24328 255.966 8.12296 256.002 8 256.002H7.99745Z" fill="white"/>
</g>
</g>
</g>
<defs>
<clipPath id="clip0_2447_64430">
<rect width="256" height="256" fill="white"/>
</clipPath>
</defs>
</svg>
