<svg width="30" height="30" viewBox="0 0 30 30" fill="none" xmlns="http://www.w3.org/2000/svg">
<rect width="30" height="30" rx="8" fill="#1476FF"/>
<path d="M19.9512 13.9323C20.9681 13.7894 21.751 12.9176 21.7532 11.8613C21.7532 10.8203 20.9943 9.95723 19.9993 9.79395" stroke="white" stroke-width="1.4" stroke-linecap="round" stroke-linejoin="round"/>
<path d="M21.292 16.377C22.2768 16.5242 22.9642 16.869 22.9642 17.5797C22.9642 18.0689 22.6406 18.3867 22.1172 18.5864" stroke="white" stroke-width="1.4" stroke-linecap="round" stroke-linejoin="round"/>
<path fill-rule="evenodd" clip-rule="evenodd" d="M15.5763 16.6787C13.2334 16.6787 11.2324 17.0337 11.2324 18.4516C11.2324 19.8687 13.221 20.2339 15.5763 20.2339C17.9192 20.2339 19.9195 19.8825 19.9195 18.4639C19.9195 17.0454 17.9316 16.6787 15.5763 16.6787Z" stroke="white" stroke-width="1.4" stroke-linecap="round" stroke-linejoin="round"/>
<path fill-rule="evenodd" clip-rule="evenodd" d="M15.5759 14.6548C17.1133 14.6548 18.3599 13.409 18.3599 11.8708C18.3599 10.3334 17.1133 9.08691 15.5759 9.08691C14.0385 9.08691 12.792 10.3334 12.792 11.8708C12.7862 13.4031 14.0232 14.6497 15.5555 14.6548H15.5759Z" stroke="white" stroke-width="1.4" stroke-linecap="round" stroke-linejoin="round"/>
<path d="M11.2004 13.9323C10.1828 13.7894 9.40062 12.9176 9.39844 11.8613C9.39844 10.8203 10.1573 9.95723 11.1523 9.79395" stroke="white" stroke-width="1.4" stroke-linecap="round" stroke-linejoin="round"/>
<path d="M9.85877 16.377C8.87394 16.5242 8.18652 16.869 8.18652 17.5797C8.18652 18.0689 8.51018 18.3867 9.03358 18.5864" stroke="white" stroke-width="1.4" stroke-linecap="round" stroke-linejoin="round"/>
</svg>
