<svg width="48" height="48" viewBox="0 0 48 48" fill="none" xmlns="http://www.w3.org/2000/svg">
<g clip-path="url(#clip0_2485_57854)">
<path d="M47.2816 29.8066C44.0758 42.6651 31.0523 50.4906 18.1923 47.284C5.3376 44.0782 -2.48791 31.054 0.719403 18.1963C3.92371 5.33627 16.9472 -2.48998 29.8034 0.715824C42.6627 3.92163 50.4874 16.9474 47.2816 29.8066Z" fill="#172852"/>
<path d="M19.3314 10.9062C22.1421 9.85489 25.3056 9.85249 28.1691 10.7166C31.8966 11.8735 35.0433 14.6866 36.6875 18.2173C37.1412 19.223 37.5756 20.2719 37.6188 21.3904C35.5234 20.1759 33.2264 19.3886 30.9245 18.671C27.2426 17.3436 23.3878 16.4219 19.9026 14.5978C19.0914 14.1129 18.0569 13.6161 17.836 12.6056C17.7472 11.7319 18.6713 11.2446 19.3314 10.9062Z" fill="#FFD83D"/>
<path d="M10.8464 19.4029C11.6601 17.1946 12.9946 15.1448 14.8068 13.6255C15.2676 17.4155 16.8806 21.0782 19.5449 23.8337C22.7396 27.1532 27.2904 29.191 31.9205 29.1142C33.7591 29.1718 35.5569 28.747 37.3499 28.4038C35.5857 34.7788 28.5986 39.0104 22.1251 37.9927C18.2175 37.4935 14.61 35.1796 12.433 31.9129C9.97752 28.303 9.35826 23.5097 10.8464 19.4029Z" fill="#FFD83D"/>
<path d="M30.9248 18.6709C33.2266 19.3886 35.5237 20.1758 37.6191 21.3904L37.7607 21.4648C37.9551 22.9265 38.0967 24.4171 37.8375 25.8812C36.7838 25.4348 35.9293 24.6499 35.0364 23.9562C33.3178 22.5257 31.5633 20.8887 30.9248 18.6709Z" fill="#FF6F03"/>
</g>
<defs>
<clipPath id="clip0_2485_57854">
<rect width="48" height="48" fill="white"/>
</clipPath>
</defs>
</svg>
