<svg width="48" height="48" viewBox="0 0 48 48" fill="none" xmlns="http://www.w3.org/2000/svg">
<g clip-path="url(#clip0_2485_57806)">
<path d="M47.279 29.8062C44.0735 42.6634 31.0513 50.4882 18.1925 47.2819C5.33904 44.0764 -2.48571 31.0534 0.721287 18.1969C3.92529 5.3382 16.9475 -2.4873 29.8025 0.718197C42.6605 3.9237 50.4845 16.9482 47.279 29.8062Z" fill="#00A478"/>
<path d="M21.1108 23.3405V18.299H14.2729V13.8799H33.3805V18.3612H26.5427V23.3405H21.1108Z" fill="white"/>
<path fill-rule="evenodd" clip-rule="evenodd" d="M11.3315 23.9009C11.3315 22.2204 16.8274 20.8511 23.6652 20.8511C30.503 20.8511 35.9988 22.2204 35.9988 23.9009C35.9988 25.5814 30.503 26.9507 23.6652 26.9507C16.8274 26.9507 11.3315 25.5814 11.3315 23.9009ZM34.9763 23.901C34.529 23.2786 30.8225 21.3491 23.6651 21.3491C16.5078 21.3491 12.8013 23.2163 12.354 23.901C12.8013 24.5234 16.5078 25.457 23.6651 25.457C30.8864 25.457 34.529 24.5234 34.9763 23.901Z" fill="white"/>
<path d="M26.5404 24.8966V21.4111C25.6457 21.3489 24.6871 21.2866 23.7286 21.2866C22.8339 21.2866 22.0031 21.2866 21.1724 21.3489V24.8343C21.9392 24.8343 22.8339 24.8966 23.7286 24.8966C24.6871 24.9588 25.6457 24.9588 26.5404 24.8966Z" fill="white"/>
<path d="M23.6641 26.9507C22.7694 26.9507 21.9387 26.9507 21.1079 26.8884V36.1623H26.4759V26.8262C25.5812 26.8884 24.6227 26.9507 23.6641 26.9507Z" fill="white"/>
</g>
<defs>
<clipPath id="clip0_2485_57806">
<rect width="48" height="48" fill="white"/>
</clipPath>
</defs>
</svg>
