<svg width="257" height="257" viewBox="0 0 257 257" fill="none" xmlns="http://www.w3.org/2000/svg">
<g opacity="0.06">
<mask id="mask0_2490_58385" style="mask-type:alpha" maskUnits="userSpaceOnUse" x="0" y="0" width="257" height="257">
<circle cx="128.14" cy="128.14" r="128.14" fill="#1476FF"/>
</mask>
<g mask="url(#mask0_2490_58385)">
<path d="M255.399 8.79844C255.253 8.79821 255.111 8.74788 254.997 8.65581C252.376 6.53426 250.565 4.45601 248.467 2.04921L247.634 1.09667C247.522 0.969348 247.465 0.802691 247.475 0.63337C247.486 0.464049 247.564 0.305935 247.691 0.193806C247.818 0.0816772 247.985 0.0247186 248.154 0.0354654C248.324 0.0462121 248.482 0.123781 248.594 0.251108L249.432 1.20874C251.49 3.5697 253.267 5.60974 255.799 7.65998C255.901 7.74361 255.975 7.85671 256.011 7.98387C256.046 8.11103 256.042 8.24605 255.998 8.37053C255.954 8.49502 255.872 8.6029 255.765 8.67947C255.657 8.75605 255.529 8.79759 255.397 8.79844H255.399Z" fill="white"/>
<path d="M255.399 26.8431C255.312 26.8444 255.226 26.8279 255.145 26.7947C244.639 22.465 237.745 12.4201 231.663 3.55952C231.079 2.71141 230.501 1.86839 229.926 1.03811C229.829 0.898625 229.792 0.726485 229.822 0.559552C229.852 0.39262 229.948 0.24457 230.087 0.147977C230.227 0.0513841 230.399 0.014157 230.566 0.0444867C230.733 0.0748163 230.881 0.170221 230.977 0.309706C231.556 1.13999 232.134 1.98555 232.717 2.83621C238.992 11.9744 245.479 21.4284 255.639 25.613C255.777 25.6697 255.89 25.7728 255.96 25.9044C256.03 26.0359 256.051 26.1877 256.021 26.3335C255.991 26.4794 255.911 26.6101 255.794 26.7031C255.678 26.7961 255.533 26.8457 255.384 26.8431H255.399Z" fill="white"/>
<path d="M255.399 44.8218H255.333C237.429 42.932 226.174 24.0647 217.13 8.91079C215.452 6.09649 213.865 3.43754 212.321 1.03074C212.23 0.887877 212.198 0.714373 212.234 0.548396C212.27 0.382419 212.371 0.237565 212.514 0.145701C212.657 0.0538363 212.83 0.022487 212.996 0.0585483C213.162 0.0946095 213.307 0.195125 213.399 0.337988C214.952 2.76262 216.544 5.43175 218.238 8.25624C227.134 23.1708 238.208 41.7324 255.473 43.556C255.634 43.5761 255.78 43.6561 255.884 43.7799C255.988 43.9037 256.041 44.0622 256.032 44.2235C256.024 44.3848 255.955 44.537 255.839 44.6494C255.723 44.7618 255.569 44.8261 255.407 44.8294L255.399 44.8218Z" fill="white"/>
<path d="M254.154 62.7563C242.339 62.7563 233.3 58.1286 224.982 47.8749C217.272 38.3699 210.768 27.4489 204.479 16.8895C201.336 11.6149 198.089 6.16206 194.766 1.0199C194.72 0.949332 194.689 0.870494 194.674 0.787888C194.659 0.705281 194.66 0.620523 194.678 0.538458C194.696 0.456392 194.729 0.378624 194.777 0.309594C194.825 0.240563 194.886 0.181622 194.957 0.136135C195.027 0.0906488 195.106 0.0595082 195.189 0.0444904C195.271 0.0294726 195.356 0.0308723 195.438 0.0486098C195.52 0.0663473 195.598 0.100076 195.667 0.147868C195.736 0.19566 195.795 0.25658 195.84 0.327152C199.177 5.48713 202.429 10.9502 205.577 16.235C211.845 26.7561 218.311 37.6288 225.975 47.0675C234.313 57.3467 243.38 61.791 255.381 61.4599H255.399C255.558 61.4718 255.708 61.5429 255.817 61.6592C255.927 61.7756 255.989 61.9287 255.991 62.0885C255.993 62.2483 255.935 62.4031 255.829 62.5225C255.723 62.6418 255.576 62.7171 255.417 62.7334C254.992 62.7486 254.571 62.7563 254.154 62.7563Z" fill="white"/>
<path d="M247.64 81.1728C234.299 81.1728 224.374 75.6817 216.101 63.9508C212.177 58.3884 208.716 52.3854 205.387 46.5785C204.589 45.193 203.791 43.81 202.993 42.4296C196.175 30.714 187.087 15.4174 177.249 1.03517C177.153 0.895344 177.116 0.723143 177.148 0.55645C177.179 0.389756 177.275 0.242222 177.414 0.146305C177.554 0.0503872 177.726 0.0139445 177.893 0.0449906C178.06 0.0760367 178.207 0.172031 178.303 0.311854C188.167 14.7297 197.27 30.0492 204.098 41.7878C204.903 43.1682 205.703 44.5529 206.497 45.9418C209.808 51.7206 213.257 57.7007 217.146 63.2122C226.656 76.6953 238.427 81.6668 255.313 79.3339C255.482 79.3109 255.653 79.356 255.789 79.4592C255.925 79.5623 256.014 79.7152 256.037 79.884C256.06 80.0529 256.014 80.224 255.911 80.3596C255.808 80.4953 255.655 80.5844 255.486 80.6073C252.887 80.9755 250.265 81.1644 247.64 81.1728Z" fill="white"/>
<path d="M238.351 100.062C232.717 100.062 227.19 99.1099 222.01 96.074C215.248 92.1162 210.738 85.4434 207.215 79.4353C204.128 74.176 201.289 68.667 198.541 63.339C196.636 59.6485 194.669 55.8333 192.64 52.1327C182.607 33.869 171.526 16.6827 159.706 1.04991C159.622 0.914139 159.592 0.751831 159.621 0.594926C159.651 0.43802 159.738 0.29788 159.866 0.202074C159.994 0.106269 160.153 0.0617368 160.311 0.0772407C160.47 0.0927447 160.618 0.167162 160.725 0.28585C172.58 15.9644 183.695 33.2043 193.758 51.5214C195.795 55.2297 197.766 59.0526 199.674 62.7506C202.414 68.0609 205.247 73.5545 208.316 78.796C211.754 84.6538 216.147 91.1687 222.652 94.9789C231.915 100.401 242.535 98.8731 252.81 97.3984C253.645 97.2762 254.478 97.1573 255.308 97.0418C255.392 97.0301 255.477 97.035 255.558 97.0562C255.64 97.0774 255.717 97.1145 255.784 97.1653C255.852 97.2162 255.909 97.2798 255.951 97.3525C255.994 97.4253 256.022 97.5058 256.034 97.5894C256.046 97.673 256.041 97.7581 256.02 97.8399C255.998 97.9216 255.961 97.9984 255.91 98.0658C255.86 98.1332 255.796 98.1899 255.723 98.2327C255.65 98.2755 255.57 98.3036 255.486 98.3153L252.99 98.6719C248.139 99.3544 243.205 100.062 238.351 100.062Z" fill="white"/>
<path d="M234.807 116.758C232.635 116.758 230.478 116.717 228.328 116.618L227.016 116.562C222.603 116.378 217.593 116.172 213.773 114.124C205.913 109.912 201.349 100.117 198.328 93.6272C196.622 89.9648 194.959 86.2209 193.352 82.5992C190.181 75.4679 186.906 68.082 183.164 61.0551C171.814 39.5766 158.055 19.46 142.154 1.09394C142.053 0.964323 142.006 0.800908 142.022 0.637358C142.038 0.473808 142.116 0.322582 142.24 0.214839C142.364 0.107096 142.525 0.0510454 142.689 0.0582318C142.853 0.0654183 143.008 0.135296 143.122 0.253468C159.089 18.6933 172.905 38.8901 184.305 60.4541C188.057 67.5268 191.342 74.9255 194.521 82.0796C196.125 85.6962 197.788 89.435 199.487 93.0873C202.436 99.4188 206.894 108.985 214.379 112.996C217.944 114.906 222.784 115.108 227.067 115.288L228.387 115.344C237.42 115.762 246.951 115.164 255.358 114.634C255.516 114.641 255.666 114.706 255.779 114.817C255.892 114.928 255.96 115.076 255.97 115.234C255.98 115.392 255.931 115.548 255.834 115.672C255.736 115.796 255.595 115.88 255.44 115.907C248.983 116.302 241.867 116.758 234.807 116.758Z" fill="white"/>
<path d="M255.399 133.491C253.305 133.463 251.204 133.455 248.98 133.445C234.756 133.386 218.637 133.32 205.411 127.967C195.7 124.034 192.766 115.502 189.661 106.468L189.455 105.867C185.158 93.3876 180.714 80.48 174.66 68.2117C163.354 45.305 146.983 23.3611 124.616 1.12685C124.496 1.00729 124.428 0.844865 124.428 0.675305C124.427 0.505746 124.494 0.342942 124.614 0.222707C124.733 0.102473 124.896 0.0346599 125.065 0.0341822C125.235 0.0337046 125.398 0.100603 125.518 0.220162C147.981 22.5538 164.429 44.6097 175.798 67.6565C181.888 79.9961 186.345 92.9419 190.657 105.462L190.863 106.061C194.001 115.191 196.721 123.077 205.89 126.79C218.879 132.052 234.876 132.118 248.983 132.177C251.209 132.177 253.313 132.194 255.411 132.222C255.57 132.237 255.718 132.31 255.826 132.428C255.934 132.546 255.994 132.699 255.994 132.859C255.994 133.019 255.934 133.173 255.826 133.291C255.718 133.408 255.57 133.482 255.411 133.496L255.399 133.491Z" fill="white"/>
<path d="M255.399 151.067H255.346C253.107 150.884 250.858 150.713 248.469 150.535C231.385 149.261 212.018 147.797 196.793 140.072C186.738 134.979 183.228 127.254 180.562 115.648C176.303 97.0988 171.648 83.3737 165.466 71.1436C153.392 47.2462 134.827 25.0094 107.046 1.16293C106.917 1.05249 106.837 0.895322 106.824 0.726001C106.811 0.55668 106.865 0.389077 106.976 0.260061C107.086 0.131045 107.244 0.0511872 107.413 0.0380523C107.582 0.0249174 107.75 0.0795833 107.879 0.190023C135.803 24.1511 154.464 46.5178 166.62 70.5654C172.847 82.8898 177.536 96.7066 181.82 115.357C184.4 126.594 187.774 134.054 197.384 138.929C212.38 146.536 231.609 147.983 248.576 149.256C250.96 149.435 253.209 149.605 255.453 149.791C255.612 149.811 255.759 149.889 255.863 150.012C255.967 150.135 256.021 150.292 256.014 150.453C256.008 150.613 255.94 150.766 255.826 150.879C255.712 150.992 255.56 151.059 255.399 151.065V151.067Z" fill="white"/>
<path d="M255.399 168.648H255.307C253.206 168.347 251.059 168.049 248.879 167.746C228.048 164.856 204.436 161.58 186.962 150.3C175.842 143.123 173.007 132.25 171.703 122.56C169.103 103.236 164.605 87.8354 157.548 74.0873C150.416 60.1813 140.662 47.0292 127.749 33.8771C117.546 23.4655 105.388 13.0793 89.4798 1.18285C89.4044 1.13614 89.3395 1.07422 89.2892 1.00105C89.239 0.927873 89.2046 0.845044 89.1881 0.757828C89.1716 0.670612 89.1735 0.580922 89.1936 0.494474C89.2137 0.408025 89.2516 0.326708 89.3049 0.255704C89.3581 0.184699 89.4256 0.125563 89.5029 0.082059C89.5803 0.0385547 89.6659 0.0116387 89.7542 0.00302086C89.8425 -0.00559702 89.9317 0.0042726 90.016 0.0320044C90.1003 0.0597361 90.1779 0.104721 90.2439 0.164093C106.2 12.0988 118.41 22.5257 128.669 32.9755C141.658 46.2193 151.484 59.4758 158.684 73.499C165.815 87.3795 170.348 102.913 172.969 122.384C173.825 128.751 175.172 133.59 177.207 137.665C179.601 142.448 183.017 146.228 187.649 149.218C204.887 160.345 228.348 163.6 249.05 166.47C251.232 166.773 253.379 167.071 255.485 167.374C255.648 167.395 255.796 167.477 255.9 167.603C256.004 167.73 256.055 167.891 256.043 168.055C256.032 168.218 255.958 168.37 255.837 168.481C255.716 168.591 255.557 168.651 255.394 168.648H255.399Z" fill="white"/>
<path d="M255.4 186.178C255.352 186.178 255.303 186.172 255.255 186.16C251.012 185.182 246.736 184.27 242.208 183.307C219.395 178.445 195.803 173.436 177.649 159.683C165.473 150.46 163.338 138.342 162.844 126.619C162.001 106.593 157.511 89.4753 149.117 74.2882C141.221 60.0257 130.033 46.6342 114.876 33.365C101.658 21.7919 86.9091 11.5458 71.6991 1.20295C71.6295 1.15579 71.5699 1.09539 71.5237 1.0252C71.4775 0.955009 71.4455 0.876399 71.4297 0.793861C71.4138 0.711322 71.4144 0.626474 71.4314 0.544155C71.4483 0.461836 71.4813 0.383658 71.5285 0.31409C71.5756 0.244522 71.636 0.184926 71.7062 0.1387C71.7764 0.0924751 71.855 0.0605264 71.9376 0.0446809C72.0201 0.0288354 72.1049 0.0294013 72.1873 0.0463481C72.2696 0.0632948 72.3477 0.0962904 72.4173 0.143449C87.6629 10.5118 102.445 20.7732 115.714 32.4022C130.996 45.7734 142.273 59.2718 150.232 73.6617C158.723 89.0245 163.265 106.328 164.118 126.558C164.93 145.863 171.471 153.394 178.416 158.649C196.346 172.229 219.793 177.218 242.47 182.042C247.001 183.004 251.285 183.916 255.541 184.899C255.624 184.909 255.705 184.935 255.779 184.975C255.852 185.016 255.917 185.071 255.97 185.137C256.022 185.203 256.061 185.278 256.084 185.359C256.107 185.44 256.114 185.525 256.105 185.609C256.095 185.692 256.069 185.773 256.028 185.847C255.988 185.92 255.933 185.985 255.867 186.038C255.801 186.09 255.725 186.129 255.645 186.152C255.564 186.175 255.479 186.182 255.395 186.173L255.4 186.178Z" fill="white"/>
<path d="M255.399 203.718C255.328 203.718 255.258 203.706 255.191 203.683C245.867 200.456 236.221 197.425 226.895 194.494C216.934 191.361 206.634 188.126 196.681 184.637C186.44 181.051 176.138 174.918 167.677 167.372C161.636 161.985 157.513 156.013 155.417 149.625C153.494 143.767 153.7 137.543 153.888 131.522C153.922 130.577 153.952 129.632 153.975 128.695C154.512 106.756 150.259 89.2184 140.591 73.4634C123.176 45.086 93.8814 26.5753 65.5499 8.67073C61.6787 6.22573 57.675 3.69413 53.8215 1.21092C53.679 1.11906 53.5788 0.974338 53.543 0.8086C53.5072 0.642861 53.5387 0.469679 53.6305 0.327154C53.7224 0.184629 53.8671 0.0844348 54.0328 0.0486124C54.1986 0.0127899 54.3718 0.0442735 54.5143 0.136138C58.3626 2.6168 62.3638 5.14585 66.2299 7.59086C94.6837 25.5718 124.105 44.1641 141.686 72.791C151.487 88.7574 155.816 106.53 155.264 128.726C155.241 129.668 155.21 130.615 155.18 131.565C154.984 137.474 154.78 143.582 156.631 149.225C158.656 155.397 162.66 161.18 168.53 166.417C176.869 173.854 187.016 179.898 197.104 183.43C207.037 186.909 217.329 190.144 227.279 193.274C236.614 196.208 246.266 199.241 255.608 202.473C255.753 202.521 255.875 202.62 255.953 202.75C256.032 202.881 256.061 203.035 256.036 203.185C256.011 203.335 255.933 203.471 255.816 203.569C255.699 203.667 255.552 203.72 255.399 203.718V203.718Z" fill="white"/>
<path d="M255.399 221.294C255.304 221.294 255.21 221.272 255.124 221.231C242.461 215.192 229.225 209.813 216.427 204.61C209.171 201.66 201.67 198.612 194.358 195.477L193.207 194.982C180.806 189.672 167.993 184.184 158.208 174.146C151.077 166.814 146.821 160.001 145.219 153.318C143.691 146.854 144.259 139.855 144.819 133.088C144.928 131.766 145.03 130.521 145.119 129.268L145.229 127.74C145.817 119.506 146.428 110.991 145.046 102.849C143.4 93.1709 139.004 82.8866 132.331 73.099C123.104 59.5649 110.141 49.739 96.5453 40.043C83.6759 30.8615 70.0577 22.4696 56.9005 14.3501C49.9883 10.0892 42.8443 5.69071 35.8684 1.20311C35.7259 1.11124 35.6257 0.966526 35.5899 0.800787C35.554 0.635049 35.5855 0.461867 35.6774 0.319342C35.7693 0.176816 35.914 0.0766223 36.0797 0.0407999C36.2455 0.00497739 36.4186 0.036461 36.5612 0.128326C43.5243 4.60065 50.6658 9.0042 57.5704 13.2626C70.753 21.3897 84.3839 29.7944 97.3017 39.0014C110.991 48.7763 124.054 58.6786 133.404 72.3859C140.181 82.3187 144.648 92.7864 146.322 102.643C147.73 110.938 147.116 119.529 146.52 127.839L146.411 129.367C146.322 130.625 146.215 131.934 146.11 133.2C145.557 139.868 144.987 146.765 146.479 153.028C148.008 159.482 152.154 166.101 159.13 173.26C168.729 183.114 181.43 188.541 193.716 193.816L194.865 194.308C202.169 197.438 209.665 200.486 216.913 203.433C229.729 208.641 242.983 214.031 255.679 220.085C255.811 220.147 255.917 220.252 255.981 220.382C256.045 220.513 256.062 220.662 256.03 220.804C255.998 220.945 255.919 221.072 255.805 221.163C255.691 221.253 255.55 221.302 255.404 221.302L255.399 221.294Z" fill="white"/>
<path d="M255.399 238.916C255.276 238.916 255.156 238.881 255.053 238.814C240.062 229.169 223.808 221.307 208.088 213.702C203.934 211.692 199.638 209.627 195.423 207.531C193.878 206.767 192.315 206.003 190.734 205.239C176.421 198.23 161.621 190.976 150.149 180.343C143.054 173.762 138.658 165.94 136.71 156.43C134.82 147.216 135.436 137.329 136.274 128.865C137.881 112.805 136.761 104.023 135.777 98.8121C133.804 88.3495 129.548 79.6392 122.765 72.1819C110.838 59.0705 95.6207 49.0282 79.7715 39.0521C71.7488 34.0016 63.4486 29.1753 55.4233 24.5068C42.9182 17.2355 29.9851 9.7171 17.8517 1.20288C17.7126 1.10561 17.6178 0.957052 17.5882 0.78988C17.5586 0.622709 17.5966 0.450621 17.6938 0.311473C17.7911 0.172326 17.9397 0.0775147 18.1068 0.0479014C18.274 0.0182882 18.4461 0.0562997 18.5853 0.153568C30.6753 8.63723 43.5829 16.1429 56.0651 23.4015C64.1006 28.075 72.411 32.9064 80.4515 37.9696C96.3823 47.9942 111.676 58.09 123.713 71.3338C130.658 78.9744 135.016 87.8885 137.036 98.5854C139.116 109.618 138.324 121.227 137.545 128.998C136.71 137.362 136.106 147.131 137.96 156.178C139.855 165.418 144.124 173.018 151.018 179.411C162.349 189.922 177.065 197.127 191.294 204.095C192.873 204.868 194.438 205.632 195.988 206.387C200.198 208.468 204.492 210.544 208.644 212.553C224.396 220.173 240.686 228.053 255.743 237.742C255.859 237.817 255.948 237.927 255.996 238.056C256.044 238.186 256.049 238.327 256.01 238.46C255.971 238.592 255.89 238.708 255.78 238.791C255.669 238.874 255.535 238.919 255.397 238.918L255.399 238.916Z" fill="white"/>
<path d="M255.4 256C255.241 256.001 255.088 255.942 254.972 255.835C238.654 241.093 218.926 230.829 199.85 220.904C181.082 211.14 161.674 201.039 145.374 186.646C135.075 177.546 129.074 167.731 127.037 156.636C125.3 147.192 126.357 137.535 127.378 128.213L127.437 127.676C128.455 118.438 129.492 108.887 127.791 99.6295C125.807 88.8282 119.944 79.2544 109.866 70.3403C93.7084 56.0549 74.3699 46.0074 55.6681 36.2631C36.5207 26.3022 16.7238 16.0001 0.283695 1.1467C0.216227 1.09203 0.160602 1.02419 0.120217 0.947317C0.0798319 0.870445 0.0555328 0.786152 0.0487997 0.699578C0.0420666 0.613004 0.0530413 0.525967 0.0810554 0.443775C0.10907 0.361582 0.153533 0.285958 0.211738 0.221517C0.269942 0.157077 0.340666 0.10517 0.419593 0.0689632C0.498519 0.0327565 0.583996 0.0130092 0.670807 0.0109262C0.757617 0.00884313 0.843943 0.0244665 0.924515 0.0568459C1.00509 0.0892253 1.07822 0.137682 1.13944 0.199257C17.4573 14.9355 37.1829 25.2045 56.259 35.1297C75.0295 44.8945 94.4393 54.9954 110.727 69.3853C121.026 78.4878 127.027 88.3035 129.064 99.3977C130.799 108.842 129.744 118.499 128.723 127.816L128.664 128.353C127.646 137.591 126.609 147.144 128.31 156.407C130.294 167.206 136.157 176.782 146.233 185.696C162.403 199.984 181.741 210.047 200.443 219.776C219.59 229.739 239.392 240.042 255.83 254.895C255.926 254.982 255.993 255.095 256.023 255.221C256.053 255.346 256.044 255.478 255.997 255.598C255.951 255.718 255.87 255.822 255.763 255.895C255.657 255.968 255.531 256.008 255.402 256.008L255.4 256Z" fill="white"/>
<path d="M237.89 256.001C237.759 256 237.631 255.96 237.523 255.886C225.589 247.509 212.846 240.095 200.525 232.939C192.994 228.561 185.208 224.025 177.656 219.315C160.197 208.415 144.743 198.286 132.398 184.719C125.45 177.078 121.093 168.164 119.073 157.467C116.995 146.434 117.787 134.828 118.563 127.055C119.399 118.683 120.005 108.908 118.164 99.8617C116.274 90.5783 112.01 82.9759 105.093 76.6418C93.8613 66.3346 79.4893 59.2288 65.5909 52.3573L62.1119 50.633C57.3238 48.2543 52.4338 45.8882 47.7017 43.6011C31.8677 35.9452 15.4836 28.0269 0.365335 18.2953C0.222472 18.2034 0.121953 18.0586 0.085892 17.8926C0.0498307 17.7266 0.0811801 17.5531 0.173045 17.4103C0.264909 17.2674 0.409766 17.1669 0.575744 17.1308C0.741721 17.0948 0.915224 17.1261 1.05809 17.218C16.1203 26.9063 32.4586 34.8016 48.2594 42.4423C52.9915 44.7345 57.8866 47.098 62.6824 49.4819L66.1665 51.2086C80.1438 58.1209 94.5999 65.27 105.967 75.6994C113.075 82.222 117.479 90.0435 119.424 99.6045C121.301 108.817 120.698 118.706 119.842 127.18C118.604 139.573 118.757 148.828 120.339 157.233C122.313 167.695 126.568 176.406 133.353 183.863C145.578 197.31 160.967 207.386 178.341 218.246C185.875 222.952 193.653 227.473 201.174 231.846C213.519 239.023 226.286 246.445 238.267 254.852C238.379 254.93 238.463 255.042 238.507 255.171C238.551 255.3 238.552 255.44 238.511 255.57C238.47 255.7 238.388 255.814 238.278 255.894C238.167 255.974 238.034 256.017 237.898 256.016L237.89 256.001Z" fill="white"/>
<path d="M219.886 256C219.763 256.001 219.642 255.965 219.539 255.899C212.573 251.426 205.432 247.023 198.527 242.764C185.345 234.637 171.714 226.233 158.811 217.026C145.104 207.248 132.028 197.336 122.707 183.649C115.986 173.774 111.518 163.312 109.791 153.394C108.365 145.211 108.979 136.707 109.572 128.481L109.702 126.675C109.789 125.402 109.898 124.1 110.005 122.832C110.556 116.167 111.126 109.277 109.636 103.014C108.108 96.6294 103.857 89.8216 96.9832 82.782C87.3509 72.9154 74.6191 67.4626 62.3049 62.188L61.2454 61.7346C53.946 58.6045 46.4531 55.5584 39.2047 52.6117C26.3863 47.4008 13.1323 42.0141 0.433539 35.9576C0.280206 35.8847 0.16213 35.7538 0.105292 35.5938C0.0484539 35.4338 0.0575082 35.2578 0.130459 35.1044C0.203411 34.9511 0.334285 34.833 0.494292 34.7762C0.654299 34.7194 0.830333 34.7284 0.983666 34.8014C13.6493 40.8426 26.8854 46.2241 39.6963 51.4274C46.9472 54.3767 54.4452 57.4253 61.7573 60.558L62.8168 61.0139C75.2456 66.3368 88.0972 71.8406 97.9078 81.8983C104.945 89.1059 109.313 96.115 110.897 102.727C112.425 109.191 111.857 116.184 111.297 122.946C111.187 124.271 111.083 125.521 110.996 126.767L110.866 128.575C110.278 136.725 109.669 145.15 111.07 153.178C112.766 162.917 117.162 173.206 123.784 182.933C132.983 196.431 145.96 206.278 159.568 215.986C172.437 225.155 186.055 233.56 199.212 241.677C206.125 245.94 213.271 250.336 220.247 254.826C220.363 254.901 220.452 255.012 220.5 255.141C220.548 255.27 220.553 255.412 220.514 255.544C220.475 255.677 220.394 255.793 220.284 255.876C220.173 255.958 220.039 256.003 219.901 256.003L219.886 256Z" fill="white"/>
<path d="M201.943 256.001C201.82 256.001 201.7 255.965 201.596 255.899C197.743 253.415 193.737 250.884 189.863 248.436C161.414 230.46 131.998 211.871 114.417 183.236C104.624 167.277 100.294 149.505 100.847 127.309C100.87 126.306 100.905 125.295 100.941 124.281C101.135 118.678 101.338 112.868 99.7085 107.512C97.7474 101.097 93.6724 95.0758 87.5802 89.6179C79.2978 82.2014 69.151 76.1602 59.0068 72.6047C49.0739 69.1257 38.7845 65.8912 28.8364 62.7636C19.4995 59.827 9.84432 56.7937 0.502365 53.5617C0.34194 53.5063 0.210092 53.3895 0.13582 53.2369C0.061548 53.0843 0.0509383 52.9084 0.106327 52.748C0.161716 52.5875 0.278566 52.4557 0.43117 52.3814C0.583773 52.3072 0.759632 52.2965 0.920057 52.3519C10.2467 55.5788 19.8918 58.6096 29.2184 61.5436C39.1793 64.6737 49.4789 67.9108 59.4295 71.3975C69.7291 75.0064 80.0287 81.1393 88.4334 88.6654C94.7064 94.2685 98.9113 100.498 100.934 107.14C102.625 112.7 102.418 118.601 102.207 124.324C102.171 125.343 102.136 126.341 102.113 127.34C101.575 149.279 105.829 166.816 115.494 182.571C132.92 210.949 162.209 229.457 190.535 247.354C194.412 249.804 198.418 252.338 202.276 254.824C202.393 254.899 202.481 255.009 202.529 255.138C202.577 255.268 202.582 255.409 202.543 255.542C202.504 255.674 202.424 255.79 202.313 255.873C202.202 255.956 202.068 256.001 201.93 256.001H201.943Z" fill="white"/>
<path d="M184.054 256.001C183.926 256.001 183.801 255.963 183.695 255.891C168.668 245.671 154.09 235.552 140.976 224.147C125.888 211.025 114.651 197.802 106.624 183.723C97.6535 167.988 92.8705 150.241 91.9893 129.474C91.6786 122.088 90.7286 116.691 88.9075 111.967C86.7656 106.405 83.3375 101.823 78.4297 97.9591C60.6015 83.9309 36.8035 78.8881 13.7797 74.0184C9.19527 73.0455 4.86558 72.1286 0.566442 71.1379C0.409681 71.0913 0.276615 70.9867 0.194409 70.8453C0.112203 70.7039 0.0870618 70.5365 0.124119 70.3772C0.161175 70.218 0.257634 70.0788 0.3938 69.9883C0.529966 69.8977 0.695569 69.8625 0.85679 69.8899C5.133 70.8781 9.46015 71.795 14.0445 72.7679C36.1311 77.4465 61.1618 82.7517 79.2192 96.9633C90.7464 106.035 92.7839 117.929 93.2678 129.431C94.1363 149.997 98.8709 167.555 107.737 183.106C115.691 197.061 126.838 210.175 141.814 223.199C154.877 234.559 169.417 244.652 184.413 254.85C184.482 254.897 184.542 254.957 184.588 255.028C184.634 255.098 184.666 255.177 184.681 255.259C184.697 255.342 184.696 255.426 184.679 255.509C184.662 255.591 184.628 255.669 184.581 255.738C184.521 255.822 184.442 255.889 184.35 255.935C184.258 255.98 184.156 256.003 184.054 256.001V256.001Z" fill="white"/>
<path d="M166.258 256.001C166.12 256.001 165.985 255.957 165.874 255.874C150.183 244.14 138.151 233.894 128.015 223.635C115.188 210.646 105.434 197.68 98.1854 183.963C90.6187 169.636 85.8407 153.655 83.1588 133.654C82.3235 127.45 81.0449 122.702 79.1373 118.742C76.9334 114.087 73.4985 110.124 69.2045 107.281C52.1404 95.7692 28.3984 92.4939 7.45282 89.6057C5.08677 89.2797 2.85315 88.9715 0.629728 88.6506C0.460859 88.6263 0.308567 88.5359 0.206354 88.3993C0.10414 88.2627 0.0603782 88.0911 0.0846952 87.9222C0.109012 87.7533 0.199419 87.601 0.336022 87.4988C0.472625 87.3966 0.644235 87.3529 0.813103 87.3772C3.03144 87.6955 5.26505 88.0037 7.62856 88.3297C28.7116 91.2382 52.609 94.5339 69.9176 106.211C80.4133 113.292 83.1359 123.963 84.417 133.463C87.0861 153.306 91.8233 169.155 99.3163 183.344C106.504 196.952 116.189 209.831 128.924 222.716C139.007 232.949 150.99 243.155 166.63 254.852C166.738 254.933 166.817 255.045 166.857 255.173C166.898 255.301 166.896 255.438 166.854 255.566C166.812 255.693 166.731 255.804 166.622 255.882C166.513 255.961 166.382 256.003 166.248 256.004L166.258 256.001Z" fill="white"/>
<path d="M148.637 256C148.485 256 148.337 255.946 148.222 255.847C120.774 232.286 102.352 210.398 90.2444 186.967C83.6225 174.138 78.6969 159.861 74.2933 140.675C70.962 126.158 66.3343 121.191 59.4654 117.498C44.6069 109.511 25.1258 108.075 7.9369 106.801C5.41295 106.615 3.02652 106.44 0.657919 106.244C0.492881 106.225 0.341727 106.142 0.236472 106.014C0.131218 105.885 0.0801361 105.721 0.0940419 105.555C0.107948 105.389 0.18575 105.236 0.310971 105.127C0.436192 105.017 0.598996 104.961 0.764891 104.97C3.12585 105.166 5.50973 105.342 8.03114 105.528C25.3499 106.801 44.9609 108.258 60.0716 116.373C70.5571 122.009 73.3714 130.948 75.5387 140.39C79.9194 159.466 84.8043 173.649 91.3803 186.379C103.407 209.66 121.732 231.425 149.052 254.874C149.152 254.959 149.223 255.073 149.256 255.2C149.289 255.327 149.282 255.46 149.237 255.583C149.191 255.706 149.109 255.812 149.001 255.887C148.893 255.961 148.765 256.001 148.634 256H148.637Z" fill="white"/>
<path d="M131.047 256.001C130.964 256.001 130.881 255.985 130.803 255.953C130.726 255.921 130.656 255.874 130.597 255.815C108.589 233.937 92.3934 212.393 81.0801 189.945C74.5372 176.956 69.7108 162.948 65.455 150.583L65.1239 149.625C62.2434 141.22 59.5208 133.3 50.976 129.579C38.0378 123.942 21.8091 123.904 7.49309 123.866C5.13723 123.866 2.90871 123.853 0.703108 123.825C0.544069 123.811 0.396118 123.738 0.288362 123.62C0.180606 123.502 0.12085 123.348 0.12085 123.188C0.12085 123.029 0.180606 122.875 0.288362 122.757C0.396118 122.639 0.544069 122.566 0.703108 122.552V122.552C2.90616 122.58 5.12958 122.585 7.48035 122.593C21.9237 122.631 38.2976 122.671 51.4726 128.41C60.5624 132.347 63.364 140.54 66.3362 149.21L66.675 150.175C70.9181 162.502 75.7291 176.474 82.2313 189.379C93.4809 211.703 109.6 233.14 131.508 254.918C131.598 255.008 131.659 255.121 131.684 255.246C131.709 255.37 131.697 255.498 131.649 255.615C131.6 255.732 131.518 255.832 131.413 255.903C131.308 255.973 131.184 256.011 131.058 256.011L131.047 256.001Z" fill="white"/>
<path d="M113.472 256C113.38 256 113.29 255.981 113.206 255.943C113.123 255.905 113.048 255.85 112.988 255.781C97.0204 237.341 83.2037 217.143 71.805 195.578C68.0559 188.508 64.7705 181.114 61.5945 173.962C59.9874 170.343 58.3243 166.602 56.623 162.947C53.6864 156.616 49.2192 147.052 41.7314 143.043C38.1505 141.123 33.3623 140.929 29.1345 140.751L27.7235 140.693C18.6923 140.275 9.16188 140.873 0.75208 141.403C0.663259 141.419 0.572173 141.415 0.484754 141.393C0.397334 141.371 0.315544 141.331 0.244713 141.275C0.173881 141.219 0.115598 141.149 0.0736603 141.069C0.0317225 140.99 0.00706884 140.902 0.00131033 140.812C-0.00444818 140.722 0.0088175 140.632 0.0402387 140.547C0.0716599 140.463 0.120533 140.386 0.183676 140.321C0.246818 140.257 0.322809 140.207 0.406703 140.174C0.490596 140.141 0.580507 140.126 0.670578 140.13C9.11349 139.6 18.6821 138.999 27.7821 139.419L29.188 139.478C33.5508 139.653 38.4968 139.855 42.3375 141.912C50.1998 146.125 54.7638 155.92 57.7818 162.407C59.4908 166.072 61.1539 169.819 62.7635 173.443C65.9318 180.574 69.2071 187.947 72.9358 194.979C84.2847 216.457 98.0415 236.574 113.941 254.94C114.021 255.033 114.074 255.147 114.091 255.268C114.109 255.389 114.092 255.513 114.041 255.625C113.99 255.737 113.908 255.832 113.805 255.898C113.702 255.965 113.582 256 113.459 256H113.472Z" fill="white"/>
<path d="M95.8933 256.001C95.7944 256.002 95.6968 255.979 95.6083 255.935C95.5198 255.891 95.443 255.826 95.3839 255.747C83.5256 240.066 72.4111 222.826 62.3509 204.511C60.3134 200.803 58.3396 196.978 56.4345 193.279C53.6941 187.969 50.8619 182.476 47.7929 177.234C44.3546 171.376 39.9613 164.864 33.4565 161.054C24.191 155.631 13.5909 157.157 3.32439 158.632C2.48138 158.754 1.63836 158.886 0.800434 158.993C0.631565 159.017 0.46022 158.973 0.324095 158.87C0.18797 158.767 0.0982133 158.615 0.0745716 158.446C0.05093 158.277 0.0953384 158.106 0.198029 157.969C0.30072 157.833 0.453281 157.744 0.622149 157.72L3.14356 157.361C13.6189 155.856 24.4508 154.305 34.1034 159.946C40.8629 163.904 45.3759 170.577 48.8983 176.582C51.9825 181.844 54.8223 187.35 57.5704 192.678C59.4729 196.369 61.4417 200.187 63.4715 203.885C73.5037 222.146 84.5826 239.332 96.4027 254.967C96.4736 255.062 96.5168 255.175 96.5275 255.292C96.5381 255.41 96.5157 255.528 96.4628 255.634C96.4099 255.74 96.3286 255.829 96.228 255.891C96.1275 255.953 96.0115 255.986 95.8933 255.986V256.001Z" fill="white"/>
<path d="M78.3348 256C78.2309 256.001 78.1285 255.975 78.0365 255.927C77.9446 255.879 77.866 255.808 77.8076 255.722C71.1475 245.988 65.0579 235.521 59.1695 225.397C52.8176 214.478 46.2517 203.188 38.9651 192.82C29.4882 179.321 17.7165 174.362 0.797536 176.7C0.713921 176.712 0.628885 176.707 0.547283 176.685C0.46568 176.664 0.389113 176.626 0.321947 176.575C0.186299 176.472 0.0971894 176.319 0.0742233 176.15C0.0512571 175.981 0.0963156 175.81 0.199484 175.675C0.302653 175.539 0.455482 175.45 0.62435 175.427C18.0756 173.015 30.2242 178.152 40.0119 192.078C47.329 202.49 53.9102 213.806 60.2748 224.75C66.153 234.851 72.2299 245.298 78.8671 254.994C78.9329 255.09 78.9713 255.202 78.9781 255.319C78.9849 255.435 78.9598 255.551 78.9055 255.654C78.8513 255.757 78.7699 255.843 78.6702 255.903C78.5705 255.963 78.4563 255.995 78.3399 255.995L78.3348 256Z" fill="white"/>
<path d="M60.8172 256.001C60.7102 256.001 60.6049 255.975 60.511 255.923C60.417 255.872 60.3375 255.798 60.2798 255.708C56.9433 250.548 53.691 245.085 50.543 239.8C44.2752 229.279 37.7959 218.406 30.1451 208.965C21.8066 198.688 12.7346 194.242 0.738794 194.575H0.710778C0.55142 194.563 0.402278 194.492 0.292736 194.376C0.183194 194.26 0.121196 194.107 0.118959 193.947C0.116722 193.787 0.174408 193.632 0.28065 193.513C0.386892 193.393 0.533985 193.318 0.692948 193.302C13.1243 192.961 22.5146 197.547 31.1282 208.165C38.8376 217.67 45.3398 228.591 51.6306 239.151C54.7734 244.425 58.0207 249.878 61.3444 255.02C61.4365 255.163 61.4684 255.336 61.433 255.501C61.3977 255.667 61.298 255.812 61.1559 255.904C61.054 255.967 60.9368 256 60.8172 256.001V256.001Z" fill="white"/>
<path d="M43.2437 256.001C43.1369 256.001 43.0317 255.974 42.9379 255.923C42.844 255.872 42.7645 255.798 42.7063 255.709C41.1349 253.256 39.5406 250.592 37.8545 247.77C29.0118 232.983 18.0067 214.582 0.629334 212.488C0.545719 212.478 0.464899 212.452 0.391489 212.41C0.318078 212.369 0.253517 212.314 0.201487 212.247C0.149457 212.181 0.110978 212.105 0.08825 212.024C0.0655219 211.943 0.0589871 211.858 0.0690209 211.775C0.0790547 211.691 0.105462 211.61 0.14673 211.537C0.187998 211.464 0.24332 211.399 0.30954 211.347C0.37576 211.295 0.451581 211.256 0.532672 211.234C0.613762 211.211 0.698533 211.204 0.782148 211.215C18.7835 213.379 29.9668 232.081 38.9522 247.108C40.6332 249.909 42.2224 252.576 43.7913 255.003C43.8536 255.1 43.8886 255.211 43.8929 255.326C43.8971 255.441 43.8703 255.555 43.8153 255.655C43.7603 255.756 43.6791 255.84 43.5804 255.899C43.4816 255.958 43.3688 255.989 43.2539 255.989L43.2437 256.001Z" fill="white"/>
<path d="M25.6505 256.002C25.547 256.002 25.4449 255.977 25.3531 255.929C25.2613 255.881 25.1825 255.811 25.1233 255.727C24.5375 254.883 23.9517 254.028 23.3608 253.18C17.1006 244.059 10.6264 234.628 0.466942 230.436C0.319856 230.365 0.205577 230.24 0.147428 230.087C0.0892782 229.934 0.091647 229.765 0.15405 229.614C0.216452 229.463 0.334183 229.341 0.48321 229.274C0.632236 229.206 0.801321 229.199 0.955946 229.252C11.4669 233.581 18.346 243.614 24.4153 252.456C25.0027 253.315 25.5894 254.164 26.1752 255.003C26.2716 255.142 26.3089 255.314 26.2788 255.481C26.2487 255.647 26.1537 255.795 26.0147 255.892C25.9075 255.965 25.7803 256.004 25.6505 256.002V256.002Z" fill="white"/>
<path d="M7.99849 256.001C7.90747 256.001 7.81744 255.982 7.73443 255.945C7.65142 255.907 7.57733 255.853 7.51714 255.784C7.22934 255.458 6.95173 255.137 6.67921 254.824C4.62133 252.463 2.84361 250.426 0.312008 248.375C0.179953 248.269 0.095704 248.114 0.0777928 247.945C0.0598816 247.776 0.109779 247.607 0.216504 247.475C0.323229 247.343 0.478042 247.259 0.646885 247.241C0.815728 247.223 0.984768 247.273 1.11682 247.38C3.73756 249.501 5.5484 251.579 7.64703 253.984L8.47986 254.939C8.56118 255.031 8.61417 255.145 8.63249 255.266C8.65081 255.388 8.63367 255.512 8.58314 255.624C8.5326 255.736 8.45081 255.831 8.34756 255.898C8.24432 255.965 8.124 256.001 8.00104 256.001H7.99849Z" fill="white"/>
</g>
</g>
</svg>
