<svg width="48" height="48" viewBox="0 0 48 48" fill="none" xmlns="http://www.w3.org/2000/svg">
<path d="M47.297 29.4294C44.1696 41.9731 31.465 49.607 18.9198 46.4789C6.37979 43.3516 -1.25413 30.6462 1.87465 18.1033C5.00051 5.55811 17.7052 -2.07655 30.2467 1.05078C42.7911 4.1781 50.4243 16.885 47.297 29.4294Z" fill="#2775CA"/>
<path d="M24 48C37.3008 48 48 37.3008 48 24C48 10.6992 37.3008 0 24 0C10.6992 0 0 10.6992 0 24C0 37.3008 10.6992 48 24 48Z" fill="#2775CA"/>
<path d="M30.5999 27.8002C30.5999 24.301 28.4999 23.101 24.2999 22.5994C21.2999 22.1986 20.6999 21.3994 20.6999 20.0002C20.6999 18.601 21.7007 17.701 23.6999 17.701C25.4999 17.701 26.5007 18.301 26.9999 19.801C27.1007 20.101 27.4007 20.3002 27.7007 20.3002H29.3015C29.7023 20.3002 30.0023 20.0002 30.0023 19.5994V19.4986C29.6015 17.2978 27.8015 15.5986 25.5023 15.3994V12.9994C25.5023 12.5986 25.2023 12.2986 24.7031 12.2002H23.2031C22.8023 12.2002 22.5023 12.5002 22.4039 12.9994V15.2986C19.4039 15.6994 17.5031 17.6986 17.5031 20.1994C17.5031 23.4994 19.5023 24.8002 23.7023 25.2994C26.5031 25.7986 27.4031 26.3986 27.4031 27.9994C27.4031 29.6002 26.0039 30.6994 24.1031 30.6994C21.5039 30.6994 20.6039 29.6002 20.3039 28.1002C20.2031 27.6994 19.9031 27.5002 19.6031 27.5002H17.9039C17.5031 27.5002 17.2031 27.8002 17.2031 28.201V28.3018C17.6039 30.8026 19.2023 32.6026 22.5023 33.1018V35.5018C22.5023 35.9026 22.8023 36.2026 23.3015 36.301H24.8015C25.2023 36.301 25.5023 36.001 25.6007 35.5018V33.1018C28.5983 32.6002 30.5999 30.5002 30.5999 27.8002Z" fill="white"/>
<path d="M18.9007 38.2994C11.1007 35.4986 7.09985 26.7986 10.0015 19.0994C11.5015 14.8994 14.8015 11.7002 18.9007 10.2002C19.3015 10.001 19.5007 9.70098 19.5007 9.19938V7.80018C19.5007 7.39938 19.3015 7.09938 18.9007 7.00098C18.7999 7.00098 18.6007 7.00098 18.4999 7.10178C9.00065 10.1018 3.79985 20.201 6.79985 29.7026C8.59985 35.3018 12.9007 39.6026 18.4999 41.4026C18.9007 41.6018 19.2991 41.4026 19.3999 41.0018C19.5007 40.901 19.5007 40.8026 19.5007 40.601V39.2018C19.5007 38.8994 19.2007 38.501 18.9007 38.2994ZM29.499 7.09938C29.0982 6.90018 28.6998 7.09938 28.599 7.50018C28.4982 7.60098 28.4983 7.69938 28.4983 7.90098V9.30018C28.4983 9.70098 28.7983 10.0994 29.0983 10.301C36.8982 13.1018 40.8991 21.8018 37.9975 29.501C36.4975 33.701 33.1975 36.9002 29.0983 38.4002C28.6975 38.5994 28.4983 38.8994 28.4983 39.401V40.8002C28.4983 41.201 28.6975 41.501 29.0983 41.5994C29.1991 41.5994 29.3982 41.5994 29.499 41.4986C38.9982 38.4986 44.199 28.3994 41.199 18.8978C39.399 13.2002 34.9998 8.89938 29.499 7.09938Z" fill="white"/>
</svg>
