<svg width="44" height="30" viewBox="0 0 44 30" fill="none" xmlns="http://www.w3.org/2000/svg">
<rect width="44" height="30" rx="8" fill="#006ACB"/>
<path d="M15.2313 9.80625L12.7433 17.2034C12.7433 17.2034 12.1247 14.1783 12.062 13.7856C10.6455 10.5642 8.54199 10.6395 8.54199 10.6395L11.0061 20.1951V20.1931H14.0008L18.142 9.80573H15.2313V9.80625ZM17.6027 20.1951H20.3227L21.9677 9.80625H19.2135L17.6027 20.1951ZM36.8535 9.80625H33.9915L29.529 20.1951H32.2309L32.7879 18.7115H36.195L36.4851 20.1951H38.9606L36.8535 9.80625ZM33.5423 16.727L35.023 12.8011L35.7981 16.727H33.5423ZM25.8266 12.8339C25.8266 12.2614 26.2986 11.8354 27.6514 11.8354C28.5306 11.8354 29.5378 12.4718 29.5378 12.4718L29.9792 10.2909C29.9792 10.2909 28.6928 9.80469 27.4296 9.80469C24.5692 9.80469 23.0941 11.1684 23.0941 12.8952C23.0941 16.0173 26.8639 15.5898 26.8639 17.1935C26.8639 17.4683 26.6452 18.1042 25.0753 18.1042C23.5008 18.1042 22.4615 17.5291 22.4615 17.5291L21.9926 19.6221C21.9926 19.6221 22.9998 20.1946 24.9458 20.1946C26.8965 20.1946 29.6026 18.74 29.6026 16.6511C29.6021 14.1373 25.8266 13.956 25.8266 12.8339Z" fill="white"/>
<path d="M12.3936 15.459L11.4984 10.9368C11.4984 10.9368 11.0844 9.96484 10.0083 9.96484C8.93217 9.96484 5.80176 9.96484 5.80176 9.96484C5.80176 9.96484 11.145 11.582 12.3936 15.459Z" fill="#FAA61A"/>
</svg>
