<svg width="256" height="256" viewBox="0 0 256 256" fill="none" xmlns="http://www.w3.org/2000/svg">
<path d="M244.251 64.415C244.251 59.9809 241.526 56.2156 237.662 54.655L137.684 3.35329H137.486C134.637 1.89177 131.442 1 127.999 1C124.555 1 121.36 1.89177 118.511 3.35329H118.313L18.3353 54.655C14.471 56.2156 11.7461 59.9809 11.7461 64.415C11.7461 68.7996 14.4214 72.5648 18.261 74.175V74.3731L118.387 125.526L118.486 125.477C121.36 126.938 124.555 127.83 127.999 127.83C131.442 127.83 134.637 126.938 137.511 125.477L137.61 125.526L237.736 74.3731V74.175C241.576 72.5648 244.251 68.7996 244.251 64.415Z" fill="#1476FF"/>
<path d="M237.662 118.07L218.093 108.013C187.376 123.743 145.487 145.12 144.992 145.319C139.542 147.746 133.845 148.96 127.999 148.96C122.128 148.96 116.406 147.721 110.956 145.294C110.485 145.12 68.6214 123.743 37.9048 108.013L18.3353 118.07C14.471 119.631 11.7461 123.396 11.7461 127.83C11.7461 132.214 14.4214 135.98 18.261 137.59V137.788L118.387 188.941L118.486 188.892C121.36 190.353 124.555 191.245 127.999 191.245C131.442 191.245 134.637 190.353 137.511 188.892L137.61 188.941L237.736 137.788V137.59C241.576 135.98 244.251 132.214 244.251 127.83C244.251 123.396 241.526 119.631 237.662 118.07Z" fill="#2FA8FF"/>
<path d="M237.662 181.485L218.093 171.428C187.376 187.158 145.487 208.536 144.992 208.734C139.542 211.161 133.845 212.375 127.999 212.375C122.128 212.375 116.406 211.137 110.956 208.709C110.485 208.536 68.6214 187.158 37.9048 171.428L18.3353 181.485C14.471 183.046 11.7461 186.811 11.7461 191.245C11.7461 195.63 14.4214 199.395 18.261 201.005V201.203L118.387 252.356L118.486 252.307C121.36 253.768 124.555 254.66 127.999 254.66C131.442 254.66 134.637 253.768 137.511 252.307L137.61 252.356L237.736 201.203V201.005C241.576 199.395 244.251 195.63 244.251 191.245C244.251 186.811 241.526 183.046 237.662 181.485Z" fill="#3CD0FF"/>
</svg>
