<svg width="48" height="48" viewBox="0 0 48 48" fill="none" xmlns="http://www.w3.org/2000/svg">
<g clip-path="url(#clip0_2485_57853)">
<path d="M47.2816 29.8066C44.0758 42.6651 31.0523 50.4906 18.1923 47.2841C5.3376 44.0783 -2.48791 31.054 0.719403 18.1963C3.92371 5.33627 16.9472 -2.48998 29.8035 0.715825C42.6627 3.92163 50.4875 16.9474 47.2816 29.8066Z" fill="#23292F"/>
<g clip-path="url(#clip1_2485_57853)">
<path d="M33.5452 12.9087H37.4504L29.3245 20.9503C26.3829 23.8616 21.6146 23.8616 18.673 20.9503L10.5482 12.9087H14.4534L20.6261 19.0177C22.4885 20.8617 25.509 20.8617 27.3725 19.0177L33.5452 12.9087ZM14.4037 35.2704H10.4985L18.6741 27.1792C21.6157 24.2678 26.384 24.2678 29.3256 27.1792L37.5011 35.2704H33.5959L27.3725 29.1118C25.5101 27.2677 22.4896 27.2677 20.6261 29.1118L14.4037 35.2704Z" fill="white"/>
</g>
</g>
<defs>
<clipPath id="clip0_2485_57853">
<rect width="48" height="48" fill="white"/>
</clipPath>
<clipPath id="clip1_2485_57853">
<rect width="27.0026" height="22.3617" fill="white" transform="translate(10.4985 12.9087)"/>
</clipPath>
</defs>
</svg>
